<?xml version="1.0" encoding="utf-8" standalone="no"?>
<!DOCTYPE svg PUBLIC "-//W3C//DTD SVG 1.1//EN"
  "http://www.w3.org/Graphics/SVG/1.1/DTD/svg11.dtd">
<!-- Created with matplotlib (https://matplotlib.org/) -->
<svg height="415.70875pt" version="1.1" viewBox="0 0 592.582813 415.70875" width="592.582813pt" xmlns="http://www.w3.org/2000/svg" xmlns:xlink="http://www.w3.org/1999/xlink">
 <metadata>
  <rdf:RDF xmlns:cc="http://creativecommons.org/ns#" xmlns:dc="http://purl.org/dc/elements/1.1/" xmlns:rdf="http://www.w3.org/1999/02/22-rdf-syntax-ns#">
   <cc:Work>
    <dc:type rdf:resource="http://purl.org/dc/dcmitype/StillImage"/>
    <dc:date>2021-04-02T20:29:50.211513</dc:date>
    <dc:format>image/svg+xml</dc:format>
    <dc:creator>
     <cc:Agent>
      <dc:title>Matplotlib v3.3.4, https://matplotlib.org/</dc:title>
     </cc:Agent>
    </dc:creator>
   </cc:Work>
  </rdf:RDF>
 </metadata>
 <defs>
  <style type="text/css">*{stroke-linecap:butt;stroke-linejoin:round;}</style>
 </defs>
 <g id="figure_1">
  <g id="patch_1">
   <path d="M 0 415.70875 
L 592.582813 415.70875 
L 592.582813 0 
L 0 0 
z
" style="fill:none;"/>
  </g>
  <g id="axes_1">
   <g id="patch_2">
    <path d="M 27.382812 376.56 
L 585.382812 376.56 
L 585.382812 50.4 
L 27.382812 50.4 
z
" style="fill:#ffffff;"/>
   </g>
   <g id="matplotlib.axis_1">
    <g id="xtick_1">
     <g id="line2d_1">
      <defs>
       <path d="M 0 0 
L 0 -12 
" id="m60ad37535e" style="stroke:#000000;stroke-width:0.8;"/>
      </defs>
      <g>
       <use style="stroke:#000000;stroke-width:0.8;" x="52.746449" xlink:href="#m60ad37535e" y="376.56"/>
      </g>
     </g>
     <g id="line2d_2">
      <defs>
       <path d="M 0 0 
L 0 12 
" id="mbbedd914de" style="stroke:#000000;stroke-width:0.8;"/>
      </defs>
      <g>
       <use style="stroke:#000000;stroke-width:0.8;" x="52.746449" xlink:href="#mbbedd914de" y="50.4"/>
      </g>
     </g>
     <g id="text_1">
      <!-- 0.5 -->
      <g transform="translate(45.796449 389.717812)scale(0.1 -0.1)">
       <defs>
        <path d="M 4.15625 35.296875 
Q 4.15625 48 6.765625 55.734375 
Q 9.375 63.484375 14.515625 67.671875 
Q 19.671875 71.875 27.484375 71.875 
Q 33.25 71.875 37.59375 69.546875 
Q 41.9375 67.234375 44.765625 62.859375 
Q 47.609375 58.5 49.21875 52.21875 
Q 50.828125 45.953125 50.828125 35.296875 
Q 50.828125 22.703125 48.234375 14.96875 
Q 45.65625 7.234375 40.5 3 
Q 35.359375 -1.21875 27.484375 -1.21875 
Q 17.140625 -1.21875 11.234375 6.203125 
Q 4.15625 15.140625 4.15625 35.296875 
z
M 13.1875 35.296875 
Q 13.1875 17.671875 17.3125 11.828125 
Q 21.4375 6 27.484375 6 
Q 33.546875 6 37.671875 11.859375 
Q 41.796875 17.71875 41.796875 35.296875 
Q 41.796875 52.984375 37.671875 58.78125 
Q 33.546875 64.59375 27.390625 64.59375 
Q 21.34375 64.59375 17.71875 59.46875 
Q 13.1875 52.9375 13.1875 35.296875 
z
" id="ArialMT-48"/>
        <path d="M 9.078125 0 
L 9.078125 10.015625 
L 19.09375 10.015625 
L 19.09375 0 
z
" id="ArialMT-46"/>
        <path d="M 4.15625 18.75 
L 13.375 19.53125 
Q 14.40625 12.796875 18.140625 9.390625 
Q 21.875 6 27.15625 6 
Q 33.5 6 37.890625 10.78125 
Q 42.28125 15.578125 42.28125 23.484375 
Q 42.28125 31 38.0625 35.34375 
Q 33.84375 39.703125 27 39.703125 
Q 22.75 39.703125 19.328125 37.765625 
Q 15.921875 35.84375 13.96875 32.765625 
L 5.71875 33.84375 
L 12.640625 70.609375 
L 48.25 70.609375 
L 48.25 62.203125 
L 19.671875 62.203125 
L 15.828125 42.96875 
Q 22.265625 47.46875 29.34375 47.46875 
Q 38.71875 47.46875 45.15625 40.96875 
Q 51.609375 34.46875 51.609375 24.265625 
Q 51.609375 14.546875 45.953125 7.46875 
Q 39.0625 -1.21875 27.15625 -1.21875 
Q 17.390625 -1.21875 11.203125 4.25 
Q 5.03125 9.71875 4.15625 18.75 
z
" id="ArialMT-53"/>
       </defs>
       <use xlink:href="#ArialMT-48"/>
       <use x="55.615234" xlink:href="#ArialMT-46"/>
       <use x="83.398438" xlink:href="#ArialMT-53"/>
      </g>
     </g>
    </g>
    <g id="xtick_2">
     <g id="line2d_3">
      <g>
       <use style="stroke:#000000;stroke-width:0.8;" x="137.291903" xlink:href="#m60ad37535e" y="376.56"/>
      </g>
     </g>
     <g id="line2d_4">
      <g>
       <use style="stroke:#000000;stroke-width:0.8;" x="137.291903" xlink:href="#mbbedd914de" y="50.4"/>
      </g>
     </g>
     <g id="text_2">
      <!-- 1.0 -->
      <g transform="translate(130.341903 389.717812)scale(0.1 -0.1)">
       <defs>
        <path d="M 37.25 0 
L 28.46875 0 
L 28.46875 56 
Q 25.296875 52.984375 20.140625 49.953125 
Q 14.984375 46.921875 10.890625 45.40625 
L 10.890625 53.90625 
Q 18.265625 57.375 23.78125 62.296875 
Q 29.296875 67.234375 31.59375 71.875 
L 37.25 71.875 
z
" id="ArialMT-49"/>
       </defs>
       <use xlink:href="#ArialMT-49"/>
       <use x="55.615234" xlink:href="#ArialMT-46"/>
       <use x="83.398438" xlink:href="#ArialMT-48"/>
      </g>
     </g>
    </g>
    <g id="xtick_3">
     <g id="line2d_5">
      <g>
       <use style="stroke:#000000;stroke-width:0.8;" x="221.837358" xlink:href="#m60ad37535e" y="376.56"/>
      </g>
     </g>
     <g id="line2d_6">
      <g>
       <use style="stroke:#000000;stroke-width:0.8;" x="221.837358" xlink:href="#mbbedd914de" y="50.4"/>
      </g>
     </g>
     <g id="text_3">
      <!-- 1.5 -->
      <g transform="translate(214.887358 389.717812)scale(0.1 -0.1)">
       <use xlink:href="#ArialMT-49"/>
       <use x="55.615234" xlink:href="#ArialMT-46"/>
       <use x="83.398438" xlink:href="#ArialMT-53"/>
      </g>
     </g>
    </g>
    <g id="xtick_4">
     <g id="line2d_7">
      <g>
       <use style="stroke:#000000;stroke-width:0.8;" x="306.382812" xlink:href="#m60ad37535e" y="376.56"/>
      </g>
     </g>
     <g id="line2d_8">
      <g>
       <use style="stroke:#000000;stroke-width:0.8;" x="306.382812" xlink:href="#mbbedd914de" y="50.4"/>
      </g>
     </g>
     <g id="text_4">
      <!-- 2.0 -->
      <g transform="translate(299.432813 389.717812)scale(0.1 -0.1)">
       <defs>
        <path d="M 50.34375 8.453125 
L 50.34375 0 
L 3.03125 0 
Q 2.9375 3.171875 4.046875 6.109375 
Q 5.859375 10.9375 9.828125 15.625 
Q 13.8125 20.3125 21.34375 26.46875 
Q 33.015625 36.03125 37.109375 41.625 
Q 41.21875 47.21875 41.21875 52.203125 
Q 41.21875 57.421875 37.46875 61 
Q 33.734375 64.59375 27.734375 64.59375 
Q 21.390625 64.59375 17.578125 60.78125 
Q 13.765625 56.984375 13.71875 50.25 
L 4.6875 51.171875 
Q 5.609375 61.28125 11.65625 66.578125 
Q 17.71875 71.875 27.9375 71.875 
Q 38.234375 71.875 44.234375 66.15625 
Q 50.25 60.453125 50.25 52 
Q 50.25 47.703125 48.484375 43.546875 
Q 46.734375 39.40625 42.65625 34.8125 
Q 38.578125 30.21875 29.109375 22.21875 
Q 21.1875 15.578125 18.9375 13.203125 
Q 16.703125 10.84375 15.234375 8.453125 
z
" id="ArialMT-50"/>
       </defs>
       <use xlink:href="#ArialMT-50"/>
       <use x="55.615234" xlink:href="#ArialMT-46"/>
       <use x="83.398438" xlink:href="#ArialMT-48"/>
      </g>
     </g>
    </g>
    <g id="xtick_5">
     <g id="line2d_9">
      <g>
       <use style="stroke:#000000;stroke-width:0.8;" x="390.928267" xlink:href="#m60ad37535e" y="376.56"/>
      </g>
     </g>
     <g id="line2d_10">
      <g>
       <use style="stroke:#000000;stroke-width:0.8;" x="390.928267" xlink:href="#mbbedd914de" y="50.4"/>
      </g>
     </g>
     <g id="text_5">
      <!-- 2.5 -->
      <g transform="translate(383.978267 389.717812)scale(0.1 -0.1)">
       <use xlink:href="#ArialMT-50"/>
       <use x="55.615234" xlink:href="#ArialMT-46"/>
       <use x="83.398438" xlink:href="#ArialMT-53"/>
      </g>
     </g>
    </g>
    <g id="xtick_6">
     <g id="line2d_11">
      <g>
       <use style="stroke:#000000;stroke-width:0.8;" x="475.473722" xlink:href="#m60ad37535e" y="376.56"/>
      </g>
     </g>
     <g id="line2d_12">
      <g>
       <use style="stroke:#000000;stroke-width:0.8;" x="475.473722" xlink:href="#mbbedd914de" y="50.4"/>
      </g>
     </g>
     <g id="text_6">
      <!-- 3.0 -->
      <g transform="translate(468.523722 389.717812)scale(0.1 -0.1)">
       <defs>
        <path d="M 4.203125 18.890625 
L 12.984375 20.0625 
Q 14.5 12.59375 18.140625 9.296875 
Q 21.78125 6 27 6 
Q 33.203125 6 37.46875 10.296875 
Q 41.75 14.59375 41.75 20.953125 
Q 41.75 27 37.796875 30.921875 
Q 33.84375 34.859375 27.734375 34.859375 
Q 25.25 34.859375 21.53125 33.890625 
L 22.515625 41.609375 
Q 23.390625 41.5 23.921875 41.5 
Q 29.546875 41.5 34.03125 44.421875 
Q 38.53125 47.359375 38.53125 53.46875 
Q 38.53125 58.296875 35.25 61.46875 
Q 31.984375 64.65625 26.8125 64.65625 
Q 21.6875 64.65625 18.265625 61.421875 
Q 14.84375 58.203125 13.875 51.765625 
L 5.078125 53.328125 
Q 6.6875 62.15625 12.390625 67.015625 
Q 18.109375 71.875 26.609375 71.875 
Q 32.46875 71.875 37.390625 69.359375 
Q 42.328125 66.84375 44.9375 62.5 
Q 47.5625 58.15625 47.5625 53.265625 
Q 47.5625 48.640625 45.0625 44.828125 
Q 42.578125 41.015625 37.703125 38.765625 
Q 44.046875 37.3125 47.5625 32.6875 
Q 51.078125 28.078125 51.078125 21.140625 
Q 51.078125 11.765625 44.234375 5.25 
Q 37.40625 -1.265625 26.953125 -1.265625 
Q 17.53125 -1.265625 11.296875 4.34375 
Q 5.078125 9.96875 4.203125 18.890625 
z
" id="ArialMT-51"/>
       </defs>
       <use xlink:href="#ArialMT-51"/>
       <use x="55.615234" xlink:href="#ArialMT-46"/>
       <use x="83.398438" xlink:href="#ArialMT-48"/>
      </g>
     </g>
    </g>
    <g id="xtick_7">
     <g id="line2d_13">
      <g>
       <use style="stroke:#000000;stroke-width:0.8;" x="560.019176" xlink:href="#m60ad37535e" y="376.56"/>
      </g>
     </g>
     <g id="line2d_14">
      <g>
       <use style="stroke:#000000;stroke-width:0.8;" x="560.019176" xlink:href="#mbbedd914de" y="50.4"/>
      </g>
     </g>
     <g id="text_7">
      <!-- 3.5 -->
      <g transform="translate(553.069176 389.717812)scale(0.1 -0.1)">
       <use xlink:href="#ArialMT-51"/>
       <use x="55.615234" xlink:href="#ArialMT-46"/>
       <use x="83.398438" xlink:href="#ArialMT-53"/>
      </g>
     </g>
    </g>
    <g id="xtick_8">
     <g id="line2d_15">
      <defs>
       <path d="M 0 0 
L 0 -6 
" id="m8e0d1bfaa5" style="stroke:#000000;stroke-width:0.6;"/>
      </defs>
      <g>
       <use style="stroke:#000000;stroke-width:0.6;" x="35.837358" xlink:href="#m8e0d1bfaa5" y="376.56"/>
      </g>
     </g>
     <g id="line2d_16">
      <defs>
       <path d="M 0 0 
L 0 6 
" id="m8cd3bb803b" style="stroke:#000000;stroke-width:0.6;"/>
      </defs>
      <g>
       <use style="stroke:#000000;stroke-width:0.6;" x="35.837358" xlink:href="#m8cd3bb803b" y="50.4"/>
      </g>
     </g>
    </g>
    <g id="xtick_9">
     <g id="line2d_17">
      <g>
       <use style="stroke:#000000;stroke-width:0.6;" x="69.65554" xlink:href="#m8e0d1bfaa5" y="376.56"/>
      </g>
     </g>
     <g id="line2d_18">
      <g>
       <use style="stroke:#000000;stroke-width:0.6;" x="69.65554" xlink:href="#m8cd3bb803b" y="50.4"/>
      </g>
     </g>
    </g>
    <g id="xtick_10">
     <g id="line2d_19">
      <g>
       <use style="stroke:#000000;stroke-width:0.6;" x="86.564631" xlink:href="#m8e0d1bfaa5" y="376.56"/>
      </g>
     </g>
     <g id="line2d_20">
      <g>
       <use style="stroke:#000000;stroke-width:0.6;" x="86.564631" xlink:href="#m8cd3bb803b" y="50.4"/>
      </g>
     </g>
    </g>
    <g id="xtick_11">
     <g id="line2d_21">
      <g>
       <use style="stroke:#000000;stroke-width:0.6;" x="103.473722" xlink:href="#m8e0d1bfaa5" y="376.56"/>
      </g>
     </g>
     <g id="line2d_22">
      <g>
       <use style="stroke:#000000;stroke-width:0.6;" x="103.473722" xlink:href="#m8cd3bb803b" y="50.4"/>
      </g>
     </g>
    </g>
    <g id="xtick_12">
     <g id="line2d_23">
      <g>
       <use style="stroke:#000000;stroke-width:0.6;" x="120.382812" xlink:href="#m8e0d1bfaa5" y="376.56"/>
      </g>
     </g>
     <g id="line2d_24">
      <g>
       <use style="stroke:#000000;stroke-width:0.6;" x="120.382812" xlink:href="#m8cd3bb803b" y="50.4"/>
      </g>
     </g>
    </g>
    <g id="xtick_13">
     <g id="line2d_25">
      <g>
       <use style="stroke:#000000;stroke-width:0.6;" x="154.200994" xlink:href="#m8e0d1bfaa5" y="376.56"/>
      </g>
     </g>
     <g id="line2d_26">
      <g>
       <use style="stroke:#000000;stroke-width:0.6;" x="154.200994" xlink:href="#m8cd3bb803b" y="50.4"/>
      </g>
     </g>
    </g>
    <g id="xtick_14">
     <g id="line2d_27">
      <g>
       <use style="stroke:#000000;stroke-width:0.6;" x="171.110085" xlink:href="#m8e0d1bfaa5" y="376.56"/>
      </g>
     </g>
     <g id="line2d_28">
      <g>
       <use style="stroke:#000000;stroke-width:0.6;" x="171.110085" xlink:href="#m8cd3bb803b" y="50.4"/>
      </g>
     </g>
    </g>
    <g id="xtick_15">
     <g id="line2d_29">
      <g>
       <use style="stroke:#000000;stroke-width:0.6;" x="188.019176" xlink:href="#m8e0d1bfaa5" y="376.56"/>
      </g>
     </g>
     <g id="line2d_30">
      <g>
       <use style="stroke:#000000;stroke-width:0.6;" x="188.019176" xlink:href="#m8cd3bb803b" y="50.4"/>
      </g>
     </g>
    </g>
    <g id="xtick_16">
     <g id="line2d_31">
      <g>
       <use style="stroke:#000000;stroke-width:0.6;" x="204.928267" xlink:href="#m8e0d1bfaa5" y="376.56"/>
      </g>
     </g>
     <g id="line2d_32">
      <g>
       <use style="stroke:#000000;stroke-width:0.6;" x="204.928267" xlink:href="#m8cd3bb803b" y="50.4"/>
      </g>
     </g>
    </g>
    <g id="xtick_17">
     <g id="line2d_33">
      <g>
       <use style="stroke:#000000;stroke-width:0.6;" x="238.746449" xlink:href="#m8e0d1bfaa5" y="376.56"/>
      </g>
     </g>
     <g id="line2d_34">
      <g>
       <use style="stroke:#000000;stroke-width:0.6;" x="238.746449" xlink:href="#m8cd3bb803b" y="50.4"/>
      </g>
     </g>
    </g>
    <g id="xtick_18">
     <g id="line2d_35">
      <g>
       <use style="stroke:#000000;stroke-width:0.6;" x="255.65554" xlink:href="#m8e0d1bfaa5" y="376.56"/>
      </g>
     </g>
     <g id="line2d_36">
      <g>
       <use style="stroke:#000000;stroke-width:0.6;" x="255.65554" xlink:href="#m8cd3bb803b" y="50.4"/>
      </g>
     </g>
    </g>
    <g id="xtick_19">
     <g id="line2d_37">
      <g>
       <use style="stroke:#000000;stroke-width:0.6;" x="272.564631" xlink:href="#m8e0d1bfaa5" y="376.56"/>
      </g>
     </g>
     <g id="line2d_38">
      <g>
       <use style="stroke:#000000;stroke-width:0.6;" x="272.564631" xlink:href="#m8cd3bb803b" y="50.4"/>
      </g>
     </g>
    </g>
    <g id="xtick_20">
     <g id="line2d_39">
      <g>
       <use style="stroke:#000000;stroke-width:0.6;" x="289.473722" xlink:href="#m8e0d1bfaa5" y="376.56"/>
      </g>
     </g>
     <g id="line2d_40">
      <g>
       <use style="stroke:#000000;stroke-width:0.6;" x="289.473722" xlink:href="#m8cd3bb803b" y="50.4"/>
      </g>
     </g>
    </g>
    <g id="xtick_21">
     <g id="line2d_41">
      <g>
       <use style="stroke:#000000;stroke-width:0.6;" x="323.291903" xlink:href="#m8e0d1bfaa5" y="376.56"/>
      </g>
     </g>
     <g id="line2d_42">
      <g>
       <use style="stroke:#000000;stroke-width:0.6;" x="323.291903" xlink:href="#m8cd3bb803b" y="50.4"/>
      </g>
     </g>
    </g>
    <g id="xtick_22">
     <g id="line2d_43">
      <g>
       <use style="stroke:#000000;stroke-width:0.6;" x="340.200994" xlink:href="#m8e0d1bfaa5" y="376.56"/>
      </g>
     </g>
     <g id="line2d_44">
      <g>
       <use style="stroke:#000000;stroke-width:0.6;" x="340.200994" xlink:href="#m8cd3bb803b" y="50.4"/>
      </g>
     </g>
    </g>
    <g id="xtick_23">
     <g id="line2d_45">
      <g>
       <use style="stroke:#000000;stroke-width:0.6;" x="357.110085" xlink:href="#m8e0d1bfaa5" y="376.56"/>
      </g>
     </g>
     <g id="line2d_46">
      <g>
       <use style="stroke:#000000;stroke-width:0.6;" x="357.110085" xlink:href="#m8cd3bb803b" y="50.4"/>
      </g>
     </g>
    </g>
    <g id="xtick_24">
     <g id="line2d_47">
      <g>
       <use style="stroke:#000000;stroke-width:0.6;" x="374.019176" xlink:href="#m8e0d1bfaa5" y="376.56"/>
      </g>
     </g>
     <g id="line2d_48">
      <g>
       <use style="stroke:#000000;stroke-width:0.6;" x="374.019176" xlink:href="#m8cd3bb803b" y="50.4"/>
      </g>
     </g>
    </g>
    <g id="xtick_25">
     <g id="line2d_49">
      <g>
       <use style="stroke:#000000;stroke-width:0.6;" x="407.837358" xlink:href="#m8e0d1bfaa5" y="376.56"/>
      </g>
     </g>
     <g id="line2d_50">
      <g>
       <use style="stroke:#000000;stroke-width:0.6;" x="407.837358" xlink:href="#m8cd3bb803b" y="50.4"/>
      </g>
     </g>
    </g>
    <g id="xtick_26">
     <g id="line2d_51">
      <g>
       <use style="stroke:#000000;stroke-width:0.6;" x="424.746449" xlink:href="#m8e0d1bfaa5" y="376.56"/>
      </g>
     </g>
     <g id="line2d_52">
      <g>
       <use style="stroke:#000000;stroke-width:0.6;" x="424.746449" xlink:href="#m8cd3bb803b" y="50.4"/>
      </g>
     </g>
    </g>
    <g id="xtick_27">
     <g id="line2d_53">
      <g>
       <use style="stroke:#000000;stroke-width:0.6;" x="441.65554" xlink:href="#m8e0d1bfaa5" y="376.56"/>
      </g>
     </g>
     <g id="line2d_54">
      <g>
       <use style="stroke:#000000;stroke-width:0.6;" x="441.65554" xlink:href="#m8cd3bb803b" y="50.4"/>
      </g>
     </g>
    </g>
    <g id="xtick_28">
     <g id="line2d_55">
      <g>
       <use style="stroke:#000000;stroke-width:0.6;" x="458.564631" xlink:href="#m8e0d1bfaa5" y="376.56"/>
      </g>
     </g>
     <g id="line2d_56">
      <g>
       <use style="stroke:#000000;stroke-width:0.6;" x="458.564631" xlink:href="#m8cd3bb803b" y="50.4"/>
      </g>
     </g>
    </g>
    <g id="xtick_29">
     <g id="line2d_57">
      <g>
       <use style="stroke:#000000;stroke-width:0.6;" x="492.382812" xlink:href="#m8e0d1bfaa5" y="376.56"/>
      </g>
     </g>
     <g id="line2d_58">
      <g>
       <use style="stroke:#000000;stroke-width:0.6;" x="492.382812" xlink:href="#m8cd3bb803b" y="50.4"/>
      </g>
     </g>
    </g>
    <g id="xtick_30">
     <g id="line2d_59">
      <g>
       <use style="stroke:#000000;stroke-width:0.6;" x="509.291903" xlink:href="#m8e0d1bfaa5" y="376.56"/>
      </g>
     </g>
     <g id="line2d_60">
      <g>
       <use style="stroke:#000000;stroke-width:0.6;" x="509.291903" xlink:href="#m8cd3bb803b" y="50.4"/>
      </g>
     </g>
    </g>
    <g id="xtick_31">
     <g id="line2d_61">
      <g>
       <use style="stroke:#000000;stroke-width:0.6;" x="526.200994" xlink:href="#m8e0d1bfaa5" y="376.56"/>
      </g>
     </g>
     <g id="line2d_62">
      <g>
       <use style="stroke:#000000;stroke-width:0.6;" x="526.200994" xlink:href="#m8cd3bb803b" y="50.4"/>
      </g>
     </g>
    </g>
    <g id="xtick_32">
     <g id="line2d_63">
      <g>
       <use style="stroke:#000000;stroke-width:0.6;" x="543.110085" xlink:href="#m8e0d1bfaa5" y="376.56"/>
      </g>
     </g>
     <g id="line2d_64">
      <g>
       <use style="stroke:#000000;stroke-width:0.6;" x="543.110085" xlink:href="#m8cd3bb803b" y="50.4"/>
      </g>
     </g>
    </g>
    <g id="xtick_33">
     <g id="line2d_65">
      <g>
       <use style="stroke:#000000;stroke-width:0.6;" x="576.928267" xlink:href="#m8e0d1bfaa5" y="376.56"/>
      </g>
     </g>
     <g id="line2d_66">
      <g>
       <use style="stroke:#000000;stroke-width:0.6;" x="576.928267" xlink:href="#m8cd3bb803b" y="50.4"/>
      </g>
     </g>
    </g>
    <g id="text_8">
     <!-- $Mass, GeV$ -->
     <g transform="translate(517.622813 405.72625)scale(0.14 -0.14)">
      <defs>
       <path d="M 7.421875 0 
L 7.421875 71.578125 
L 21.6875 71.578125 
L 38.625 20.90625 
Q 40.96875 13.8125 42.046875 10.296875 
Q 43.265625 14.203125 45.84375 21.78125 
L 62.984375 71.578125 
L 75.734375 71.578125 
L 75.734375 0 
L 66.609375 0 
L 66.609375 59.90625 
L 45.796875 0 
L 37.25 0 
L 16.546875 60.9375 
L 16.546875 0 
z
" id="ArialMT-77"/>
       <path d="M 40.4375 6.390625 
Q 35.546875 2.25 31.03125 0.53125 
Q 26.515625 -1.171875 21.34375 -1.171875 
Q 12.796875 -1.171875 8.203125 3 
Q 3.609375 7.171875 3.609375 13.671875 
Q 3.609375 17.484375 5.34375 20.625 
Q 7.078125 23.78125 9.890625 25.6875 
Q 12.703125 27.59375 16.21875 28.5625 
Q 18.796875 29.25 24.03125 29.890625 
Q 34.671875 31.15625 39.703125 32.90625 
Q 39.75 34.71875 39.75 35.203125 
Q 39.75 40.578125 37.25 42.78125 
Q 33.890625 45.75 27.25 45.75 
Q 21.046875 45.75 18.09375 43.578125 
Q 15.140625 41.40625 13.71875 35.890625 
L 5.125 37.0625 
Q 6.296875 42.578125 8.984375 45.96875 
Q 11.671875 49.359375 16.75 51.1875 
Q 21.828125 53.03125 28.515625 53.03125 
Q 35.15625 53.03125 39.296875 51.46875 
Q 43.453125 49.90625 45.40625 47.53125 
Q 47.359375 45.171875 48.140625 41.546875 
Q 48.578125 39.3125 48.578125 33.453125 
L 48.578125 21.734375 
Q 48.578125 9.46875 49.140625 6.21875 
Q 49.703125 2.984375 51.375 0 
L 42.1875 0 
Q 40.828125 2.734375 40.4375 6.390625 
z
M 39.703125 26.03125 
Q 34.90625 24.078125 25.34375 22.703125 
Q 19.921875 21.921875 17.671875 20.9375 
Q 15.4375 19.96875 14.203125 18.09375 
Q 12.984375 16.21875 12.984375 13.921875 
Q 12.984375 10.40625 15.640625 8.0625 
Q 18.3125 5.71875 23.4375 5.71875 
Q 28.515625 5.71875 32.46875 7.9375 
Q 36.421875 10.15625 38.28125 14.015625 
Q 39.703125 17 39.703125 22.796875 
z
" id="ArialMT-97"/>
       <path d="M 3.078125 15.484375 
L 11.765625 16.84375 
Q 12.5 11.625 15.84375 8.84375 
Q 19.1875 6.0625 25.203125 6.0625 
Q 31.25 6.0625 34.171875 8.515625 
Q 37.109375 10.984375 37.109375 14.3125 
Q 37.109375 17.28125 34.515625 19 
Q 32.71875 20.171875 25.53125 21.96875 
Q 15.875 24.421875 12.140625 26.203125 
Q 8.40625 27.984375 6.46875 31.125 
Q 4.546875 34.28125 4.546875 38.09375 
Q 4.546875 41.546875 6.125 44.5 
Q 7.71875 47.46875 10.453125 49.421875 
Q 12.5 50.921875 16.03125 51.96875 
Q 19.578125 53.03125 23.640625 53.03125 
Q 29.734375 53.03125 34.34375 51.265625 
Q 38.96875 49.515625 41.15625 46.5 
Q 43.359375 43.5 44.1875 38.484375 
L 35.59375 37.3125 
Q 35.015625 41.3125 32.203125 43.546875 
Q 29.390625 45.796875 24.265625 45.796875 
Q 18.21875 45.796875 15.625 43.796875 
Q 13.03125 41.796875 13.03125 39.109375 
Q 13.03125 37.40625 14.109375 36.03125 
Q 15.1875 34.625 17.484375 33.6875 
Q 18.796875 33.203125 25.25 31.453125 
Q 34.578125 28.953125 38.25 27.359375 
Q 41.9375 25.78125 44.03125 22.75 
Q 46.140625 19.734375 46.140625 15.234375 
Q 46.140625 10.84375 43.578125 6.953125 
Q 41.015625 3.078125 36.171875 0.953125 
Q 31.34375 -1.171875 25.25 -1.171875 
Q 15.140625 -1.171875 9.84375 3.03125 
Q 4.546875 7.234375 3.078125 15.484375 
z
" id="ArialMT-115"/>
       <path d="M 8.890625 0 
L 8.890625 10.015625 
L 18.890625 10.015625 
L 18.890625 0 
Q 18.890625 -5.515625 16.9375 -8.90625 
Q 14.984375 -12.3125 10.75 -14.15625 
L 8.296875 -10.40625 
Q 11.078125 -9.1875 12.390625 -6.8125 
Q 13.71875 -4.4375 13.875 0 
z
" id="ArialMT-44"/>
       <path d="M 41.21875 28.078125 
L 41.21875 36.46875 
L 71.53125 36.53125 
L 71.53125 9.96875 
Q 64.546875 4.390625 57.125 1.578125 
Q 49.703125 -1.21875 41.890625 -1.21875 
Q 31.34375 -1.21875 22.71875 3.296875 
Q 14.109375 7.8125 9.71875 16.359375 
Q 5.328125 24.90625 5.328125 35.453125 
Q 5.328125 45.90625 9.6875 54.953125 
Q 14.0625 64.015625 22.265625 68.40625 
Q 30.46875 72.796875 41.15625 72.796875 
Q 48.921875 72.796875 55.1875 70.28125 
Q 61.46875 67.78125 65.03125 63.28125 
Q 68.609375 58.796875 70.453125 51.5625 
L 61.921875 49.21875 
Q 60.296875 54.6875 57.90625 57.8125 
Q 55.515625 60.9375 51.0625 62.8125 
Q 46.625 64.703125 41.21875 64.703125 
Q 34.71875 64.703125 29.984375 62.71875 
Q 25.25 60.75 22.34375 57.515625 
Q 19.4375 54.296875 17.828125 50.4375 
Q 15.09375 43.796875 15.09375 36.03125 
Q 15.09375 26.46875 18.390625 20.015625 
Q 21.6875 13.578125 27.984375 10.453125 
Q 34.28125 7.328125 41.359375 7.328125 
Q 47.515625 7.328125 53.375 9.6875 
Q 59.234375 12.0625 62.25 14.75 
L 62.25 28.078125 
z
" id="ArialMT-71"/>
       <path d="M 42.09375 16.703125 
L 51.171875 15.578125 
Q 49.03125 7.625 43.21875 3.21875 
Q 37.40625 -1.171875 28.375 -1.171875 
Q 17 -1.171875 10.328125 5.828125 
Q 3.65625 12.84375 3.65625 25.484375 
Q 3.65625 38.578125 10.390625 45.796875 
Q 17.140625 53.03125 27.875 53.03125 
Q 38.28125 53.03125 44.875 45.953125 
Q 51.46875 38.875 51.46875 26.03125 
Q 51.46875 25.25 51.421875 23.6875 
L 12.75 23.6875 
Q 13.234375 15.140625 17.578125 10.59375 
Q 21.921875 6.0625 28.421875 6.0625 
Q 33.25 6.0625 36.671875 8.59375 
Q 40.09375 11.140625 42.09375 16.703125 
z
M 13.234375 30.90625 
L 42.1875 30.90625 
Q 41.609375 37.453125 38.875 40.71875 
Q 34.671875 45.796875 27.984375 45.796875 
Q 21.921875 45.796875 17.796875 41.75 
Q 13.671875 37.703125 13.234375 30.90625 
z
" id="ArialMT-101"/>
       <path d="M 28.171875 0 
L 0.4375 71.578125 
L 10.6875 71.578125 
L 29.296875 19.578125 
Q 31.546875 13.328125 33.0625 7.859375 
Q 34.71875 13.71875 36.921875 19.578125 
L 56.25 71.578125 
L 65.921875 71.578125 
L 37.890625 0 
z
" id="ArialMT-86"/>
      </defs>
      <use transform="translate(0 0.203125)" xlink:href="#ArialMT-77"/>
      <use transform="translate(83.300781 0.203125)" xlink:href="#ArialMT-97"/>
      <use transform="translate(138.916016 0.203125)" xlink:href="#ArialMT-115"/>
      <use transform="translate(188.916016 0.203125)" xlink:href="#ArialMT-115"/>
      <use transform="translate(238.916016 0.203125)" xlink:href="#ArialMT-44"/>
      <use transform="translate(283.359375 0.203125)" xlink:href="#ArialMT-71"/>
      <use transform="translate(361.142578 0.203125)" xlink:href="#ArialMT-101"/>
      <use transform="translate(416.757812 0.203125)" xlink:href="#ArialMT-86"/>
     </g>
    </g>
   </g>
   <g id="matplotlib.axis_2">
    <g id="ytick_1">
     <g id="line2d_67">
      <defs>
       <path d="M 0 0 
L 12 0 
" id="m74c0617895" style="stroke:#000000;stroke-width:0.8;"/>
      </defs>
      <g>
       <use style="stroke:#000000;stroke-width:0.8;" x="27.382812" xlink:href="#m74c0617895" y="376.56"/>
      </g>
     </g>
     <g id="line2d_68">
      <defs>
       <path d="M 0 0 
L -12 0 
" id="md01f5e9b30" style="stroke:#000000;stroke-width:0.8;"/>
      </defs>
      <g>
       <use style="stroke:#000000;stroke-width:0.8;" x="585.382812" xlink:href="#md01f5e9b30" y="376.56"/>
      </g>
     </g>
     <g id="text_9">
      <!-- 0 -->
      <g transform="translate(18.321875 380.138906)scale(0.1 -0.1)">
       <use xlink:href="#ArialMT-48"/>
      </g>
     </g>
    </g>
    <g id="ytick_2">
     <g id="line2d_69">
      <g>
       <use style="stroke:#000000;stroke-width:0.8;" x="27.382812" xlink:href="#m74c0617895" y="333.417143"/>
      </g>
     </g>
     <g id="line2d_70">
      <g>
       <use style="stroke:#000000;stroke-width:0.8;" x="585.382812" xlink:href="#md01f5e9b30" y="333.417143"/>
      </g>
     </g>
     <g id="text_10">
      <!-- 25 -->
      <g transform="translate(12.760937 336.996049)scale(0.1 -0.1)">
       <use xlink:href="#ArialMT-50"/>
       <use x="55.615234" xlink:href="#ArialMT-53"/>
      </g>
     </g>
    </g>
    <g id="ytick_3">
     <g id="line2d_71">
      <g>
       <use style="stroke:#000000;stroke-width:0.8;" x="27.382812" xlink:href="#m74c0617895" y="290.274286"/>
      </g>
     </g>
     <g id="line2d_72">
      <g>
       <use style="stroke:#000000;stroke-width:0.8;" x="585.382812" xlink:href="#md01f5e9b30" y="290.274286"/>
      </g>
     </g>
     <g id="text_11">
      <!-- 50 -->
      <g transform="translate(12.760937 293.853192)scale(0.1 -0.1)">
       <use xlink:href="#ArialMT-53"/>
       <use x="55.615234" xlink:href="#ArialMT-48"/>
      </g>
     </g>
    </g>
    <g id="ytick_4">
     <g id="line2d_73">
      <g>
       <use style="stroke:#000000;stroke-width:0.8;" x="27.382812" xlink:href="#m74c0617895" y="247.131429"/>
      </g>
     </g>
     <g id="line2d_74">
      <g>
       <use style="stroke:#000000;stroke-width:0.8;" x="585.382812" xlink:href="#md01f5e9b30" y="247.131429"/>
      </g>
     </g>
     <g id="text_12">
      <!-- 75 -->
      <g transform="translate(12.760937 250.710335)scale(0.1 -0.1)">
       <defs>
        <path d="M 4.734375 62.203125 
L 4.734375 70.65625 
L 51.078125 70.65625 
L 51.078125 63.8125 
Q 44.234375 56.546875 37.515625 44.484375 
Q 30.8125 32.421875 27.15625 19.671875 
Q 24.515625 10.6875 23.78125 0 
L 14.75 0 
Q 14.890625 8.453125 18.0625 20.40625 
Q 21.234375 32.375 27.171875 43.484375 
Q 33.109375 54.59375 39.796875 62.203125 
z
" id="ArialMT-55"/>
       </defs>
       <use xlink:href="#ArialMT-55"/>
       <use x="55.615234" xlink:href="#ArialMT-53"/>
      </g>
     </g>
    </g>
    <g id="ytick_5">
     <g id="line2d_75">
      <g>
       <use style="stroke:#000000;stroke-width:0.8;" x="27.382812" xlink:href="#m74c0617895" y="203.988571"/>
      </g>
     </g>
     <g id="line2d_76">
      <g>
       <use style="stroke:#000000;stroke-width:0.8;" x="585.382812" xlink:href="#md01f5e9b30" y="203.988571"/>
      </g>
     </g>
     <g id="text_13">
      <!-- 100 -->
      <g transform="translate(7.2 207.567478)scale(0.1 -0.1)">
       <use xlink:href="#ArialMT-49"/>
       <use x="55.615234" xlink:href="#ArialMT-48"/>
       <use x="111.230469" xlink:href="#ArialMT-48"/>
      </g>
     </g>
    </g>
    <g id="ytick_6">
     <g id="line2d_77">
      <g>
       <use style="stroke:#000000;stroke-width:0.8;" x="27.382812" xlink:href="#m74c0617895" y="160.845714"/>
      </g>
     </g>
     <g id="line2d_78">
      <g>
       <use style="stroke:#000000;stroke-width:0.8;" x="585.382812" xlink:href="#md01f5e9b30" y="160.845714"/>
      </g>
     </g>
     <g id="text_14">
      <!-- 125 -->
      <g transform="translate(7.2 164.424621)scale(0.1 -0.1)">
       <use xlink:href="#ArialMT-49"/>
       <use x="55.615234" xlink:href="#ArialMT-50"/>
       <use x="111.230469" xlink:href="#ArialMT-53"/>
      </g>
     </g>
    </g>
    <g id="ytick_7">
     <g id="line2d_79">
      <g>
       <use style="stroke:#000000;stroke-width:0.8;" x="27.382812" xlink:href="#m74c0617895" y="117.702857"/>
      </g>
     </g>
     <g id="line2d_80">
      <g>
       <use style="stroke:#000000;stroke-width:0.8;" x="585.382812" xlink:href="#md01f5e9b30" y="117.702857"/>
      </g>
     </g>
     <g id="text_15">
      <!-- 150 -->
      <g transform="translate(7.2 121.281763)scale(0.1 -0.1)">
       <use xlink:href="#ArialMT-49"/>
       <use x="55.615234" xlink:href="#ArialMT-53"/>
       <use x="111.230469" xlink:href="#ArialMT-48"/>
      </g>
     </g>
    </g>
    <g id="ytick_8">
     <g id="line2d_81">
      <g>
       <use style="stroke:#000000;stroke-width:0.8;" x="27.382812" xlink:href="#m74c0617895" y="74.56"/>
      </g>
     </g>
     <g id="line2d_82">
      <g>
       <use style="stroke:#000000;stroke-width:0.8;" x="585.382812" xlink:href="#md01f5e9b30" y="74.56"/>
      </g>
     </g>
     <g id="text_16">
      <!-- 175 -->
      <g transform="translate(7.2 78.138906)scale(0.1 -0.1)">
       <use xlink:href="#ArialMT-49"/>
       <use x="55.615234" xlink:href="#ArialMT-55"/>
       <use x="111.230469" xlink:href="#ArialMT-53"/>
      </g>
     </g>
    </g>
    <g id="ytick_9">
     <g id="line2d_83">
      <defs>
       <path d="M 0 0 
L 6 0 
" id="m5ae8c46717" style="stroke:#000000;stroke-width:0.6;"/>
      </defs>
      <g>
       <use style="stroke:#000000;stroke-width:0.6;" x="27.382812" xlink:href="#m5ae8c46717" y="367.931429"/>
      </g>
     </g>
     <g id="line2d_84">
      <defs>
       <path d="M 0 0 
L -6 0 
" id="mcd18343a48" style="stroke:#000000;stroke-width:0.6;"/>
      </defs>
      <g>
       <use style="stroke:#000000;stroke-width:0.6;" x="585.382812" xlink:href="#mcd18343a48" y="367.931429"/>
      </g>
     </g>
    </g>
    <g id="ytick_10">
     <g id="line2d_85">
      <g>
       <use style="stroke:#000000;stroke-width:0.6;" x="27.382812" xlink:href="#m5ae8c46717" y="359.302857"/>
      </g>
     </g>
     <g id="line2d_86">
      <g>
       <use style="stroke:#000000;stroke-width:0.6;" x="585.382812" xlink:href="#mcd18343a48" y="359.302857"/>
      </g>
     </g>
    </g>
    <g id="ytick_11">
     <g id="line2d_87">
      <g>
       <use style="stroke:#000000;stroke-width:0.6;" x="27.382812" xlink:href="#m5ae8c46717" y="350.674286"/>
      </g>
     </g>
     <g id="line2d_88">
      <g>
       <use style="stroke:#000000;stroke-width:0.6;" x="585.382812" xlink:href="#mcd18343a48" y="350.674286"/>
      </g>
     </g>
    </g>
    <g id="ytick_12">
     <g id="line2d_89">
      <g>
       <use style="stroke:#000000;stroke-width:0.6;" x="27.382812" xlink:href="#m5ae8c46717" y="342.045714"/>
      </g>
     </g>
     <g id="line2d_90">
      <g>
       <use style="stroke:#000000;stroke-width:0.6;" x="585.382812" xlink:href="#mcd18343a48" y="342.045714"/>
      </g>
     </g>
    </g>
    <g id="ytick_13">
     <g id="line2d_91">
      <g>
       <use style="stroke:#000000;stroke-width:0.6;" x="27.382812" xlink:href="#m5ae8c46717" y="324.788571"/>
      </g>
     </g>
     <g id="line2d_92">
      <g>
       <use style="stroke:#000000;stroke-width:0.6;" x="585.382812" xlink:href="#mcd18343a48" y="324.788571"/>
      </g>
     </g>
    </g>
    <g id="ytick_14">
     <g id="line2d_93">
      <g>
       <use style="stroke:#000000;stroke-width:0.6;" x="27.382812" xlink:href="#m5ae8c46717" y="316.16"/>
      </g>
     </g>
     <g id="line2d_94">
      <g>
       <use style="stroke:#000000;stroke-width:0.6;" x="585.382812" xlink:href="#mcd18343a48" y="316.16"/>
      </g>
     </g>
    </g>
    <g id="ytick_15">
     <g id="line2d_95">
      <g>
       <use style="stroke:#000000;stroke-width:0.6;" x="27.382812" xlink:href="#m5ae8c46717" y="307.531429"/>
      </g>
     </g>
     <g id="line2d_96">
      <g>
       <use style="stroke:#000000;stroke-width:0.6;" x="585.382812" xlink:href="#mcd18343a48" y="307.531429"/>
      </g>
     </g>
    </g>
    <g id="ytick_16">
     <g id="line2d_97">
      <g>
       <use style="stroke:#000000;stroke-width:0.6;" x="27.382812" xlink:href="#m5ae8c46717" y="298.902857"/>
      </g>
     </g>
     <g id="line2d_98">
      <g>
       <use style="stroke:#000000;stroke-width:0.6;" x="585.382812" xlink:href="#mcd18343a48" y="298.902857"/>
      </g>
     </g>
    </g>
    <g id="ytick_17">
     <g id="line2d_99">
      <g>
       <use style="stroke:#000000;stroke-width:0.6;" x="27.382812" xlink:href="#m5ae8c46717" y="281.645714"/>
      </g>
     </g>
     <g id="line2d_100">
      <g>
       <use style="stroke:#000000;stroke-width:0.6;" x="585.382812" xlink:href="#mcd18343a48" y="281.645714"/>
      </g>
     </g>
    </g>
    <g id="ytick_18">
     <g id="line2d_101">
      <g>
       <use style="stroke:#000000;stroke-width:0.6;" x="27.382812" xlink:href="#m5ae8c46717" y="273.017143"/>
      </g>
     </g>
     <g id="line2d_102">
      <g>
       <use style="stroke:#000000;stroke-width:0.6;" x="585.382812" xlink:href="#mcd18343a48" y="273.017143"/>
      </g>
     </g>
    </g>
    <g id="ytick_19">
     <g id="line2d_103">
      <g>
       <use style="stroke:#000000;stroke-width:0.6;" x="27.382812" xlink:href="#m5ae8c46717" y="264.388571"/>
      </g>
     </g>
     <g id="line2d_104">
      <g>
       <use style="stroke:#000000;stroke-width:0.6;" x="585.382812" xlink:href="#mcd18343a48" y="264.388571"/>
      </g>
     </g>
    </g>
    <g id="ytick_20">
     <g id="line2d_105">
      <g>
       <use style="stroke:#000000;stroke-width:0.6;" x="27.382812" xlink:href="#m5ae8c46717" y="255.76"/>
      </g>
     </g>
     <g id="line2d_106">
      <g>
       <use style="stroke:#000000;stroke-width:0.6;" x="585.382812" xlink:href="#mcd18343a48" y="255.76"/>
      </g>
     </g>
    </g>
    <g id="ytick_21">
     <g id="line2d_107">
      <g>
       <use style="stroke:#000000;stroke-width:0.6;" x="27.382812" xlink:href="#m5ae8c46717" y="238.502857"/>
      </g>
     </g>
     <g id="line2d_108">
      <g>
       <use style="stroke:#000000;stroke-width:0.6;" x="585.382812" xlink:href="#mcd18343a48" y="238.502857"/>
      </g>
     </g>
    </g>
    <g id="ytick_22">
     <g id="line2d_109">
      <g>
       <use style="stroke:#000000;stroke-width:0.6;" x="27.382812" xlink:href="#m5ae8c46717" y="229.874286"/>
      </g>
     </g>
     <g id="line2d_110">
      <g>
       <use style="stroke:#000000;stroke-width:0.6;" x="585.382812" xlink:href="#mcd18343a48" y="229.874286"/>
      </g>
     </g>
    </g>
    <g id="ytick_23">
     <g id="line2d_111">
      <g>
       <use style="stroke:#000000;stroke-width:0.6;" x="27.382812" xlink:href="#m5ae8c46717" y="221.245714"/>
      </g>
     </g>
     <g id="line2d_112">
      <g>
       <use style="stroke:#000000;stroke-width:0.6;" x="585.382812" xlink:href="#mcd18343a48" y="221.245714"/>
      </g>
     </g>
    </g>
    <g id="ytick_24">
     <g id="line2d_113">
      <g>
       <use style="stroke:#000000;stroke-width:0.6;" x="27.382812" xlink:href="#m5ae8c46717" y="212.617143"/>
      </g>
     </g>
     <g id="line2d_114">
      <g>
       <use style="stroke:#000000;stroke-width:0.6;" x="585.382812" xlink:href="#mcd18343a48" y="212.617143"/>
      </g>
     </g>
    </g>
    <g id="ytick_25">
     <g id="line2d_115">
      <g>
       <use style="stroke:#000000;stroke-width:0.6;" x="27.382812" xlink:href="#m5ae8c46717" y="195.36"/>
      </g>
     </g>
     <g id="line2d_116">
      <g>
       <use style="stroke:#000000;stroke-width:0.6;" x="585.382812" xlink:href="#mcd18343a48" y="195.36"/>
      </g>
     </g>
    </g>
    <g id="ytick_26">
     <g id="line2d_117">
      <g>
       <use style="stroke:#000000;stroke-width:0.6;" x="27.382812" xlink:href="#m5ae8c46717" y="186.731429"/>
      </g>
     </g>
     <g id="line2d_118">
      <g>
       <use style="stroke:#000000;stroke-width:0.6;" x="585.382812" xlink:href="#mcd18343a48" y="186.731429"/>
      </g>
     </g>
    </g>
    <g id="ytick_27">
     <g id="line2d_119">
      <g>
       <use style="stroke:#000000;stroke-width:0.6;" x="27.382812" xlink:href="#m5ae8c46717" y="178.102857"/>
      </g>
     </g>
     <g id="line2d_120">
      <g>
       <use style="stroke:#000000;stroke-width:0.6;" x="585.382812" xlink:href="#mcd18343a48" y="178.102857"/>
      </g>
     </g>
    </g>
    <g id="ytick_28">
     <g id="line2d_121">
      <g>
       <use style="stroke:#000000;stroke-width:0.6;" x="27.382812" xlink:href="#m5ae8c46717" y="169.474286"/>
      </g>
     </g>
     <g id="line2d_122">
      <g>
       <use style="stroke:#000000;stroke-width:0.6;" x="585.382812" xlink:href="#mcd18343a48" y="169.474286"/>
      </g>
     </g>
    </g>
    <g id="ytick_29">
     <g id="line2d_123">
      <g>
       <use style="stroke:#000000;stroke-width:0.6;" x="27.382812" xlink:href="#m5ae8c46717" y="152.217143"/>
      </g>
     </g>
     <g id="line2d_124">
      <g>
       <use style="stroke:#000000;stroke-width:0.6;" x="585.382812" xlink:href="#mcd18343a48" y="152.217143"/>
      </g>
     </g>
    </g>
    <g id="ytick_30">
     <g id="line2d_125">
      <g>
       <use style="stroke:#000000;stroke-width:0.6;" x="27.382812" xlink:href="#m5ae8c46717" y="143.588571"/>
      </g>
     </g>
     <g id="line2d_126">
      <g>
       <use style="stroke:#000000;stroke-width:0.6;" x="585.382812" xlink:href="#mcd18343a48" y="143.588571"/>
      </g>
     </g>
    </g>
    <g id="ytick_31">
     <g id="line2d_127">
      <g>
       <use style="stroke:#000000;stroke-width:0.6;" x="27.382812" xlink:href="#m5ae8c46717" y="134.96"/>
      </g>
     </g>
     <g id="line2d_128">
      <g>
       <use style="stroke:#000000;stroke-width:0.6;" x="585.382812" xlink:href="#mcd18343a48" y="134.96"/>
      </g>
     </g>
    </g>
    <g id="ytick_32">
     <g id="line2d_129">
      <g>
       <use style="stroke:#000000;stroke-width:0.6;" x="27.382812" xlink:href="#m5ae8c46717" y="126.331429"/>
      </g>
     </g>
     <g id="line2d_130">
      <g>
       <use style="stroke:#000000;stroke-width:0.6;" x="585.382812" xlink:href="#mcd18343a48" y="126.331429"/>
      </g>
     </g>
    </g>
    <g id="ytick_33">
     <g id="line2d_131">
      <g>
       <use style="stroke:#000000;stroke-width:0.6;" x="27.382812" xlink:href="#m5ae8c46717" y="109.074286"/>
      </g>
     </g>
     <g id="line2d_132">
      <g>
       <use style="stroke:#000000;stroke-width:0.6;" x="585.382812" xlink:href="#mcd18343a48" y="109.074286"/>
      </g>
     </g>
    </g>
    <g id="ytick_34">
     <g id="line2d_133">
      <g>
       <use style="stroke:#000000;stroke-width:0.6;" x="27.382812" xlink:href="#m5ae8c46717" y="100.445714"/>
      </g>
     </g>
     <g id="line2d_134">
      <g>
       <use style="stroke:#000000;stroke-width:0.6;" x="585.382812" xlink:href="#mcd18343a48" y="100.445714"/>
      </g>
     </g>
    </g>
    <g id="ytick_35">
     <g id="line2d_135">
      <g>
       <use style="stroke:#000000;stroke-width:0.6;" x="27.382812" xlink:href="#m5ae8c46717" y="91.817143"/>
      </g>
     </g>
     <g id="line2d_136">
      <g>
       <use style="stroke:#000000;stroke-width:0.6;" x="585.382812" xlink:href="#mcd18343a48" y="91.817143"/>
      </g>
     </g>
    </g>
    <g id="ytick_36">
     <g id="line2d_137">
      <g>
       <use style="stroke:#000000;stroke-width:0.6;" x="27.382812" xlink:href="#m5ae8c46717" y="83.188571"/>
      </g>
     </g>
     <g id="line2d_138">
      <g>
       <use style="stroke:#000000;stroke-width:0.6;" x="585.382812" xlink:href="#mcd18343a48" y="83.188571"/>
      </g>
     </g>
    </g>
    <g id="ytick_37">
     <g id="line2d_139">
      <g>
       <use style="stroke:#000000;stroke-width:0.6;" x="27.382812" xlink:href="#m5ae8c46717" y="65.931429"/>
      </g>
     </g>
     <g id="line2d_140">
      <g>
       <use style="stroke:#000000;stroke-width:0.6;" x="585.382812" xlink:href="#mcd18343a48" y="65.931429"/>
      </g>
     </g>
    </g>
    <g id="ytick_38">
     <g id="line2d_141">
      <g>
       <use style="stroke:#000000;stroke-width:0.6;" x="27.382812" xlink:href="#m5ae8c46717" y="57.302857"/>
      </g>
     </g>
     <g id="line2d_142">
      <g>
       <use style="stroke:#000000;stroke-width:0.6;" x="585.382812" xlink:href="#mcd18343a48" y="57.302857"/>
      </g>
     </g>
    </g>
   </g>
   <g id="patch_3">
    <path clip-path="url(#pe72c47e5f4)" d="M 52.746449 376.56 
L 73.037359 376.56 
L 73.037359 374.834286 
L 78.110081 374.834286 
L 78.110081 369.657143 
L 83.182814 369.657143 
L 83.182814 355.851429 
L 88.255536 355.851429 
L 88.255536 362.754286 
L 98.400991 362.754286 
L 98.400991 347.222857 
L 103.473724 347.222857 
L 103.473724 342.045714 
L 108.546446 342.045714 
L 108.546446 348.948571 
L 113.619179 348.948571 
L 113.619179 357.577143 
L 118.691901 357.577143 
L 118.691901 340.32 
L 123.764634 340.32 
L 123.764634 335.142857 
L 128.837356 335.142857 
L 128.837356 340.32 
L 133.910088 340.32 
L 133.910088 336.868571 
L 138.982811 336.868571 
L 138.982811 342.045714 
L 144.055533 342.045714 
L 144.055533 305.805714 
L 149.128276 305.805714 
L 149.128276 321.337143 
L 154.200998 321.337143 
L 154.200998 302.354286 
L 159.273721 302.354286 
L 159.273721 309.257143 
L 164.346443 309.257143 
L 164.346443 281.645714 
L 169.419186 281.645714 
L 169.419186 254.034286 
L 174.491908 254.034286 
L 174.491908 224.697143 
L 179.564631 224.697143 
L 179.564631 186.731429 
L 184.637353 186.731429 
L 184.637353 203.988571 
L 189.710076 203.988571 
L 189.710076 214.342857 
L 194.782818 214.342857 
L 194.782818 117.702857 
L 199.855541 117.702857 
L 199.855541 98.72 
L 204.928263 98.72 
L 204.928263 78.011429 
L 210.000985 78.011429 
L 210.000985 91.817143 
L 215.073728 91.817143 
L 215.073728 124.605714 
L 220.14645 124.605714 
L 220.14645 83.188571 
L 225.219173 83.188571 
L 225.219173 65.931429 
L 230.291895 65.931429 
L 230.291895 96.994286 
L 235.364638 96.994286 
L 235.364638 147.04 
L 240.43736 147.04 
L 240.43736 128.057143 
L 245.510083 128.057143 
L 245.510083 148.765714 
L 250.582805 148.765714 
L 250.582805 133.234286 
L 255.655548 133.234286 
L 255.655548 193.634286 
L 260.72827 193.634286 
L 260.72827 214.342857 
L 265.800993 214.342857 
L 265.800993 235.051429 
L 270.873715 235.051429 
L 270.873715 274.742857 
L 275.946458 274.742857 
L 275.946458 248.857143 
L 281.01918 248.857143 
L 281.01918 300.628571 
L 286.091903 300.628571 
L 286.091903 295.451429 
L 291.164625 295.451429 
L 291.164625 283.371429 
L 296.237368 283.371429 
L 296.237368 302.354286 
L 301.31009 302.354286 
L 301.31009 317.885714 
L 306.382812 317.885714 
L 306.382812 323.062857 
L 311.455535 323.062857 
L 311.455535 302.354286 
L 316.528257 302.354286 
L 316.528257 335.142857 
L 326.673702 335.142857 
L 326.673702 338.594286 
L 331.746465 338.594286 
L 331.746465 350.674286 
L 336.819187 350.674286 
L 336.819187 343.771429 
L 341.89191 343.771429 
L 341.89191 355.851429 
L 346.964632 355.851429 
L 346.964632 331.691429 
L 352.037355 331.691429 
L 352.037355 342.045714 
L 357.110077 342.045714 
L 357.110077 348.948571 
L 362.1828 348.948571 
L 362.1828 350.674286 
L 367.255522 350.674286 
L 367.255522 355.851429 
L 372.328285 355.851429 
L 372.328285 354.125714 
L 377.401007 354.125714 
L 377.401007 355.851429 
L 382.47373 355.851429 
L 382.47373 364.48 
L 387.546452 364.48 
L 387.546452 367.931429 
L 392.619175 367.931429 
L 392.619175 362.754286 
L 397.691897 362.754286 
L 397.691897 367.931429 
L 402.764619 367.931429 
L 402.764619 366.205714 
L 412.910105 366.205714 
L 412.910105 369.657143 
L 423.055549 369.657143 
L 423.055549 364.48 
L 428.128272 364.48 
L 428.128272 366.205714 
L 433.200994 366.205714 
L 433.200994 371.382857 
L 438.273717 371.382857 
L 438.273717 373.108571 
L 448.419162 373.108571 
L 448.419162 369.657143 
L 458.564647 369.657143 
L 458.564647 367.931429 
L 463.637369 367.931429 
L 463.637369 374.834286 
L 473.782814 374.834286 
L 473.782814 367.931429 
L 478.855537 367.931429 
L 478.855537 373.108571 
L 483.928259 373.108571 
L 483.928259 371.382857 
L 489.000981 371.382857 
L 489.000981 369.657143 
L 494.073704 369.657143 
L 494.073704 373.108571 
L 499.146467 373.108571 
L 499.146467 371.382857 
L 504.219189 371.382857 
L 504.219189 376.56 
L 514.364634 376.56 
L 514.364634 374.834286 
L 519.437356 374.834286 
L 519.437356 376.56 
L 529.582801 376.56 
L 529.582801 374.834286 
L 539.728286 374.834286 
L 539.728286 376.56 
L 549.873731 376.56 
L 549.873731 374.834286 
L 554.946454 374.834286 
L 554.946454 376.56 
L 560.019176 376.56 
L 560.019176 376.56 
" style="fill:none;stroke:#ff0000;stroke-linejoin:miter;stroke-width:2;"/>
   </g>
   <g id="patch_4">
    <path clip-path="url(#pe72c47e5f4)" d="M 52.746449 376.56 
L 83.182814 376.56 
L 83.182814 374.834286 
L 93.328269 374.834286 
L 93.328269 373.108571 
L 98.400991 373.108571 
L 98.400991 361.028571 
L 103.473724 361.028571 
L 103.473724 359.302857 
L 108.546446 359.302857 
L 108.546446 355.851429 
L 113.619179 355.851429 
L 113.619179 373.108571 
L 118.691901 373.108571 
L 118.691901 350.674286 
L 123.764634 350.674286 
L 123.764634 348.948571 
L 128.837356 348.948571 
L 128.837356 345.497143 
L 133.910088 345.497143 
L 133.910088 336.868571 
L 138.982811 336.868571 
L 138.982811 347.222857 
L 144.055533 347.222857 
L 144.055533 317.885714 
L 149.128276 317.885714 
L 149.128276 328.24 
L 154.200998 328.24 
L 154.200998 310.982857 
L 164.346443 310.982857 
L 164.346443 281.645714 
L 169.419186 281.645714 
L 169.419186 255.76 
L 174.491908 255.76 
L 174.491908 224.697143 
L 179.564631 224.697143 
L 179.564631 191.908571 
L 184.637353 191.908571 
L 184.637353 209.165714 
L 189.710076 209.165714 
L 189.710076 214.342857 
L 194.782818 214.342857 
L 194.782818 117.702857 
L 199.855541 117.702857 
L 199.855541 103.897143 
L 204.928263 103.897143 
L 204.928263 81.462857 
L 210.000985 81.462857 
L 210.000985 91.817143 
L 215.073728 91.817143 
L 215.073728 124.605714 
L 220.14645 124.605714 
L 220.14645 83.188571 
L 225.219173 83.188571 
L 225.219173 69.382857 
L 230.291895 69.382857 
L 230.291895 98.72 
L 235.364638 98.72 
L 235.364638 147.04 
L 240.43736 147.04 
L 240.43736 128.057143 
L 245.510083 128.057143 
L 245.510083 148.765714 
L 250.582805 148.765714 
L 250.582805 133.234286 
L 255.655548 133.234286 
L 255.655548 195.36 
L 260.72827 195.36 
L 260.72827 214.342857 
L 265.800993 214.342857 
L 265.800993 236.777143 
L 270.873715 236.777143 
L 270.873715 274.742857 
L 275.946458 274.742857 
L 275.946458 248.857143 
L 281.01918 248.857143 
L 281.01918 300.628571 
L 286.091903 300.628571 
L 286.091903 295.451429 
L 291.164625 295.451429 
L 291.164625 283.371429 
L 296.237368 283.371429 
L 296.237368 304.08 
L 301.31009 304.08 
L 301.31009 317.885714 
L 306.382812 317.885714 
L 306.382812 323.062857 
L 311.455535 323.062857 
L 311.455535 302.354286 
L 316.528257 302.354286 
L 316.528257 336.868571 
L 326.673702 336.868571 
L 326.673702 338.594286 
L 331.746465 338.594286 
L 331.746465 350.674286 
L 336.819187 350.674286 
L 336.819187 343.771429 
L 341.89191 343.771429 
L 341.89191 355.851429 
L 346.964632 355.851429 
L 346.964632 331.691429 
L 352.037355 331.691429 
L 352.037355 342.045714 
L 357.110077 342.045714 
L 357.110077 348.948571 
L 362.1828 348.948571 
L 362.1828 350.674286 
L 367.255522 350.674286 
L 367.255522 357.577143 
L 372.328285 357.577143 
L 372.328285 354.125714 
L 377.401007 354.125714 
L 377.401007 355.851429 
L 382.47373 355.851429 
L 382.47373 364.48 
L 387.546452 364.48 
L 387.546452 367.931429 
L 392.619175 367.931429 
L 392.619175 362.754286 
L 397.691897 362.754286 
L 397.691897 367.931429 
L 402.764619 367.931429 
L 402.764619 366.205714 
L 412.910105 366.205714 
L 412.910105 369.657143 
L 423.055549 369.657143 
L 423.055549 364.48 
L 428.128272 364.48 
L 428.128272 366.205714 
L 433.200994 366.205714 
L 433.200994 371.382857 
L 438.273717 371.382857 
L 438.273717 373.108571 
L 448.419162 373.108571 
L 448.419162 369.657143 
L 458.564647 369.657143 
L 458.564647 367.931429 
L 463.637369 367.931429 
L 463.637369 374.834286 
L 473.782814 374.834286 
L 473.782814 367.931429 
L 478.855537 367.931429 
L 478.855537 373.108571 
L 483.928259 373.108571 
L 483.928259 371.382857 
L 489.000981 371.382857 
L 489.000981 369.657143 
L 494.073704 369.657143 
L 494.073704 373.108571 
L 499.146467 373.108571 
L 499.146467 371.382857 
L 504.219189 371.382857 
L 504.219189 376.56 
L 514.364634 376.56 
L 514.364634 374.834286 
L 519.437356 374.834286 
L 519.437356 376.56 
L 529.582801 376.56 
L 529.582801 374.834286 
L 539.728286 374.834286 
L 539.728286 376.56 
L 549.873731 376.56 
L 549.873731 374.834286 
L 554.946454 374.834286 
L 554.946454 376.56 
L 560.019176 376.56 
L 560.019176 376.56 
" style="fill:none;stroke:#008000;stroke-linejoin:miter;stroke-width:2;"/>
   </g>
   <g id="patch_5">
    <path clip-path="url(#pe72c47e5f4)" d="M 52.746449 376.56 
L 93.328269 376.56 
L 93.328269 374.834286 
L 98.400991 374.834286 
L 98.400991 367.931429 
L 103.473724 367.931429 
L 103.473724 364.48 
L 108.546446 364.48 
L 108.546446 366.205714 
L 113.619179 366.205714 
L 113.619179 373.108571 
L 118.691901 373.108571 
L 118.691901 354.125714 
L 123.764634 354.125714 
L 123.764634 357.577143 
L 128.837356 357.577143 
L 128.837356 350.674286 
L 133.910088 350.674286 
L 133.910088 342.045714 
L 138.982811 342.045714 
L 138.982811 350.674286 
L 144.055533 350.674286 
L 144.055533 331.691429 
L 154.200998 331.691429 
L 154.200998 319.611429 
L 159.273721 319.611429 
L 159.273721 317.885714 
L 164.346443 317.885714 
L 164.346443 288.548571 
L 169.419186 288.548571 
L 169.419186 260.937143 
L 174.491908 260.937143 
L 174.491908 229.874286 
L 179.564631 229.874286 
L 179.564631 212.617143 
L 184.637353 212.617143 
L 184.637353 216.068571 
L 189.710076 216.068571 
L 189.710076 219.52 
L 194.782818 219.52 
L 194.782818 126.331429 
L 199.855541 126.331429 
L 199.855541 110.8 
L 204.928263 110.8 
L 204.928263 88.365714 
L 210.000985 88.365714 
L 210.000985 98.72 
L 215.073728 98.72 
L 215.073728 136.685714 
L 220.14645 136.685714 
L 220.14645 91.817143 
L 225.219173 91.817143 
L 225.219173 81.462857 
L 230.291895 81.462857 
L 230.291895 102.171429 
L 235.364638 102.171429 
L 235.364638 152.217143 
L 240.43736 152.217143 
L 240.43736 134.96 
L 245.510083 134.96 
L 245.510083 159.12 
L 250.582805 159.12 
L 250.582805 141.862857 
L 255.655548 141.862857 
L 255.655548 197.085714 
L 260.72827 197.085714 
L 260.72827 214.342857 
L 265.800993 214.342857 
L 265.800993 238.502857 
L 270.873715 238.502857 
L 270.873715 276.468571 
L 275.946458 276.468571 
L 275.946458 254.034286 
L 281.01918 254.034286 
L 281.01918 300.628571 
L 286.091903 300.628571 
L 286.091903 297.177143 
L 291.164625 297.177143 
L 291.164625 286.822857 
L 296.237368 286.822857 
L 296.237368 304.08 
L 301.31009 304.08 
L 301.31009 319.611429 
L 306.382812 319.611429 
L 306.382812 323.062857 
L 311.455535 323.062857 
L 311.455535 305.805714 
L 316.528257 305.805714 
L 316.528257 336.868571 
L 321.60098 336.868571 
L 321.60098 342.045714 
L 326.673702 342.045714 
L 326.673702 338.594286 
L 331.746465 338.594286 
L 331.746465 350.674286 
L 336.819187 350.674286 
L 336.819187 343.771429 
L 341.89191 343.771429 
L 341.89191 355.851429 
L 346.964632 355.851429 
L 346.964632 333.417143 
L 352.037355 333.417143 
L 352.037355 343.771429 
L 357.110077 343.771429 
L 357.110077 348.948571 
L 362.1828 348.948571 
L 362.1828 350.674286 
L 367.255522 350.674286 
L 367.255522 357.577143 
L 372.328285 357.577143 
L 372.328285 354.125714 
L 377.401007 354.125714 
L 377.401007 357.577143 
L 382.47373 357.577143 
L 382.47373 364.48 
L 387.546452 364.48 
L 387.546452 367.931429 
L 392.619175 367.931429 
L 392.619175 362.754286 
L 397.691897 362.754286 
L 397.691897 367.931429 
L 402.764619 367.931429 
L 402.764619 366.205714 
L 412.910105 366.205714 
L 412.910105 371.382857 
L 417.982827 371.382857 
L 417.982827 369.657143 
L 423.055549 369.657143 
L 423.055549 364.48 
L 428.128272 364.48 
L 428.128272 366.205714 
L 433.200994 366.205714 
L 433.200994 371.382857 
L 438.273717 371.382857 
L 438.273717 373.108571 
L 448.419162 373.108571 
L 448.419162 369.657143 
L 463.637369 369.657143 
L 463.637369 374.834286 
L 473.782814 374.834286 
L 473.782814 367.931429 
L 478.855537 367.931429 
L 478.855537 373.108571 
L 483.928259 373.108571 
L 483.928259 371.382857 
L 494.073704 371.382857 
L 494.073704 373.108571 
L 499.146467 373.108571 
L 499.146467 371.382857 
L 504.219189 371.382857 
L 504.219189 376.56 
L 514.364634 376.56 
L 514.364634 374.834286 
L 519.437356 374.834286 
L 519.437356 376.56 
L 529.582801 376.56 
L 529.582801 374.834286 
L 539.728286 374.834286 
L 539.728286 376.56 
L 549.873731 376.56 
L 549.873731 374.834286 
L 554.946454 374.834286 
L 554.946454 376.56 
L 560.019176 376.56 
L 560.019176 376.56 
" style="fill:none;stroke:#ffff00;stroke-linejoin:miter;stroke-width:2;"/>
   </g>
   <g id="patch_6">
    <path clip-path="url(#pe72c47e5f4)" d="M 52.746449 376.56 
L 98.400991 376.56 
L 98.400991 374.834286 
L 103.473724 374.834286 
L 103.473724 373.108571 
L 108.546446 373.108571 
L 108.546446 371.382857 
L 113.619179 371.382857 
L 113.619179 374.834286 
L 118.691901 374.834286 
L 118.691901 361.028571 
L 123.764634 361.028571 
L 123.764634 366.205714 
L 133.910088 366.205714 
L 133.910088 357.577143 
L 138.982811 357.577143 
L 138.982811 366.205714 
L 144.055533 366.205714 
L 144.055533 343.771429 
L 149.128276 343.771429 
L 149.128276 345.497143 
L 154.200998 345.497143 
L 154.200998 347.222857 
L 159.273721 347.222857 
L 159.273721 335.142857 
L 164.346443 335.142857 
L 164.346443 321.337143 
L 169.419186 321.337143 
L 169.419186 292 
L 174.491908 292 
L 174.491908 267.84 
L 179.564631 267.84 
L 179.564631 233.325714 
L 184.637353 233.325714 
L 184.637353 255.76 
L 189.710076 255.76 
L 189.710076 250.582857 
L 194.782818 250.582857 
L 194.782818 171.2 
L 199.855541 171.2 
L 199.855541 157.394286 
L 204.928263 157.394286 
L 204.928263 141.862857 
L 210.000985 141.862857 
L 210.000985 155.668571 
L 215.073728 155.668571 
L 215.073728 166.022857 
L 220.14645 166.022857 
L 220.14645 133.234286 
L 225.219173 133.234286 
L 225.219173 126.331429 
L 230.291895 126.331429 
L 230.291895 141.862857 
L 235.364638 141.862857 
L 235.364638 185.005714 
L 240.43736 185.005714 
L 240.43736 159.12 
L 245.510083 159.12 
L 245.510083 183.28 
L 250.582805 183.28 
L 250.582805 176.377143 
L 255.655548 176.377143 
L 255.655548 222.971429 
L 260.72827 222.971429 
L 260.72827 236.777143 
L 265.800993 236.777143 
L 265.800993 250.582857 
L 270.873715 250.582857 
L 270.873715 293.725714 
L 275.946458 293.725714 
L 275.946458 276.468571 
L 281.01918 276.468571 
L 281.01918 310.982857 
L 286.091903 310.982857 
L 286.091903 307.531429 
L 291.164625 307.531429 
L 291.164625 300.628571 
L 296.237368 300.628571 
L 296.237368 312.708571 
L 301.31009 312.708571 
L 301.31009 331.691429 
L 306.382812 331.691429 
L 306.382812 329.965714 
L 311.455535 329.965714 
L 311.455535 312.708571 
L 316.528257 312.708571 
L 316.528257 343.771429 
L 321.60098 343.771429 
L 321.60098 345.497143 
L 326.673702 345.497143 
L 326.673702 342.045714 
L 331.746465 342.045714 
L 331.746465 352.4 
L 336.819187 352.4 
L 336.819187 348.948571 
L 341.89191 348.948571 
L 341.89191 357.577143 
L 346.964632 357.577143 
L 346.964632 340.32 
L 352.037355 340.32 
L 352.037355 345.497143 
L 357.110077 345.497143 
L 357.110077 354.125714 
L 362.1828 354.125714 
L 362.1828 352.4 
L 367.255522 352.4 
L 367.255522 359.302857 
L 372.328285 359.302857 
L 372.328285 361.028571 
L 377.401007 361.028571 
L 377.401007 357.577143 
L 382.47373 357.577143 
L 382.47373 366.205714 
L 387.546452 366.205714 
L 387.546452 367.931429 
L 392.619175 367.931429 
L 392.619175 364.48 
L 397.691897 364.48 
L 397.691897 369.657143 
L 402.764619 369.657143 
L 402.764619 371.382857 
L 423.055549 371.382857 
L 423.055549 364.48 
L 428.128272 364.48 
L 428.128272 369.657143 
L 433.200994 369.657143 
L 433.200994 371.382857 
L 438.273717 371.382857 
L 438.273717 373.108571 
L 448.419162 373.108571 
L 448.419162 371.382857 
L 453.491884 371.382857 
L 453.491884 369.657143 
L 458.564647 369.657143 
L 458.564647 371.382857 
L 463.637369 371.382857 
L 463.637369 374.834286 
L 473.782814 374.834286 
L 473.782814 367.931429 
L 478.855537 367.931429 
L 478.855537 373.108571 
L 483.928259 373.108571 
L 483.928259 371.382857 
L 494.073704 371.382857 
L 494.073704 373.108571 
L 499.146467 373.108571 
L 499.146467 371.382857 
L 504.219189 371.382857 
L 504.219189 376.56 
L 514.364634 376.56 
L 514.364634 374.834286 
L 519.437356 374.834286 
L 519.437356 376.56 
L 529.582801 376.56 
L 529.582801 374.834286 
L 539.728286 374.834286 
L 539.728286 376.56 
L 549.873731 376.56 
L 549.873731 374.834286 
L 554.946454 374.834286 
L 554.946454 376.56 
L 560.019176 376.56 
L 560.019176 376.56 
" style="fill:none;stroke:#ffa500;stroke-linejoin:miter;stroke-width:2;"/>
   </g>
   <g id="patch_7">
    <path clip-path="url(#pe72c47e5f4)" d="M 52.746449 376.56 
L 118.691901 376.56 
L 118.691901 367.931429 
L 123.764634 367.931429 
L 123.764634 371.382857 
L 128.837356 371.382857 
L 128.837356 373.108571 
L 133.910088 373.108571 
L 133.910088 371.382857 
L 138.982811 371.382857 
L 138.982811 373.108571 
L 144.055533 373.108571 
L 144.055533 361.028571 
L 149.128276 361.028571 
L 149.128276 369.657143 
L 154.200998 369.657143 
L 154.200998 367.931429 
L 164.346443 367.931429 
L 164.346443 355.851429 
L 174.491908 355.851429 
L 174.491908 338.594286 
L 179.564631 338.594286 
L 179.564631 319.611429 
L 189.710076 319.611429 
L 189.710076 312.708571 
L 194.782818 312.708571 
L 194.782818 290.274286 
L 199.855541 290.274286 
L 199.855541 278.194286 
L 204.928263 278.194286 
L 204.928263 264.388571 
L 215.073728 264.388571 
L 215.073728 266.114286 
L 220.14645 266.114286 
L 220.14645 255.76 
L 225.219173 255.76 
L 225.219173 245.405714 
L 230.291895 245.405714 
L 230.291895 254.034286 
L 235.364638 254.034286 
L 235.364638 259.211429 
L 240.43736 259.211429 
L 240.43736 245.405714 
L 245.510083 245.405714 
L 245.510083 269.565714 
L 250.582805 269.565714 
L 250.582805 260.937143 
L 255.655548 260.937143 
L 255.655548 286.822857 
L 260.72827 286.822857 
L 260.72827 292 
L 265.800993 292 
L 265.800993 288.548571 
L 270.873715 288.548571 
L 270.873715 323.062857 
L 275.946458 323.062857 
L 275.946458 316.16 
L 281.01918 316.16 
L 281.01918 343.771429 
L 286.091903 343.771429 
L 286.091903 331.691429 
L 291.164625 331.691429 
L 291.164625 335.142857 
L 296.237368 335.142857 
L 296.237368 345.497143 
L 301.31009 345.497143 
L 301.31009 348.948571 
L 306.382812 348.948571 
L 306.382812 345.497143 
L 311.455535 345.497143 
L 311.455535 343.771429 
L 316.528257 343.771429 
L 316.528257 357.577143 
L 321.60098 357.577143 
L 321.60098 364.48 
L 326.673702 364.48 
L 326.673702 361.028571 
L 331.746465 361.028571 
L 331.746465 357.577143 
L 336.819187 357.577143 
L 336.819187 362.754286 
L 346.964632 362.754286 
L 346.964632 354.125714 
L 352.037355 354.125714 
L 352.037355 355.851429 
L 357.110077 355.851429 
L 357.110077 361.028571 
L 362.1828 361.028571 
L 362.1828 362.754286 
L 367.255522 362.754286 
L 367.255522 366.205714 
L 382.47373 366.205714 
L 382.47373 373.108571 
L 392.619175 373.108571 
L 392.619175 371.382857 
L 397.691897 371.382857 
L 397.691897 369.657143 
L 402.764619 369.657143 
L 402.764619 373.108571 
L 412.910105 373.108571 
L 412.910105 374.834286 
L 417.982827 374.834286 
L 417.982827 373.108571 
L 423.055549 373.108571 
L 423.055549 367.931429 
L 428.128272 367.931429 
L 428.128272 376.56 
L 433.200994 376.56 
L 433.200994 373.108571 
L 438.273717 373.108571 
L 438.273717 374.834286 
L 443.346439 374.834286 
L 443.346439 373.108571 
L 448.419162 373.108571 
L 448.419162 371.382857 
L 453.491884 371.382857 
L 453.491884 373.108571 
L 463.637369 373.108571 
L 463.637369 374.834286 
L 468.710092 374.834286 
L 468.710092 376.56 
L 473.782814 376.56 
L 473.782814 369.657143 
L 478.855537 369.657143 
L 478.855537 374.834286 
L 489.000981 374.834286 
L 489.000981 371.382857 
L 494.073704 371.382857 
L 494.073704 373.108571 
L 504.219189 373.108571 
L 504.219189 376.56 
L 529.582801 376.56 
L 529.582801 374.834286 
L 534.655524 374.834286 
L 534.655524 376.56 
L 549.873731 376.56 
L 549.873731 374.834286 
L 554.946454 374.834286 
L 554.946454 376.56 
L 560.019176 376.56 
L 560.019176 376.56 
" style="fill:none;stroke:#000000;stroke-linejoin:miter;stroke-width:2;"/>
   </g>
   <g id="patch_8">
    <path d="M 27.382812 376.56 
L 27.382812 50.4 
" style="fill:none;stroke:#000000;stroke-linecap:square;stroke-linejoin:miter;stroke-width:2;"/>
   </g>
   <g id="patch_9">
    <path d="M 585.382812 376.56 
L 585.382812 50.4 
" style="fill:none;stroke:#000000;stroke-linecap:square;stroke-linejoin:miter;stroke-width:2;"/>
   </g>
   <g id="patch_10">
    <path d="M 27.382812 376.56 
L 585.382812 376.56 
" style="fill:none;stroke:#000000;stroke-linecap:square;stroke-linejoin:miter;stroke-width:2;"/>
   </g>
   <g id="patch_11">
    <path d="M 27.382812 50.4 
L 585.382812 50.4 
" style="fill:none;stroke:#000000;stroke-linecap:square;stroke-linejoin:miter;stroke-width:2;"/>
   </g>
   <g id="legend_1">
    <g id="patch_12">
     <path d="M 415.733437 74.591562 
L 436.733437 74.591562 
L 436.733437 64.791562 
L 415.733437 64.791562 
z
" style="fill:none;stroke:#ff0000;stroke-linejoin:miter;stroke-width:2;"/>
    </g>
    <g id="text_17">
     <!-- ITS &amp; (&gt;= 0TPC) | 0 -->
     <g transform="translate(447.933437 74.591562)scale(0.14 -0.14)">
      <defs>
       <path d="M 9.328125 0 
L 9.328125 71.578125 
L 18.796875 71.578125 
L 18.796875 0 
z
" id="ArialMT-73"/>
       <path d="M 25.921875 0 
L 25.921875 63.140625 
L 2.34375 63.140625 
L 2.34375 71.578125 
L 59.078125 71.578125 
L 59.078125 63.140625 
L 35.40625 63.140625 
L 35.40625 0 
z
" id="ArialMT-84"/>
       <path d="M 4.5 23 
L 13.421875 23.78125 
Q 14.0625 18.40625 16.375 14.96875 
Q 18.703125 11.53125 23.578125 9.40625 
Q 28.46875 7.28125 34.578125 7.28125 
Q 39.984375 7.28125 44.140625 8.890625 
Q 48.296875 10.5 50.3125 13.296875 
Q 52.34375 16.109375 52.34375 19.4375 
Q 52.34375 22.796875 50.390625 25.3125 
Q 48.4375 27.828125 43.953125 29.546875 
Q 41.0625 30.671875 31.203125 33.03125 
Q 21.34375 35.40625 17.390625 37.5 
Q 12.25 40.1875 9.734375 44.15625 
Q 7.234375 48.140625 7.234375 53.078125 
Q 7.234375 58.5 10.296875 63.203125 
Q 13.375 67.921875 19.28125 70.359375 
Q 25.203125 72.796875 32.421875 72.796875 
Q 40.375 72.796875 46.453125 70.234375 
Q 52.546875 67.671875 55.8125 62.6875 
Q 59.078125 57.71875 59.328125 51.421875 
L 50.25 50.734375 
Q 49.515625 57.515625 45.28125 60.984375 
Q 41.0625 64.453125 32.8125 64.453125 
Q 24.21875 64.453125 20.28125 61.296875 
Q 16.359375 58.15625 16.359375 53.71875 
Q 16.359375 49.859375 19.140625 47.359375 
Q 21.875 44.875 33.421875 42.265625 
Q 44.96875 39.65625 49.265625 37.703125 
Q 55.515625 34.8125 58.484375 30.390625 
Q 61.46875 25.984375 61.46875 20.21875 
Q 61.46875 14.5 58.203125 9.4375 
Q 54.9375 4.390625 48.796875 1.578125 
Q 42.671875 -1.21875 35.015625 -1.21875 
Q 25.296875 -1.21875 18.71875 1.609375 
Q 12.15625 4.4375 8.421875 10.125 
Q 4.6875 15.828125 4.5 23 
z
" id="ArialMT-83"/>
       <path id="ArialMT-32"/>
       <path d="M 47.515625 8.453125 
Q 43.171875 3.609375 38.03125 1.1875 
Q 32.90625 -1.21875 26.953125 -1.21875 
Q 15.96875 -1.21875 9.515625 6.203125 
Q 4.296875 12.25 4.296875 19.734375 
Q 4.296875 26.375 8.5625 31.71875 
Q 12.84375 37.0625 21.34375 41.109375 
Q 16.5 46.6875 14.890625 50.140625 
Q 13.28125 53.609375 13.28125 56.84375 
Q 13.28125 63.28125 18.328125 68.03125 
Q 23.390625 72.796875 31.0625 72.796875 
Q 38.375 72.796875 43.03125 68.296875 
Q 47.703125 63.8125 47.703125 57.515625 
Q 47.703125 47.3125 34.1875 40.09375 
L 47.015625 23.734375 
Q 49.21875 28.03125 50.4375 33.6875 
L 59.578125 31.734375 
Q 57.234375 22.359375 53.21875 16.3125 
Q 58.15625 9.765625 64.40625 5.328125 
L 58.5 -1.65625 
Q 53.171875 1.765625 47.515625 8.453125 
z
M 29.640625 45.75 
Q 35.359375 49.125 37.03125 51.65625 
Q 38.71875 54.203125 38.71875 57.28125 
Q 38.71875 60.9375 36.390625 63.25 
Q 34.078125 65.578125 30.609375 65.578125 
Q 27.046875 65.578125 24.671875 63.28125 
Q 22.3125 60.984375 22.3125 57.671875 
Q 22.3125 56 23.171875 54.171875 
Q 24.03125 52.34375 25.734375 50.296875 
z
M 42 15.375 
L 25.875 35.359375 
Q 18.75 31.109375 16.25 27.46875 
Q 13.765625 23.828125 13.765625 20.265625 
Q 13.765625 15.921875 17.234375 11.234375 
Q 20.703125 6.546875 27.046875 6.546875 
Q 31 6.546875 35.21875 9 
Q 39.453125 11.46875 42 15.375 
z
" id="ArialMT-38"/>
       <path d="M 23.390625 -21.046875 
Q 16.109375 -11.859375 11.078125 0.4375 
Q 6.0625 12.75 6.0625 25.921875 
Q 6.0625 37.546875 9.8125 48.1875 
Q 14.203125 60.546875 23.390625 72.796875 
L 29.6875 72.796875 
Q 23.78125 62.640625 21.875 58.296875 
Q 18.890625 51.5625 17.1875 44.234375 
Q 15.09375 35.109375 15.09375 25.875 
Q 15.09375 2.390625 29.6875 -21.046875 
z
" id="ArialMT-40"/>
       <path d="M 52.875 31.296875 
L 5.46875 11.03125 
L 5.46875 19.78125 
L 43.015625 35.359375 
L 5.46875 50.78125 
L 5.46875 59.515625 
L 52.875 39.5 
z
" id="ArialMT-62"/>
       <path d="M 52.828125 42.09375 
L 5.5625 42.09375 
L 5.5625 50.296875 
L 52.828125 50.296875 
z
M 52.828125 20.359375 
L 5.5625 20.359375 
L 5.5625 28.5625 
L 52.828125 28.5625 
z
" id="ArialMT-61"/>
       <path d="M 7.71875 0 
L 7.71875 71.578125 
L 34.71875 71.578125 
Q 41.84375 71.578125 45.609375 70.90625 
Q 50.875 70.015625 54.4375 67.546875 
Q 58.015625 65.09375 60.1875 60.640625 
Q 62.359375 56.203125 62.359375 50.875 
Q 62.359375 41.75 56.546875 35.421875 
Q 50.734375 29.109375 35.546875 29.109375 
L 17.1875 29.109375 
L 17.1875 0 
z
M 17.1875 37.546875 
L 35.6875 37.546875 
Q 44.875 37.546875 48.734375 40.96875 
Q 52.59375 44.390625 52.59375 50.59375 
Q 52.59375 55.078125 50.3125 58.265625 
Q 48.046875 61.46875 44.34375 62.5 
Q 41.9375 63.140625 35.5 63.140625 
L 17.1875 63.140625 
z
" id="ArialMT-80"/>
       <path d="M 58.796875 25.09375 
L 68.265625 22.703125 
Q 65.28125 11.03125 57.546875 4.90625 
Q 49.8125 -1.21875 38.625 -1.21875 
Q 27.046875 -1.21875 19.796875 3.484375 
Q 12.546875 8.203125 8.765625 17.140625 
Q 4.984375 26.078125 4.984375 36.328125 
Q 4.984375 47.515625 9.25 55.828125 
Q 13.53125 64.15625 21.40625 68.46875 
Q 29.296875 72.796875 38.765625 72.796875 
Q 49.515625 72.796875 56.828125 67.328125 
Q 64.15625 61.859375 67.046875 51.953125 
L 57.71875 49.75 
Q 55.21875 57.5625 50.484375 61.125 
Q 45.75 64.703125 38.578125 64.703125 
Q 30.328125 64.703125 24.78125 60.734375 
Q 19.234375 56.78125 16.984375 50.109375 
Q 14.75 43.453125 14.75 36.375 
Q 14.75 27.25 17.40625 20.4375 
Q 20.0625 13.625 25.671875 10.25 
Q 31.296875 6.890625 37.84375 6.890625 
Q 45.796875 6.890625 51.3125 11.46875 
Q 56.84375 16.0625 58.796875 25.09375 
z
" id="ArialMT-67"/>
       <path d="M 12.359375 -21.046875 
L 6.0625 -21.046875 
Q 20.65625 2.390625 20.65625 25.875 
Q 20.65625 35.0625 18.5625 44.09375 
Q 16.890625 51.421875 13.921875 58.15625 
Q 12.015625 62.546875 6.0625 72.796875 
L 12.359375 72.796875 
Q 21.53125 60.546875 25.921875 48.1875 
Q 29.6875 37.546875 29.6875 25.921875 
Q 29.6875 12.75 24.625 0.4375 
Q 19.578125 -11.859375 12.359375 -21.046875 
z
" id="ArialMT-41"/>
       <path d="M 9.1875 -21.046875 
L 9.1875 72.796875 
L 16.84375 72.796875 
L 16.84375 -21.046875 
z
" id="ArialMT-124"/>
      </defs>
      <use xlink:href="#ArialMT-73"/>
      <use x="27.783203" xlink:href="#ArialMT-84"/>
      <use x="88.867188" xlink:href="#ArialMT-83"/>
      <use x="155.566406" xlink:href="#ArialMT-32"/>
      <use x="183.349609" xlink:href="#ArialMT-38"/>
      <use x="250.048828" xlink:href="#ArialMT-32"/>
      <use x="277.832031" xlink:href="#ArialMT-40"/>
      <use x="311.132812" xlink:href="#ArialMT-62"/>
      <use x="369.53125" xlink:href="#ArialMT-61"/>
      <use x="427.929688" xlink:href="#ArialMT-32"/>
      <use x="455.712891" xlink:href="#ArialMT-48"/>
      <use x="511.328125" xlink:href="#ArialMT-84"/>
      <use x="572.412109" xlink:href="#ArialMT-80"/>
      <use x="639.111328" xlink:href="#ArialMT-67"/>
      <use x="711.328125" xlink:href="#ArialMT-41"/>
      <use x="744.628906" xlink:href="#ArialMT-32"/>
      <use x="772.412109" xlink:href="#ArialMT-124"/>
      <use x="798.388672" xlink:href="#ArialMT-32"/>
      <use x="826.171875" xlink:href="#ArialMT-48"/>
     </g>
    </g>
    <g id="patch_13">
     <path d="M 415.733437 94.729687 
L 436.733437 94.729687 
L 436.733437 84.929687 
L 415.733437 84.929687 
z
" style="fill:none;stroke:#008000;stroke-linejoin:miter;stroke-width:2;"/>
    </g>
    <g id="text_18">
     <!-- ITS &amp; (&gt;= 1TPC) | 0 -->
     <g transform="translate(447.933437 94.729687)scale(0.14 -0.14)">
      <use xlink:href="#ArialMT-73"/>
      <use x="27.783203" xlink:href="#ArialMT-84"/>
      <use x="88.867188" xlink:href="#ArialMT-83"/>
      <use x="155.566406" xlink:href="#ArialMT-32"/>
      <use x="183.349609" xlink:href="#ArialMT-38"/>
      <use x="250.048828" xlink:href="#ArialMT-32"/>
      <use x="277.832031" xlink:href="#ArialMT-40"/>
      <use x="311.132812" xlink:href="#ArialMT-62"/>
      <use x="369.53125" xlink:href="#ArialMT-61"/>
      <use x="427.929688" xlink:href="#ArialMT-32"/>
      <use x="455.712891" xlink:href="#ArialMT-49"/>
      <use x="511.328125" xlink:href="#ArialMT-84"/>
      <use x="572.412109" xlink:href="#ArialMT-80"/>
      <use x="639.111328" xlink:href="#ArialMT-67"/>
      <use x="711.328125" xlink:href="#ArialMT-41"/>
      <use x="744.628906" xlink:href="#ArialMT-32"/>
      <use x="772.412109" xlink:href="#ArialMT-124"/>
      <use x="798.388672" xlink:href="#ArialMT-32"/>
      <use x="826.171875" xlink:href="#ArialMT-48"/>
     </g>
    </g>
    <g id="patch_14">
     <path d="M 415.733437 114.867812 
L 436.733437 114.867812 
L 436.733437 105.067812 
L 415.733437 105.067812 
z
" style="fill:none;stroke:#ffff00;stroke-linejoin:miter;stroke-width:2;"/>
    </g>
    <g id="text_19">
     <!-- ITS &amp; (&gt;= 2TPC) | 0 -->
     <g transform="translate(447.933437 114.867812)scale(0.14 -0.14)">
      <use xlink:href="#ArialMT-73"/>
      <use x="27.783203" xlink:href="#ArialMT-84"/>
      <use x="88.867188" xlink:href="#ArialMT-83"/>
      <use x="155.566406" xlink:href="#ArialMT-32"/>
      <use x="183.349609" xlink:href="#ArialMT-38"/>
      <use x="250.048828" xlink:href="#ArialMT-32"/>
      <use x="277.832031" xlink:href="#ArialMT-40"/>
      <use x="311.132812" xlink:href="#ArialMT-62"/>
      <use x="369.53125" xlink:href="#ArialMT-61"/>
      <use x="427.929688" xlink:href="#ArialMT-32"/>
      <use x="455.712891" xlink:href="#ArialMT-50"/>
      <use x="511.328125" xlink:href="#ArialMT-84"/>
      <use x="572.412109" xlink:href="#ArialMT-80"/>
      <use x="639.111328" xlink:href="#ArialMT-67"/>
      <use x="711.328125" xlink:href="#ArialMT-41"/>
      <use x="744.628906" xlink:href="#ArialMT-32"/>
      <use x="772.412109" xlink:href="#ArialMT-124"/>
      <use x="798.388672" xlink:href="#ArialMT-32"/>
      <use x="826.171875" xlink:href="#ArialMT-48"/>
     </g>
    </g>
    <g id="patch_15">
     <path d="M 415.733437 135.005937 
L 436.733437 135.005937 
L 436.733437 125.205937 
L 415.733437 125.205937 
z
" style="fill:none;stroke:#ffa500;stroke-linejoin:miter;stroke-width:2;"/>
    </g>
    <g id="text_20">
     <!-- ITS &amp; (&gt;= 3TPC) | 0 -->
     <g transform="translate(447.933437 135.005937)scale(0.14 -0.14)">
      <use xlink:href="#ArialMT-73"/>
      <use x="27.783203" xlink:href="#ArialMT-84"/>
      <use x="88.867188" xlink:href="#ArialMT-83"/>
      <use x="155.566406" xlink:href="#ArialMT-32"/>
      <use x="183.349609" xlink:href="#ArialMT-38"/>
      <use x="250.048828" xlink:href="#ArialMT-32"/>
      <use x="277.832031" xlink:href="#ArialMT-40"/>
      <use x="311.132812" xlink:href="#ArialMT-62"/>
      <use x="369.53125" xlink:href="#ArialMT-61"/>
      <use x="427.929688" xlink:href="#ArialMT-32"/>
      <use x="455.712891" xlink:href="#ArialMT-51"/>
      <use x="511.328125" xlink:href="#ArialMT-84"/>
      <use x="572.412109" xlink:href="#ArialMT-80"/>
      <use x="639.111328" xlink:href="#ArialMT-67"/>
      <use x="711.328125" xlink:href="#ArialMT-41"/>
      <use x="744.628906" xlink:href="#ArialMT-32"/>
      <use x="772.412109" xlink:href="#ArialMT-124"/>
      <use x="798.388672" xlink:href="#ArialMT-32"/>
      <use x="826.171875" xlink:href="#ArialMT-48"/>
     </g>
    </g>
    <g id="patch_16">
     <path d="M 415.733437 155.144062 
L 436.733437 155.144062 
L 436.733437 145.344062 
L 415.733437 145.344062 
z
" style="fill:none;stroke:#000000;stroke-linejoin:miter;stroke-width:2;"/>
    </g>
    <g id="text_21">
     <!-- ITS &amp; ( =  4TPC) | 0 -->
     <g transform="translate(447.933437 155.144062)scale(0.14 -0.14)">
      <defs>
       <path d="M 32.328125 0 
L 32.328125 17.140625 
L 1.265625 17.140625 
L 1.265625 25.203125 
L 33.9375 71.578125 
L 41.109375 71.578125 
L 41.109375 25.203125 
L 50.78125 25.203125 
L 50.78125 17.140625 
L 41.109375 17.140625 
L 41.109375 0 
z
M 32.328125 25.203125 
L 32.328125 57.46875 
L 9.90625 25.203125 
z
" id="ArialMT-52"/>
      </defs>
      <use xlink:href="#ArialMT-73"/>
      <use x="27.783203" xlink:href="#ArialMT-84"/>
      <use x="88.867188" xlink:href="#ArialMT-83"/>
      <use x="155.566406" xlink:href="#ArialMT-32"/>
      <use x="183.349609" xlink:href="#ArialMT-38"/>
      <use x="250.048828" xlink:href="#ArialMT-32"/>
      <use x="277.832031" xlink:href="#ArialMT-40"/>
      <use x="311.132812" xlink:href="#ArialMT-32"/>
      <use x="338.916016" xlink:href="#ArialMT-61"/>
      <use x="397.314453" xlink:href="#ArialMT-32"/>
      <use x="425.097656" xlink:href="#ArialMT-32"/>
      <use x="452.880859" xlink:href="#ArialMT-52"/>
      <use x="508.496094" xlink:href="#ArialMT-84"/>
      <use x="569.580078" xlink:href="#ArialMT-80"/>
      <use x="636.279297" xlink:href="#ArialMT-67"/>
      <use x="708.496094" xlink:href="#ArialMT-41"/>
      <use x="741.796875" xlink:href="#ArialMT-32"/>
      <use x="769.580078" xlink:href="#ArialMT-124"/>
      <use x="795.556641" xlink:href="#ArialMT-32"/>
      <use x="823.339844" xlink:href="#ArialMT-48"/>
     </g>
    </g>
   </g>
  </g>
  <g id="text_22">
   <!-- 4track events Mass -->
   <g transform="translate(237.086562 17.220937)scale(0.14 -0.14)">
    <defs>
     <path d="M 25.78125 7.859375 
L 27.046875 0.09375 
Q 23.34375 -0.6875 20.40625 -0.6875 
Q 15.625 -0.6875 12.984375 0.828125 
Q 10.359375 2.34375 9.28125 4.8125 
Q 8.203125 7.28125 8.203125 15.1875 
L 8.203125 45.015625 
L 1.765625 45.015625 
L 1.765625 51.859375 
L 8.203125 51.859375 
L 8.203125 64.703125 
L 16.9375 69.96875 
L 16.9375 51.859375 
L 25.78125 51.859375 
L 25.78125 45.015625 
L 16.9375 45.015625 
L 16.9375 14.703125 
Q 16.9375 10.9375 17.40625 9.859375 
Q 17.875 8.796875 18.921875 8.15625 
Q 19.96875 7.515625 21.921875 7.515625 
Q 23.390625 7.515625 25.78125 7.859375 
z
" id="ArialMT-116"/>
     <path d="M 6.5 0 
L 6.5 51.859375 
L 14.40625 51.859375 
L 14.40625 44 
Q 17.4375 49.515625 20 51.265625 
Q 22.5625 53.03125 25.640625 53.03125 
Q 30.078125 53.03125 34.671875 50.203125 
L 31.640625 42.046875 
Q 28.421875 43.953125 25.203125 43.953125 
Q 22.3125 43.953125 20.015625 42.21875 
Q 17.71875 40.484375 16.75 37.40625 
Q 15.28125 32.71875 15.28125 27.15625 
L 15.28125 0 
z
" id="ArialMT-114"/>
     <path d="M 40.4375 19 
L 49.078125 17.875 
Q 47.65625 8.9375 41.8125 3.875 
Q 35.984375 -1.171875 27.484375 -1.171875 
Q 16.84375 -1.171875 10.375 5.78125 
Q 3.90625 12.75 3.90625 25.734375 
Q 3.90625 34.125 6.6875 40.421875 
Q 9.46875 46.734375 15.15625 49.875 
Q 20.84375 53.03125 27.546875 53.03125 
Q 35.984375 53.03125 41.359375 48.75 
Q 46.734375 44.484375 48.25 36.625 
L 39.703125 35.296875 
Q 38.484375 40.53125 35.375 43.15625 
Q 32.28125 45.796875 27.875 45.796875 
Q 21.234375 45.796875 17.078125 41.03125 
Q 12.9375 36.28125 12.9375 25.984375 
Q 12.9375 15.53125 16.9375 10.796875 
Q 20.953125 6.0625 27.390625 6.0625 
Q 32.5625 6.0625 36.03125 9.234375 
Q 39.5 12.40625 40.4375 19 
z
" id="ArialMT-99"/>
     <path d="M 6.640625 0 
L 6.640625 71.578125 
L 15.4375 71.578125 
L 15.4375 30.765625 
L 36.234375 51.859375 
L 47.609375 51.859375 
L 27.78125 32.625 
L 49.609375 0 
L 38.765625 0 
L 21.625 26.515625 
L 15.4375 20.5625 
L 15.4375 0 
z
" id="ArialMT-107"/>
     <path d="M 21 0 
L 1.265625 51.859375 
L 10.546875 51.859375 
L 21.6875 20.796875 
Q 23.484375 15.765625 25 10.359375 
Q 26.171875 14.453125 28.265625 20.21875 
L 39.796875 51.859375 
L 48.828125 51.859375 
L 29.203125 0 
z
" id="ArialMT-118"/>
     <path d="M 6.59375 0 
L 6.59375 51.859375 
L 14.5 51.859375 
L 14.5 44.484375 
Q 20.21875 53.03125 31 53.03125 
Q 35.6875 53.03125 39.625 51.34375 
Q 43.5625 49.65625 45.515625 46.921875 
Q 47.46875 44.1875 48.25 40.4375 
Q 48.734375 37.984375 48.734375 31.890625 
L 48.734375 0 
L 39.9375 0 
L 39.9375 31.546875 
Q 39.9375 36.921875 38.90625 39.578125 
Q 37.890625 42.234375 35.28125 43.8125 
Q 32.671875 45.40625 29.15625 45.40625 
Q 23.53125 45.40625 19.453125 41.84375 
Q 15.375 38.28125 15.375 28.328125 
L 15.375 0 
z
" id="ArialMT-110"/>
    </defs>
    <use xlink:href="#ArialMT-52"/>
    <use x="55.615234" xlink:href="#ArialMT-116"/>
    <use x="83.398438" xlink:href="#ArialMT-114"/>
    <use x="116.699219" xlink:href="#ArialMT-97"/>
    <use x="172.314453" xlink:href="#ArialMT-99"/>
    <use x="222.314453" xlink:href="#ArialMT-107"/>
    <use x="272.314453" xlink:href="#ArialMT-32"/>
    <use x="300.097656" xlink:href="#ArialMT-101"/>
    <use x="355.712891" xlink:href="#ArialMT-118"/>
    <use x="405.712891" xlink:href="#ArialMT-101"/>
    <use x="461.328125" xlink:href="#ArialMT-110"/>
    <use x="516.943359" xlink:href="#ArialMT-116"/>
    <use x="544.726562" xlink:href="#ArialMT-115"/>
    <use x="594.726562" xlink:href="#ArialMT-32"/>
    <use x="622.509766" xlink:href="#ArialMT-77"/>
    <use x="705.810547" xlink:href="#ArialMT-97"/>
    <use x="761.425781" xlink:href="#ArialMT-115"/>
    <use x="811.425781" xlink:href="#ArialMT-115"/>
   </g>
  </g>
 </g>
 <defs>
  <clipPath id="pe72c47e5f4">
   <rect height="326.16" width="558" x="27.382812" y="50.4"/>
  </clipPath>
 </defs>
</svg>
