<?xml version="1.0" encoding="utf-8" standalone="no"?>
<!DOCTYPE svg PUBLIC "-//W3C//DTD SVG 1.1//EN"
  "http://www.w3.org/Graphics/SVG/1.1/DTD/svg11.dtd">
<!-- Created with matplotlib (https://matplotlib.org/) -->
<svg height="560.46473pt" version="1.1" viewBox="0 0 645.826311 560.46473" width="645.826311pt" xmlns="http://www.w3.org/2000/svg" xmlns:xlink="http://www.w3.org/1999/xlink">
 <metadata>
  <rdf:RDF xmlns:cc="http://creativecommons.org/ns#" xmlns:dc="http://purl.org/dc/elements/1.1/" xmlns:rdf="http://www.w3.org/1999/02/22-rdf-syntax-ns#">
   <cc:Work>
    <dc:type rdf:resource="http://purl.org/dc/dcmitype/StillImage"/>
    <dc:date>2021-04-02T20:29:48.341516</dc:date>
    <dc:format>image/svg+xml</dc:format>
    <dc:creator>
     <cc:Agent>
      <dc:title>Matplotlib v3.3.4, https://matplotlib.org/</dc:title>
     </cc:Agent>
    </dc:creator>
   </cc:Work>
  </rdf:RDF>
 </metadata>
 <defs>
  <style type="text/css">*{stroke-linecap:butt;stroke-linejoin:round;}</style>
 </defs>
 <g id="figure_1">
  <g id="patch_1">
   <path d="M 0 560.46473 
L 645.826311 560.46473 
L 645.826311 0 
L 0 0 
z
" style="fill:none;"/>
  </g>
  <g id="axes_1">
   <g id="patch_2">
    <path d="M 80.626311 499.68 
L 638.626311 499.68 
L 638.626311 64.8 
L 80.626311 64.8 
z
" style="fill:#ffffff;"/>
   </g>
   <g id="matplotlib.axis_1">
    <g id="xtick_1">
     <g id="line2d_1">
      <defs>
       <path d="M 0 0 
L 0 -12 
" id="m066832e902" style="stroke:#000000;stroke-width:0.8;"/>
      </defs>
      <g>
       <use style="stroke:#000000;stroke-width:0.8;" x="182.080857" xlink:href="#m066832e902" y="499.68"/>
      </g>
     </g>
     <g id="line2d_2">
      <defs>
       <path d="M 0 0 
L 0 12 
" id="mc49e96d1db" style="stroke:#000000;stroke-width:0.8;"/>
      </defs>
      <g>
       <use style="stroke:#000000;stroke-width:0.8;" x="182.080857" xlink:href="#mc49e96d1db" y="64.8"/>
      </g>
     </g>
     <g id="text_1">
      <!-- 1.0 -->
      <g transform="translate(167.028547 521.18239)scale(0.21658 -0.21658)">
       <defs>
        <path d="M 37.25 0 
L 28.46875 0 
L 28.46875 56 
Q 25.296875 52.984375 20.140625 49.953125 
Q 14.984375 46.921875 10.890625 45.40625 
L 10.890625 53.90625 
Q 18.265625 57.375 23.78125 62.296875 
Q 29.296875 67.234375 31.59375 71.875 
L 37.25 71.875 
z
" id="ArialMT-49"/>
        <path d="M 9.078125 0 
L 9.078125 10.015625 
L 19.09375 10.015625 
L 19.09375 0 
z
" id="ArialMT-46"/>
        <path d="M 4.15625 35.296875 
Q 4.15625 48 6.765625 55.734375 
Q 9.375 63.484375 14.515625 67.671875 
Q 19.671875 71.875 27.484375 71.875 
Q 33.25 71.875 37.59375 69.546875 
Q 41.9375 67.234375 44.765625 62.859375 
Q 47.609375 58.5 49.21875 52.21875 
Q 50.828125 45.953125 50.828125 35.296875 
Q 50.828125 22.703125 48.234375 14.96875 
Q 45.65625 7.234375 40.5 3 
Q 35.359375 -1.21875 27.484375 -1.21875 
Q 17.140625 -1.21875 11.234375 6.203125 
Q 4.15625 15.140625 4.15625 35.296875 
z
M 13.1875 35.296875 
Q 13.1875 17.671875 17.3125 11.828125 
Q 21.4375 6 27.484375 6 
Q 33.546875 6 37.671875 11.859375 
Q 41.796875 17.71875 41.796875 35.296875 
Q 41.796875 52.984375 37.671875 58.78125 
Q 33.546875 64.59375 27.390625 64.59375 
Q 21.34375 64.59375 17.71875 59.46875 
Q 13.1875 52.9375 13.1875 35.296875 
z
" id="ArialMT-48"/>
       </defs>
       <use xlink:href="#ArialMT-49"/>
       <use x="55.615234" xlink:href="#ArialMT-46"/>
       <use x="83.398438" xlink:href="#ArialMT-48"/>
      </g>
     </g>
    </g>
    <g id="xtick_2">
     <g id="line2d_3">
      <g>
       <use style="stroke:#000000;stroke-width:0.8;" x="308.899035" xlink:href="#m066832e902" y="499.68"/>
      </g>
     </g>
     <g id="line2d_4">
      <g>
       <use style="stroke:#000000;stroke-width:0.8;" x="308.899035" xlink:href="#mc49e96d1db" y="64.8"/>
      </g>
     </g>
     <g id="text_2">
      <!-- 1.5 -->
      <g transform="translate(293.846725 521.18239)scale(0.21658 -0.21658)">
       <defs>
        <path d="M 4.15625 18.75 
L 13.375 19.53125 
Q 14.40625 12.796875 18.140625 9.390625 
Q 21.875 6 27.15625 6 
Q 33.5 6 37.890625 10.78125 
Q 42.28125 15.578125 42.28125 23.484375 
Q 42.28125 31 38.0625 35.34375 
Q 33.84375 39.703125 27 39.703125 
Q 22.75 39.703125 19.328125 37.765625 
Q 15.921875 35.84375 13.96875 32.765625 
L 5.71875 33.84375 
L 12.640625 70.609375 
L 48.25 70.609375 
L 48.25 62.203125 
L 19.671875 62.203125 
L 15.828125 42.96875 
Q 22.265625 47.46875 29.34375 47.46875 
Q 38.71875 47.46875 45.15625 40.96875 
Q 51.609375 34.46875 51.609375 24.265625 
Q 51.609375 14.546875 45.953125 7.46875 
Q 39.0625 -1.21875 27.15625 -1.21875 
Q 17.390625 -1.21875 11.203125 4.25 
Q 5.03125 9.71875 4.15625 18.75 
z
" id="ArialMT-53"/>
       </defs>
       <use xlink:href="#ArialMT-49"/>
       <use x="55.615234" xlink:href="#ArialMT-46"/>
       <use x="83.398438" xlink:href="#ArialMT-53"/>
      </g>
     </g>
    </g>
    <g id="xtick_3">
     <g id="line2d_5">
      <g>
       <use style="stroke:#000000;stroke-width:0.8;" x="435.717213" xlink:href="#m066832e902" y="499.68"/>
      </g>
     </g>
     <g id="line2d_6">
      <g>
       <use style="stroke:#000000;stroke-width:0.8;" x="435.717213" xlink:href="#mc49e96d1db" y="64.8"/>
      </g>
     </g>
     <g id="text_3">
      <!-- 2.0 -->
      <g transform="translate(420.664903 521.18239)scale(0.21658 -0.21658)">
       <defs>
        <path d="M 50.34375 8.453125 
L 50.34375 0 
L 3.03125 0 
Q 2.9375 3.171875 4.046875 6.109375 
Q 5.859375 10.9375 9.828125 15.625 
Q 13.8125 20.3125 21.34375 26.46875 
Q 33.015625 36.03125 37.109375 41.625 
Q 41.21875 47.21875 41.21875 52.203125 
Q 41.21875 57.421875 37.46875 61 
Q 33.734375 64.59375 27.734375 64.59375 
Q 21.390625 64.59375 17.578125 60.78125 
Q 13.765625 56.984375 13.71875 50.25 
L 4.6875 51.171875 
Q 5.609375 61.28125 11.65625 66.578125 
Q 17.71875 71.875 27.9375 71.875 
Q 38.234375 71.875 44.234375 66.15625 
Q 50.25 60.453125 50.25 52 
Q 50.25 47.703125 48.484375 43.546875 
Q 46.734375 39.40625 42.65625 34.8125 
Q 38.578125 30.21875 29.109375 22.21875 
Q 21.1875 15.578125 18.9375 13.203125 
Q 16.703125 10.84375 15.234375 8.453125 
z
" id="ArialMT-50"/>
       </defs>
       <use xlink:href="#ArialMT-50"/>
       <use x="55.615234" xlink:href="#ArialMT-46"/>
       <use x="83.398438" xlink:href="#ArialMT-48"/>
      </g>
     </g>
    </g>
    <g id="xtick_4">
     <g id="line2d_7">
      <g>
       <use style="stroke:#000000;stroke-width:0.8;" x="562.535391" xlink:href="#m066832e902" y="499.68"/>
      </g>
     </g>
     <g id="line2d_8">
      <g>
       <use style="stroke:#000000;stroke-width:0.8;" x="562.535391" xlink:href="#mc49e96d1db" y="64.8"/>
      </g>
     </g>
     <g id="text_4">
      <!-- 2.5 -->
      <g transform="translate(547.483081 521.18239)scale(0.21658 -0.21658)">
       <use xlink:href="#ArialMT-50"/>
       <use x="55.615234" xlink:href="#ArialMT-46"/>
       <use x="83.398438" xlink:href="#ArialMT-53"/>
      </g>
     </g>
    </g>
    <g id="xtick_5">
     <g id="line2d_9">
      <defs>
       <path d="M 0 0 
L 0 -6 
" id="m037ad34da8" style="stroke:#000000;stroke-width:0.6;"/>
      </defs>
      <g>
       <use style="stroke:#000000;stroke-width:0.6;" x="80.626315" xlink:href="#m037ad34da8" y="499.68"/>
      </g>
     </g>
     <g id="line2d_10">
      <defs>
       <path d="M 0 0 
L 0 6 
" id="m73e47fd0de" style="stroke:#000000;stroke-width:0.6;"/>
      </defs>
      <g>
       <use style="stroke:#000000;stroke-width:0.6;" x="80.626315" xlink:href="#m73e47fd0de" y="64.8"/>
      </g>
     </g>
    </g>
    <g id="xtick_6">
     <g id="line2d_11">
      <g>
       <use style="stroke:#000000;stroke-width:0.6;" x="105.98995" xlink:href="#m037ad34da8" y="499.68"/>
      </g>
     </g>
     <g id="line2d_12">
      <g>
       <use style="stroke:#000000;stroke-width:0.6;" x="105.98995" xlink:href="#m73e47fd0de" y="64.8"/>
      </g>
     </g>
    </g>
    <g id="xtick_7">
     <g id="line2d_13">
      <g>
       <use style="stroke:#000000;stroke-width:0.6;" x="131.353586" xlink:href="#m037ad34da8" y="499.68"/>
      </g>
     </g>
     <g id="line2d_14">
      <g>
       <use style="stroke:#000000;stroke-width:0.6;" x="131.353586" xlink:href="#m73e47fd0de" y="64.8"/>
      </g>
     </g>
    </g>
    <g id="xtick_8">
     <g id="line2d_15">
      <g>
       <use style="stroke:#000000;stroke-width:0.6;" x="156.717222" xlink:href="#m037ad34da8" y="499.68"/>
      </g>
     </g>
     <g id="line2d_16">
      <g>
       <use style="stroke:#000000;stroke-width:0.6;" x="156.717222" xlink:href="#m73e47fd0de" y="64.8"/>
      </g>
     </g>
    </g>
    <g id="xtick_9">
     <g id="line2d_17">
      <g>
       <use style="stroke:#000000;stroke-width:0.6;" x="207.444493" xlink:href="#m037ad34da8" y="499.68"/>
      </g>
     </g>
     <g id="line2d_18">
      <g>
       <use style="stroke:#000000;stroke-width:0.6;" x="207.444493" xlink:href="#m73e47fd0de" y="64.8"/>
      </g>
     </g>
    </g>
    <g id="xtick_10">
     <g id="line2d_19">
      <g>
       <use style="stroke:#000000;stroke-width:0.6;" x="232.808128" xlink:href="#m037ad34da8" y="499.68"/>
      </g>
     </g>
     <g id="line2d_20">
      <g>
       <use style="stroke:#000000;stroke-width:0.6;" x="232.808128" xlink:href="#m73e47fd0de" y="64.8"/>
      </g>
     </g>
    </g>
    <g id="xtick_11">
     <g id="line2d_21">
      <g>
       <use style="stroke:#000000;stroke-width:0.6;" x="258.171764" xlink:href="#m037ad34da8" y="499.68"/>
      </g>
     </g>
     <g id="line2d_22">
      <g>
       <use style="stroke:#000000;stroke-width:0.6;" x="258.171764" xlink:href="#m73e47fd0de" y="64.8"/>
      </g>
     </g>
    </g>
    <g id="xtick_12">
     <g id="line2d_23">
      <g>
       <use style="stroke:#000000;stroke-width:0.6;" x="283.5354" xlink:href="#m037ad34da8" y="499.68"/>
      </g>
     </g>
     <g id="line2d_24">
      <g>
       <use style="stroke:#000000;stroke-width:0.6;" x="283.5354" xlink:href="#m73e47fd0de" y="64.8"/>
      </g>
     </g>
    </g>
    <g id="xtick_13">
     <g id="line2d_25">
      <g>
       <use style="stroke:#000000;stroke-width:0.6;" x="334.262671" xlink:href="#m037ad34da8" y="499.68"/>
      </g>
     </g>
     <g id="line2d_26">
      <g>
       <use style="stroke:#000000;stroke-width:0.6;" x="334.262671" xlink:href="#m73e47fd0de" y="64.8"/>
      </g>
     </g>
    </g>
    <g id="xtick_14">
     <g id="line2d_27">
      <g>
       <use style="stroke:#000000;stroke-width:0.6;" x="359.626306" xlink:href="#m037ad34da8" y="499.68"/>
      </g>
     </g>
     <g id="line2d_28">
      <g>
       <use style="stroke:#000000;stroke-width:0.6;" x="359.626306" xlink:href="#m73e47fd0de" y="64.8"/>
      </g>
     </g>
    </g>
    <g id="xtick_15">
     <g id="line2d_29">
      <g>
       <use style="stroke:#000000;stroke-width:0.6;" x="384.989942" xlink:href="#m037ad34da8" y="499.68"/>
      </g>
     </g>
     <g id="line2d_30">
      <g>
       <use style="stroke:#000000;stroke-width:0.6;" x="384.989942" xlink:href="#m73e47fd0de" y="64.8"/>
      </g>
     </g>
    </g>
    <g id="xtick_16">
     <g id="line2d_31">
      <g>
       <use style="stroke:#000000;stroke-width:0.6;" x="410.353578" xlink:href="#m037ad34da8" y="499.68"/>
      </g>
     </g>
     <g id="line2d_32">
      <g>
       <use style="stroke:#000000;stroke-width:0.6;" x="410.353578" xlink:href="#m73e47fd0de" y="64.8"/>
      </g>
     </g>
    </g>
    <g id="xtick_17">
     <g id="line2d_33">
      <g>
       <use style="stroke:#000000;stroke-width:0.6;" x="461.080849" xlink:href="#m037ad34da8" y="499.68"/>
      </g>
     </g>
     <g id="line2d_34">
      <g>
       <use style="stroke:#000000;stroke-width:0.6;" x="461.080849" xlink:href="#m73e47fd0de" y="64.8"/>
      </g>
     </g>
    </g>
    <g id="xtick_18">
     <g id="line2d_35">
      <g>
       <use style="stroke:#000000;stroke-width:0.6;" x="486.444484" xlink:href="#m037ad34da8" y="499.68"/>
      </g>
     </g>
     <g id="line2d_36">
      <g>
       <use style="stroke:#000000;stroke-width:0.6;" x="486.444484" xlink:href="#m73e47fd0de" y="64.8"/>
      </g>
     </g>
    </g>
    <g id="xtick_19">
     <g id="line2d_37">
      <g>
       <use style="stroke:#000000;stroke-width:0.6;" x="511.80812" xlink:href="#m037ad34da8" y="499.68"/>
      </g>
     </g>
     <g id="line2d_38">
      <g>
       <use style="stroke:#000000;stroke-width:0.6;" x="511.80812" xlink:href="#m73e47fd0de" y="64.8"/>
      </g>
     </g>
    </g>
    <g id="xtick_20">
     <g id="line2d_39">
      <g>
       <use style="stroke:#000000;stroke-width:0.6;" x="537.171756" xlink:href="#m037ad34da8" y="499.68"/>
      </g>
     </g>
     <g id="line2d_40">
      <g>
       <use style="stroke:#000000;stroke-width:0.6;" x="537.171756" xlink:href="#m73e47fd0de" y="64.8"/>
      </g>
     </g>
    </g>
    <g id="xtick_21">
     <g id="line2d_41">
      <g>
       <use style="stroke:#000000;stroke-width:0.6;" x="587.899027" xlink:href="#m037ad34da8" y="499.68"/>
      </g>
     </g>
     <g id="line2d_42">
      <g>
       <use style="stroke:#000000;stroke-width:0.6;" x="587.899027" xlink:href="#m73e47fd0de" y="64.8"/>
      </g>
     </g>
    </g>
    <g id="xtick_22">
     <g id="line2d_43">
      <g>
       <use style="stroke:#000000;stroke-width:0.6;" x="613.262662" xlink:href="#m037ad34da8" y="499.68"/>
      </g>
     </g>
     <g id="line2d_44">
      <g>
       <use style="stroke:#000000;stroke-width:0.6;" x="613.262662" xlink:href="#m73e47fd0de" y="64.8"/>
      </g>
     </g>
    </g>
    <g id="xtick_23">
     <g id="line2d_45">
      <g>
       <use style="stroke:#000000;stroke-width:0.6;" x="638.626298" xlink:href="#m037ad34da8" y="499.68"/>
      </g>
     </g>
     <g id="line2d_46">
      <g>
       <use style="stroke:#000000;stroke-width:0.6;" x="638.626298" xlink:href="#m73e47fd0de" y="64.8"/>
      </g>
     </g>
    </g>
    <g id="text_5">
     <!-- $Mass, GeV$ -->
     <g transform="translate(512.786311 548.09723)scale(0.26 -0.26)">
      <defs>
       <path d="M 7.421875 0 
L 7.421875 71.578125 
L 21.6875 71.578125 
L 38.625 20.90625 
Q 40.96875 13.8125 42.046875 10.296875 
Q 43.265625 14.203125 45.84375 21.78125 
L 62.984375 71.578125 
L 75.734375 71.578125 
L 75.734375 0 
L 66.609375 0 
L 66.609375 59.90625 
L 45.796875 0 
L 37.25 0 
L 16.546875 60.9375 
L 16.546875 0 
z
" id="ArialMT-77"/>
       <path d="M 40.4375 6.390625 
Q 35.546875 2.25 31.03125 0.53125 
Q 26.515625 -1.171875 21.34375 -1.171875 
Q 12.796875 -1.171875 8.203125 3 
Q 3.609375 7.171875 3.609375 13.671875 
Q 3.609375 17.484375 5.34375 20.625 
Q 7.078125 23.78125 9.890625 25.6875 
Q 12.703125 27.59375 16.21875 28.5625 
Q 18.796875 29.25 24.03125 29.890625 
Q 34.671875 31.15625 39.703125 32.90625 
Q 39.75 34.71875 39.75 35.203125 
Q 39.75 40.578125 37.25 42.78125 
Q 33.890625 45.75 27.25 45.75 
Q 21.046875 45.75 18.09375 43.578125 
Q 15.140625 41.40625 13.71875 35.890625 
L 5.125 37.0625 
Q 6.296875 42.578125 8.984375 45.96875 
Q 11.671875 49.359375 16.75 51.1875 
Q 21.828125 53.03125 28.515625 53.03125 
Q 35.15625 53.03125 39.296875 51.46875 
Q 43.453125 49.90625 45.40625 47.53125 
Q 47.359375 45.171875 48.140625 41.546875 
Q 48.578125 39.3125 48.578125 33.453125 
L 48.578125 21.734375 
Q 48.578125 9.46875 49.140625 6.21875 
Q 49.703125 2.984375 51.375 0 
L 42.1875 0 
Q 40.828125 2.734375 40.4375 6.390625 
z
M 39.703125 26.03125 
Q 34.90625 24.078125 25.34375 22.703125 
Q 19.921875 21.921875 17.671875 20.9375 
Q 15.4375 19.96875 14.203125 18.09375 
Q 12.984375 16.21875 12.984375 13.921875 
Q 12.984375 10.40625 15.640625 8.0625 
Q 18.3125 5.71875 23.4375 5.71875 
Q 28.515625 5.71875 32.46875 7.9375 
Q 36.421875 10.15625 38.28125 14.015625 
Q 39.703125 17 39.703125 22.796875 
z
" id="ArialMT-97"/>
       <path d="M 3.078125 15.484375 
L 11.765625 16.84375 
Q 12.5 11.625 15.84375 8.84375 
Q 19.1875 6.0625 25.203125 6.0625 
Q 31.25 6.0625 34.171875 8.515625 
Q 37.109375 10.984375 37.109375 14.3125 
Q 37.109375 17.28125 34.515625 19 
Q 32.71875 20.171875 25.53125 21.96875 
Q 15.875 24.421875 12.140625 26.203125 
Q 8.40625 27.984375 6.46875 31.125 
Q 4.546875 34.28125 4.546875 38.09375 
Q 4.546875 41.546875 6.125 44.5 
Q 7.71875 47.46875 10.453125 49.421875 
Q 12.5 50.921875 16.03125 51.96875 
Q 19.578125 53.03125 23.640625 53.03125 
Q 29.734375 53.03125 34.34375 51.265625 
Q 38.96875 49.515625 41.15625 46.5 
Q 43.359375 43.5 44.1875 38.484375 
L 35.59375 37.3125 
Q 35.015625 41.3125 32.203125 43.546875 
Q 29.390625 45.796875 24.265625 45.796875 
Q 18.21875 45.796875 15.625 43.796875 
Q 13.03125 41.796875 13.03125 39.109375 
Q 13.03125 37.40625 14.109375 36.03125 
Q 15.1875 34.625 17.484375 33.6875 
Q 18.796875 33.203125 25.25 31.453125 
Q 34.578125 28.953125 38.25 27.359375 
Q 41.9375 25.78125 44.03125 22.75 
Q 46.140625 19.734375 46.140625 15.234375 
Q 46.140625 10.84375 43.578125 6.953125 
Q 41.015625 3.078125 36.171875 0.953125 
Q 31.34375 -1.171875 25.25 -1.171875 
Q 15.140625 -1.171875 9.84375 3.03125 
Q 4.546875 7.234375 3.078125 15.484375 
z
" id="ArialMT-115"/>
       <path d="M 8.890625 0 
L 8.890625 10.015625 
L 18.890625 10.015625 
L 18.890625 0 
Q 18.890625 -5.515625 16.9375 -8.90625 
Q 14.984375 -12.3125 10.75 -14.15625 
L 8.296875 -10.40625 
Q 11.078125 -9.1875 12.390625 -6.8125 
Q 13.71875 -4.4375 13.875 0 
z
" id="ArialMT-44"/>
       <path d="M 41.21875 28.078125 
L 41.21875 36.46875 
L 71.53125 36.53125 
L 71.53125 9.96875 
Q 64.546875 4.390625 57.125 1.578125 
Q 49.703125 -1.21875 41.890625 -1.21875 
Q 31.34375 -1.21875 22.71875 3.296875 
Q 14.109375 7.8125 9.71875 16.359375 
Q 5.328125 24.90625 5.328125 35.453125 
Q 5.328125 45.90625 9.6875 54.953125 
Q 14.0625 64.015625 22.265625 68.40625 
Q 30.46875 72.796875 41.15625 72.796875 
Q 48.921875 72.796875 55.1875 70.28125 
Q 61.46875 67.78125 65.03125 63.28125 
Q 68.609375 58.796875 70.453125 51.5625 
L 61.921875 49.21875 
Q 60.296875 54.6875 57.90625 57.8125 
Q 55.515625 60.9375 51.0625 62.8125 
Q 46.625 64.703125 41.21875 64.703125 
Q 34.71875 64.703125 29.984375 62.71875 
Q 25.25 60.75 22.34375 57.515625 
Q 19.4375 54.296875 17.828125 50.4375 
Q 15.09375 43.796875 15.09375 36.03125 
Q 15.09375 26.46875 18.390625 20.015625 
Q 21.6875 13.578125 27.984375 10.453125 
Q 34.28125 7.328125 41.359375 7.328125 
Q 47.515625 7.328125 53.375 9.6875 
Q 59.234375 12.0625 62.25 14.75 
L 62.25 28.078125 
z
" id="ArialMT-71"/>
       <path d="M 42.09375 16.703125 
L 51.171875 15.578125 
Q 49.03125 7.625 43.21875 3.21875 
Q 37.40625 -1.171875 28.375 -1.171875 
Q 17 -1.171875 10.328125 5.828125 
Q 3.65625 12.84375 3.65625 25.484375 
Q 3.65625 38.578125 10.390625 45.796875 
Q 17.140625 53.03125 27.875 53.03125 
Q 38.28125 53.03125 44.875 45.953125 
Q 51.46875 38.875 51.46875 26.03125 
Q 51.46875 25.25 51.421875 23.6875 
L 12.75 23.6875 
Q 13.234375 15.140625 17.578125 10.59375 
Q 21.921875 6.0625 28.421875 6.0625 
Q 33.25 6.0625 36.671875 8.59375 
Q 40.09375 11.140625 42.09375 16.703125 
z
M 13.234375 30.90625 
L 42.1875 30.90625 
Q 41.609375 37.453125 38.875 40.71875 
Q 34.671875 45.796875 27.984375 45.796875 
Q 21.921875 45.796875 17.796875 41.75 
Q 13.671875 37.703125 13.234375 30.90625 
z
" id="ArialMT-101"/>
       <path d="M 28.171875 0 
L 0.4375 71.578125 
L 10.6875 71.578125 
L 29.296875 19.578125 
Q 31.546875 13.328125 33.0625 7.859375 
Q 34.71875 13.71875 36.921875 19.578125 
L 56.25 71.578125 
L 65.921875 71.578125 
L 37.890625 0 
z
" id="ArialMT-86"/>
      </defs>
      <use transform="translate(0 0.203125)" xlink:href="#ArialMT-77"/>
      <use transform="translate(83.300781 0.203125)" xlink:href="#ArialMT-97"/>
      <use transform="translate(138.916016 0.203125)" xlink:href="#ArialMT-115"/>
      <use transform="translate(188.916016 0.203125)" xlink:href="#ArialMT-115"/>
      <use transform="translate(238.916016 0.203125)" xlink:href="#ArialMT-44"/>
      <use transform="translate(283.359375 0.203125)" xlink:href="#ArialMT-71"/>
      <use transform="translate(361.142578 0.203125)" xlink:href="#ArialMT-101"/>
      <use transform="translate(416.757812 0.203125)" xlink:href="#ArialMT-86"/>
     </g>
    </g>
   </g>
   <g id="matplotlib.axis_2">
    <g id="ytick_1">
     <g id="line2d_47">
      <defs>
       <path d="M 0 0 
L 12 0 
" id="md12dfcbba8" style="stroke:#000000;stroke-width:0.8;"/>
      </defs>
      <g>
       <use style="stroke:#000000;stroke-width:0.8;" x="80.626311" xlink:href="#md12dfcbba8" y="499.68"/>
      </g>
     </g>
     <g id="line2d_48">
      <defs>
       <path d="M 0 0 
L -12 0 
" id="mb515d9f458" style="stroke:#000000;stroke-width:0.8;"/>
      </defs>
      <g>
       <use style="stroke:#000000;stroke-width:0.8;" x="638.626311" xlink:href="#mb515d9f458" y="499.68"/>
      </g>
     </g>
     <g id="text_6">
      <!-- 0.00 -->
      <g transform="translate(34.977813 507.431195)scale(0.21658 -0.21658)">
       <use xlink:href="#ArialMT-48"/>
       <use x="55.615234" xlink:href="#ArialMT-46"/>
       <use x="83.398438" xlink:href="#ArialMT-48"/>
       <use x="139.013672" xlink:href="#ArialMT-48"/>
      </g>
     </g>
    </g>
    <g id="ytick_2">
     <g id="line2d_49">
      <g>
       <use style="stroke:#000000;stroke-width:0.8;" x="80.626311" xlink:href="#md12dfcbba8" y="446.896203"/>
      </g>
     </g>
     <g id="line2d_50">
      <g>
       <use style="stroke:#000000;stroke-width:0.8;" x="638.626311" xlink:href="#mb515d9f458" y="446.896203"/>
      </g>
     </g>
     <g id="text_7">
      <!-- 0.25 -->
      <g transform="translate(34.977813 454.647398)scale(0.21658 -0.21658)">
       <use xlink:href="#ArialMT-48"/>
       <use x="55.615234" xlink:href="#ArialMT-46"/>
       <use x="83.398438" xlink:href="#ArialMT-50"/>
       <use x="139.013672" xlink:href="#ArialMT-53"/>
      </g>
     </g>
    </g>
    <g id="ytick_3">
     <g id="line2d_51">
      <g>
       <use style="stroke:#000000;stroke-width:0.8;" x="80.626311" xlink:href="#md12dfcbba8" y="394.112405"/>
      </g>
     </g>
     <g id="line2d_52">
      <g>
       <use style="stroke:#000000;stroke-width:0.8;" x="638.626311" xlink:href="#mb515d9f458" y="394.112405"/>
      </g>
     </g>
     <g id="text_8">
      <!-- 0.50 -->
      <g transform="translate(34.977813 401.863601)scale(0.21658 -0.21658)">
       <use xlink:href="#ArialMT-48"/>
       <use x="55.615234" xlink:href="#ArialMT-46"/>
       <use x="83.398438" xlink:href="#ArialMT-53"/>
       <use x="139.013672" xlink:href="#ArialMT-48"/>
      </g>
     </g>
    </g>
    <g id="ytick_4">
     <g id="line2d_53">
      <g>
       <use style="stroke:#000000;stroke-width:0.8;" x="80.626311" xlink:href="#md12dfcbba8" y="341.328608"/>
      </g>
     </g>
     <g id="line2d_54">
      <g>
       <use style="stroke:#000000;stroke-width:0.8;" x="638.626311" xlink:href="#mb515d9f458" y="341.328608"/>
      </g>
     </g>
     <g id="text_9">
      <!-- 0.75 -->
      <g transform="translate(34.977813 349.079803)scale(0.21658 -0.21658)">
       <defs>
        <path d="M 4.734375 62.203125 
L 4.734375 70.65625 
L 51.078125 70.65625 
L 51.078125 63.8125 
Q 44.234375 56.546875 37.515625 44.484375 
Q 30.8125 32.421875 27.15625 19.671875 
Q 24.515625 10.6875 23.78125 0 
L 14.75 0 
Q 14.890625 8.453125 18.0625 20.40625 
Q 21.234375 32.375 27.171875 43.484375 
Q 33.109375 54.59375 39.796875 62.203125 
z
" id="ArialMT-55"/>
       </defs>
       <use xlink:href="#ArialMT-48"/>
       <use x="55.615234" xlink:href="#ArialMT-46"/>
       <use x="83.398438" xlink:href="#ArialMT-55"/>
       <use x="139.013672" xlink:href="#ArialMT-53"/>
      </g>
     </g>
    </g>
    <g id="ytick_5">
     <g id="line2d_55">
      <g>
       <use style="stroke:#000000;stroke-width:0.8;" x="80.626311" xlink:href="#md12dfcbba8" y="288.544811"/>
      </g>
     </g>
     <g id="line2d_56">
      <g>
       <use style="stroke:#000000;stroke-width:0.8;" x="638.626311" xlink:href="#mb515d9f458" y="288.544811"/>
      </g>
     </g>
     <g id="text_10">
      <!-- 1.00 -->
      <g transform="translate(34.977813 296.296006)scale(0.21658 -0.21658)">
       <use xlink:href="#ArialMT-49"/>
       <use x="55.615234" xlink:href="#ArialMT-46"/>
       <use x="83.398438" xlink:href="#ArialMT-48"/>
       <use x="139.013672" xlink:href="#ArialMT-48"/>
      </g>
     </g>
    </g>
    <g id="ytick_6">
     <g id="line2d_57">
      <g>
       <use style="stroke:#000000;stroke-width:0.8;" x="80.626311" xlink:href="#md12dfcbba8" y="235.761014"/>
      </g>
     </g>
     <g id="line2d_58">
      <g>
       <use style="stroke:#000000;stroke-width:0.8;" x="638.626311" xlink:href="#mb515d9f458" y="235.761014"/>
      </g>
     </g>
     <g id="text_11">
      <!-- 1.25 -->
      <g transform="translate(34.977813 243.512209)scale(0.21658 -0.21658)">
       <use xlink:href="#ArialMT-49"/>
       <use x="55.615234" xlink:href="#ArialMT-46"/>
       <use x="83.398438" xlink:href="#ArialMT-50"/>
       <use x="139.013672" xlink:href="#ArialMT-53"/>
      </g>
     </g>
    </g>
    <g id="ytick_7">
     <g id="line2d_59">
      <g>
       <use style="stroke:#000000;stroke-width:0.8;" x="80.626311" xlink:href="#md12dfcbba8" y="182.977216"/>
      </g>
     </g>
     <g id="line2d_60">
      <g>
       <use style="stroke:#000000;stroke-width:0.8;" x="638.626311" xlink:href="#mb515d9f458" y="182.977216"/>
      </g>
     </g>
     <g id="text_12">
      <!-- 1.50 -->
      <g transform="translate(34.977813 190.728411)scale(0.21658 -0.21658)">
       <use xlink:href="#ArialMT-49"/>
       <use x="55.615234" xlink:href="#ArialMT-46"/>
       <use x="83.398438" xlink:href="#ArialMT-53"/>
       <use x="139.013672" xlink:href="#ArialMT-48"/>
      </g>
     </g>
    </g>
    <g id="ytick_8">
     <g id="line2d_61">
      <g>
       <use style="stroke:#000000;stroke-width:0.8;" x="80.626311" xlink:href="#md12dfcbba8" y="130.193419"/>
      </g>
     </g>
     <g id="line2d_62">
      <g>
       <use style="stroke:#000000;stroke-width:0.8;" x="638.626311" xlink:href="#mb515d9f458" y="130.193419"/>
      </g>
     </g>
     <g id="text_13">
      <!-- 1.75 -->
      <g transform="translate(34.977813 137.944614)scale(0.21658 -0.21658)">
       <use xlink:href="#ArialMT-49"/>
       <use x="55.615234" xlink:href="#ArialMT-46"/>
       <use x="83.398438" xlink:href="#ArialMT-55"/>
       <use x="139.013672" xlink:href="#ArialMT-53"/>
      </g>
     </g>
    </g>
    <g id="ytick_9">
     <g id="line2d_63">
      <g>
       <use style="stroke:#000000;stroke-width:0.8;" x="80.626311" xlink:href="#md12dfcbba8" y="77.409622"/>
      </g>
     </g>
     <g id="line2d_64">
      <g>
       <use style="stroke:#000000;stroke-width:0.8;" x="638.626311" xlink:href="#mb515d9f458" y="77.409622"/>
      </g>
     </g>
     <g id="text_14">
      <!-- 2.00 -->
      <g transform="translate(34.977813 85.160817)scale(0.21658 -0.21658)">
       <use xlink:href="#ArialMT-50"/>
       <use x="55.615234" xlink:href="#ArialMT-46"/>
       <use x="83.398438" xlink:href="#ArialMT-48"/>
       <use x="139.013672" xlink:href="#ArialMT-48"/>
      </g>
     </g>
    </g>
    <g id="ytick_10">
     <g id="line2d_65">
      <defs>
       <path d="M 0 0 
L 6 0 
" id="mf71bfbd618" style="stroke:#000000;stroke-width:0.6;"/>
      </defs>
      <g>
       <use style="stroke:#000000;stroke-width:0.6;" x="80.626311" xlink:href="#mf71bfbd618" y="489.123241"/>
      </g>
     </g>
     <g id="line2d_66">
      <defs>
       <path d="M 0 0 
L -6 0 
" id="m2f396891dc" style="stroke:#000000;stroke-width:0.6;"/>
      </defs>
      <g>
       <use style="stroke:#000000;stroke-width:0.6;" x="638.626311" xlink:href="#m2f396891dc" y="489.123241"/>
      </g>
     </g>
    </g>
    <g id="ytick_11">
     <g id="line2d_67">
      <g>
       <use style="stroke:#000000;stroke-width:0.6;" x="80.626311" xlink:href="#mf71bfbd618" y="478.566481"/>
      </g>
     </g>
     <g id="line2d_68">
      <g>
       <use style="stroke:#000000;stroke-width:0.6;" x="638.626311" xlink:href="#m2f396891dc" y="478.566481"/>
      </g>
     </g>
    </g>
    <g id="ytick_12">
     <g id="line2d_69">
      <g>
       <use style="stroke:#000000;stroke-width:0.6;" x="80.626311" xlink:href="#mf71bfbd618" y="468.009722"/>
      </g>
     </g>
     <g id="line2d_70">
      <g>
       <use style="stroke:#000000;stroke-width:0.6;" x="638.626311" xlink:href="#m2f396891dc" y="468.009722"/>
      </g>
     </g>
    </g>
    <g id="ytick_13">
     <g id="line2d_71">
      <g>
       <use style="stroke:#000000;stroke-width:0.6;" x="80.626311" xlink:href="#mf71bfbd618" y="457.452962"/>
      </g>
     </g>
     <g id="line2d_72">
      <g>
       <use style="stroke:#000000;stroke-width:0.6;" x="638.626311" xlink:href="#m2f396891dc" y="457.452962"/>
      </g>
     </g>
    </g>
    <g id="ytick_14">
     <g id="line2d_73">
      <g>
       <use style="stroke:#000000;stroke-width:0.6;" x="80.626311" xlink:href="#mf71bfbd618" y="436.339443"/>
      </g>
     </g>
     <g id="line2d_74">
      <g>
       <use style="stroke:#000000;stroke-width:0.6;" x="638.626311" xlink:href="#m2f396891dc" y="436.339443"/>
      </g>
     </g>
    </g>
    <g id="ytick_15">
     <g id="line2d_75">
      <g>
       <use style="stroke:#000000;stroke-width:0.6;" x="80.626311" xlink:href="#mf71bfbd618" y="425.782684"/>
      </g>
     </g>
     <g id="line2d_76">
      <g>
       <use style="stroke:#000000;stroke-width:0.6;" x="638.626311" xlink:href="#m2f396891dc" y="425.782684"/>
      </g>
     </g>
    </g>
    <g id="ytick_16">
     <g id="line2d_77">
      <g>
       <use style="stroke:#000000;stroke-width:0.6;" x="80.626311" xlink:href="#mf71bfbd618" y="415.225924"/>
      </g>
     </g>
     <g id="line2d_78">
      <g>
       <use style="stroke:#000000;stroke-width:0.6;" x="638.626311" xlink:href="#m2f396891dc" y="415.225924"/>
      </g>
     </g>
    </g>
    <g id="ytick_17">
     <g id="line2d_79">
      <g>
       <use style="stroke:#000000;stroke-width:0.6;" x="80.626311" xlink:href="#mf71bfbd618" y="404.669165"/>
      </g>
     </g>
     <g id="line2d_80">
      <g>
       <use style="stroke:#000000;stroke-width:0.6;" x="638.626311" xlink:href="#m2f396891dc" y="404.669165"/>
      </g>
     </g>
    </g>
    <g id="ytick_18">
     <g id="line2d_81">
      <g>
       <use style="stroke:#000000;stroke-width:0.6;" x="80.626311" xlink:href="#mf71bfbd618" y="383.555646"/>
      </g>
     </g>
     <g id="line2d_82">
      <g>
       <use style="stroke:#000000;stroke-width:0.6;" x="638.626311" xlink:href="#m2f396891dc" y="383.555646"/>
      </g>
     </g>
    </g>
    <g id="ytick_19">
     <g id="line2d_83">
      <g>
       <use style="stroke:#000000;stroke-width:0.6;" x="80.626311" xlink:href="#mf71bfbd618" y="372.998887"/>
      </g>
     </g>
     <g id="line2d_84">
      <g>
       <use style="stroke:#000000;stroke-width:0.6;" x="638.626311" xlink:href="#m2f396891dc" y="372.998887"/>
      </g>
     </g>
    </g>
    <g id="ytick_20">
     <g id="line2d_85">
      <g>
       <use style="stroke:#000000;stroke-width:0.6;" x="80.626311" xlink:href="#mf71bfbd618" y="362.442127"/>
      </g>
     </g>
     <g id="line2d_86">
      <g>
       <use style="stroke:#000000;stroke-width:0.6;" x="638.626311" xlink:href="#m2f396891dc" y="362.442127"/>
      </g>
     </g>
    </g>
    <g id="ytick_21">
     <g id="line2d_87">
      <g>
       <use style="stroke:#000000;stroke-width:0.6;" x="80.626311" xlink:href="#mf71bfbd618" y="351.885368"/>
      </g>
     </g>
     <g id="line2d_88">
      <g>
       <use style="stroke:#000000;stroke-width:0.6;" x="638.626311" xlink:href="#m2f396891dc" y="351.885368"/>
      </g>
     </g>
    </g>
    <g id="ytick_22">
     <g id="line2d_89">
      <g>
       <use style="stroke:#000000;stroke-width:0.6;" x="80.626311" xlink:href="#mf71bfbd618" y="330.771849"/>
      </g>
     </g>
     <g id="line2d_90">
      <g>
       <use style="stroke:#000000;stroke-width:0.6;" x="638.626311" xlink:href="#m2f396891dc" y="330.771849"/>
      </g>
     </g>
    </g>
    <g id="ytick_23">
     <g id="line2d_91">
      <g>
       <use style="stroke:#000000;stroke-width:0.6;" x="80.626311" xlink:href="#mf71bfbd618" y="320.215089"/>
      </g>
     </g>
     <g id="line2d_92">
      <g>
       <use style="stroke:#000000;stroke-width:0.6;" x="638.626311" xlink:href="#m2f396891dc" y="320.215089"/>
      </g>
     </g>
    </g>
    <g id="ytick_24">
     <g id="line2d_93">
      <g>
       <use style="stroke:#000000;stroke-width:0.6;" x="80.626311" xlink:href="#mf71bfbd618" y="309.65833"/>
      </g>
     </g>
     <g id="line2d_94">
      <g>
       <use style="stroke:#000000;stroke-width:0.6;" x="638.626311" xlink:href="#m2f396891dc" y="309.65833"/>
      </g>
     </g>
    </g>
    <g id="ytick_25">
     <g id="line2d_95">
      <g>
       <use style="stroke:#000000;stroke-width:0.6;" x="80.626311" xlink:href="#mf71bfbd618" y="299.10157"/>
      </g>
     </g>
     <g id="line2d_96">
      <g>
       <use style="stroke:#000000;stroke-width:0.6;" x="638.626311" xlink:href="#m2f396891dc" y="299.10157"/>
      </g>
     </g>
    </g>
    <g id="ytick_26">
     <g id="line2d_97">
      <g>
       <use style="stroke:#000000;stroke-width:0.6;" x="80.626311" xlink:href="#mf71bfbd618" y="277.988051"/>
      </g>
     </g>
     <g id="line2d_98">
      <g>
       <use style="stroke:#000000;stroke-width:0.6;" x="638.626311" xlink:href="#m2f396891dc" y="277.988051"/>
      </g>
     </g>
    </g>
    <g id="ytick_27">
     <g id="line2d_99">
      <g>
       <use style="stroke:#000000;stroke-width:0.6;" x="80.626311" xlink:href="#mf71bfbd618" y="267.431292"/>
      </g>
     </g>
     <g id="line2d_100">
      <g>
       <use style="stroke:#000000;stroke-width:0.6;" x="638.626311" xlink:href="#m2f396891dc" y="267.431292"/>
      </g>
     </g>
    </g>
    <g id="ytick_28">
     <g id="line2d_101">
      <g>
       <use style="stroke:#000000;stroke-width:0.6;" x="80.626311" xlink:href="#mf71bfbd618" y="256.874533"/>
      </g>
     </g>
     <g id="line2d_102">
      <g>
       <use style="stroke:#000000;stroke-width:0.6;" x="638.626311" xlink:href="#m2f396891dc" y="256.874533"/>
      </g>
     </g>
    </g>
    <g id="ytick_29">
     <g id="line2d_103">
      <g>
       <use style="stroke:#000000;stroke-width:0.6;" x="80.626311" xlink:href="#mf71bfbd618" y="246.317773"/>
      </g>
     </g>
     <g id="line2d_104">
      <g>
       <use style="stroke:#000000;stroke-width:0.6;" x="638.626311" xlink:href="#m2f396891dc" y="246.317773"/>
      </g>
     </g>
    </g>
    <g id="ytick_30">
     <g id="line2d_105">
      <g>
       <use style="stroke:#000000;stroke-width:0.6;" x="80.626311" xlink:href="#mf71bfbd618" y="225.204254"/>
      </g>
     </g>
     <g id="line2d_106">
      <g>
       <use style="stroke:#000000;stroke-width:0.6;" x="638.626311" xlink:href="#m2f396891dc" y="225.204254"/>
      </g>
     </g>
    </g>
    <g id="ytick_31">
     <g id="line2d_107">
      <g>
       <use style="stroke:#000000;stroke-width:0.6;" x="80.626311" xlink:href="#mf71bfbd618" y="214.647495"/>
      </g>
     </g>
     <g id="line2d_108">
      <g>
       <use style="stroke:#000000;stroke-width:0.6;" x="638.626311" xlink:href="#m2f396891dc" y="214.647495"/>
      </g>
     </g>
    </g>
    <g id="ytick_32">
     <g id="line2d_109">
      <g>
       <use style="stroke:#000000;stroke-width:0.6;" x="80.626311" xlink:href="#mf71bfbd618" y="204.090735"/>
      </g>
     </g>
     <g id="line2d_110">
      <g>
       <use style="stroke:#000000;stroke-width:0.6;" x="638.626311" xlink:href="#m2f396891dc" y="204.090735"/>
      </g>
     </g>
    </g>
    <g id="ytick_33">
     <g id="line2d_111">
      <g>
       <use style="stroke:#000000;stroke-width:0.6;" x="80.626311" xlink:href="#mf71bfbd618" y="193.533976"/>
      </g>
     </g>
     <g id="line2d_112">
      <g>
       <use style="stroke:#000000;stroke-width:0.6;" x="638.626311" xlink:href="#m2f396891dc" y="193.533976"/>
      </g>
     </g>
    </g>
    <g id="ytick_34">
     <g id="line2d_113">
      <g>
       <use style="stroke:#000000;stroke-width:0.6;" x="80.626311" xlink:href="#mf71bfbd618" y="172.420457"/>
      </g>
     </g>
     <g id="line2d_114">
      <g>
       <use style="stroke:#000000;stroke-width:0.6;" x="638.626311" xlink:href="#m2f396891dc" y="172.420457"/>
      </g>
     </g>
    </g>
    <g id="ytick_35">
     <g id="line2d_115">
      <g>
       <use style="stroke:#000000;stroke-width:0.6;" x="80.626311" xlink:href="#mf71bfbd618" y="161.863697"/>
      </g>
     </g>
     <g id="line2d_116">
      <g>
       <use style="stroke:#000000;stroke-width:0.6;" x="638.626311" xlink:href="#m2f396891dc" y="161.863697"/>
      </g>
     </g>
    </g>
    <g id="ytick_36">
     <g id="line2d_117">
      <g>
       <use style="stroke:#000000;stroke-width:0.6;" x="80.626311" xlink:href="#mf71bfbd618" y="151.306938"/>
      </g>
     </g>
     <g id="line2d_118">
      <g>
       <use style="stroke:#000000;stroke-width:0.6;" x="638.626311" xlink:href="#m2f396891dc" y="151.306938"/>
      </g>
     </g>
    </g>
    <g id="ytick_37">
     <g id="line2d_119">
      <g>
       <use style="stroke:#000000;stroke-width:0.6;" x="80.626311" xlink:href="#mf71bfbd618" y="140.750178"/>
      </g>
     </g>
     <g id="line2d_120">
      <g>
       <use style="stroke:#000000;stroke-width:0.6;" x="638.626311" xlink:href="#m2f396891dc" y="140.750178"/>
      </g>
     </g>
    </g>
    <g id="ytick_38">
     <g id="line2d_121">
      <g>
       <use style="stroke:#000000;stroke-width:0.6;" x="80.626311" xlink:href="#mf71bfbd618" y="119.63666"/>
      </g>
     </g>
     <g id="line2d_122">
      <g>
       <use style="stroke:#000000;stroke-width:0.6;" x="638.626311" xlink:href="#m2f396891dc" y="119.63666"/>
      </g>
     </g>
    </g>
    <g id="ytick_39">
     <g id="line2d_123">
      <g>
       <use style="stroke:#000000;stroke-width:0.6;" x="80.626311" xlink:href="#mf71bfbd618" y="109.0799"/>
      </g>
     </g>
     <g id="line2d_124">
      <g>
       <use style="stroke:#000000;stroke-width:0.6;" x="638.626311" xlink:href="#m2f396891dc" y="109.0799"/>
      </g>
     </g>
    </g>
    <g id="ytick_40">
     <g id="line2d_125">
      <g>
       <use style="stroke:#000000;stroke-width:0.6;" x="80.626311" xlink:href="#mf71bfbd618" y="98.523141"/>
      </g>
     </g>
     <g id="line2d_126">
      <g>
       <use style="stroke:#000000;stroke-width:0.6;" x="638.626311" xlink:href="#m2f396891dc" y="98.523141"/>
      </g>
     </g>
    </g>
    <g id="ytick_41">
     <g id="line2d_127">
      <g>
       <use style="stroke:#000000;stroke-width:0.6;" x="80.626311" xlink:href="#mf71bfbd618" y="87.966381"/>
      </g>
     </g>
     <g id="line2d_128">
      <g>
       <use style="stroke:#000000;stroke-width:0.6;" x="638.626311" xlink:href="#m2f396891dc" y="87.966381"/>
      </g>
     </g>
    </g>
    <g id="ytick_42">
     <g id="line2d_129">
      <g>
       <use style="stroke:#000000;stroke-width:0.6;" x="80.626311" xlink:href="#mf71bfbd618" y="66.852862"/>
      </g>
     </g>
     <g id="line2d_130">
      <g>
       <use style="stroke:#000000;stroke-width:0.6;" x="638.626311" xlink:href="#m2f396891dc" y="66.852862"/>
      </g>
     </g>
    </g>
    <g id="text_15">
     <!-- #events / 20.0MeV -->
     <g transform="translate(25.810312 281.583125)rotate(-90)scale(0.26 -0.26)">
      <defs>
       <path d="M 5.03125 -1.21875 
L 9.28125 19.578125 
L 1.03125 19.578125 
L 1.03125 26.859375 
L 10.75 26.859375 
L 14.359375 44.578125 
L 1.03125 44.578125 
L 1.03125 51.859375 
L 15.828125 51.859375 
L 20.0625 72.796875 
L 27.390625 72.796875 
L 23.140625 51.859375 
L 38.53125 51.859375 
L 42.78125 72.796875 
L 50.140625 72.796875 
L 45.90625 51.859375 
L 54.34375 51.859375 
L 54.34375 44.578125 
L 44.4375 44.578125 
L 40.765625 26.859375 
L 54.34375 26.859375 
L 54.34375 19.578125 
L 39.3125 19.578125 
L 35.0625 -1.21875 
L 27.734375 -1.21875 
L 31.9375 19.578125 
L 16.609375 19.578125 
L 12.359375 -1.21875 
z
M 18.0625 26.859375 
L 33.40625 26.859375 
L 37.0625 44.578125 
L 21.6875 44.578125 
z
" id="ArialMT-35"/>
       <path d="M 21 0 
L 1.265625 51.859375 
L 10.546875 51.859375 
L 21.6875 20.796875 
Q 23.484375 15.765625 25 10.359375 
Q 26.171875 14.453125 28.265625 20.21875 
L 39.796875 51.859375 
L 48.828125 51.859375 
L 29.203125 0 
z
" id="ArialMT-118"/>
       <path d="M 6.59375 0 
L 6.59375 51.859375 
L 14.5 51.859375 
L 14.5 44.484375 
Q 20.21875 53.03125 31 53.03125 
Q 35.6875 53.03125 39.625 51.34375 
Q 43.5625 49.65625 45.515625 46.921875 
Q 47.46875 44.1875 48.25 40.4375 
Q 48.734375 37.984375 48.734375 31.890625 
L 48.734375 0 
L 39.9375 0 
L 39.9375 31.546875 
Q 39.9375 36.921875 38.90625 39.578125 
Q 37.890625 42.234375 35.28125 43.8125 
Q 32.671875 45.40625 29.15625 45.40625 
Q 23.53125 45.40625 19.453125 41.84375 
Q 15.375 38.28125 15.375 28.328125 
L 15.375 0 
z
" id="ArialMT-110"/>
       <path d="M 25.78125 7.859375 
L 27.046875 0.09375 
Q 23.34375 -0.6875 20.40625 -0.6875 
Q 15.625 -0.6875 12.984375 0.828125 
Q 10.359375 2.34375 9.28125 4.8125 
Q 8.203125 7.28125 8.203125 15.1875 
L 8.203125 45.015625 
L 1.765625 45.015625 
L 1.765625 51.859375 
L 8.203125 51.859375 
L 8.203125 64.703125 
L 16.9375 69.96875 
L 16.9375 51.859375 
L 25.78125 51.859375 
L 25.78125 45.015625 
L 16.9375 45.015625 
L 16.9375 14.703125 
Q 16.9375 10.9375 17.40625 9.859375 
Q 17.875 8.796875 18.921875 8.15625 
Q 19.96875 7.515625 21.921875 7.515625 
Q 23.390625 7.515625 25.78125 7.859375 
z
" id="ArialMT-116"/>
       <path id="ArialMT-32"/>
       <path d="M 0 -1.21875 
L 20.75 72.796875 
L 27.78125 72.796875 
L 7.078125 -1.21875 
z
" id="ArialMT-47"/>
      </defs>
      <use xlink:href="#ArialMT-35"/>
      <use x="55.615234" xlink:href="#ArialMT-101"/>
      <use x="111.230469" xlink:href="#ArialMT-118"/>
      <use x="161.230469" xlink:href="#ArialMT-101"/>
      <use x="216.845703" xlink:href="#ArialMT-110"/>
      <use x="272.460938" xlink:href="#ArialMT-116"/>
      <use x="300.244141" xlink:href="#ArialMT-115"/>
      <use x="350.244141" xlink:href="#ArialMT-32"/>
      <use x="378.027344" xlink:href="#ArialMT-47"/>
      <use x="405.810547" xlink:href="#ArialMT-32"/>
      <use x="433.59375" xlink:href="#ArialMT-50"/>
      <use x="489.208984" xlink:href="#ArialMT-48"/>
      <use x="544.824219" xlink:href="#ArialMT-46"/>
      <use x="572.607422" xlink:href="#ArialMT-48"/>
      <use x="628.222656" xlink:href="#ArialMT-77"/>
      <use x="711.523438" xlink:href="#ArialMT-101"/>
      <use x="767.138672" xlink:href="#ArialMT-86"/>
     </g>
    </g>
   </g>
   <g id="patch_3">
    <path clip-path="url(#p27dcc54cbe)" d="M 105.989947 499.68 
L 126.280852 499.68 
L 126.280852 495.078109 
L 131.353589 495.078109 
L 131.353589 490.47619 
L 136.426311 490.47619 
L 136.426311 499.68 
L 141.499034 499.68 
L 141.499034 485.874327 
L 146.571771 485.874327 
L 146.571771 499.68 
L 151.644493 499.68 
L 151.644493 485.874286 
L 156.717215 485.874286 
L 156.717215 476.670545 
L 161.789953 476.670545 
L 161.789953 490.47619 
L 166.862675 490.47619 
L 166.862675 485.874286 
L 171.935397 485.874286 
L 171.935397 490.476218 
L 177.008135 490.476218 
L 177.008135 462.864762 
L 182.080857 462.864762 
L 182.080857 499.68 
L 187.153579 499.68 
L 187.153579 481.272381 
L 192.226302 481.272381 
L 192.226302 462.864762 
L 197.299024 462.864762 
L 197.299024 467.466859 
L 202.371777 467.466859 
L 202.371777 444.457143 
L 207.444499 444.457143 
L 207.444499 453.660952 
L 212.517221 453.660952 
L 212.517221 458.262857 
L 217.589943 458.262857 
L 217.589943 449.059048 
L 222.662666 449.059048 
L 222.662666 403.04 
L 232.80814 403.040576 
L 232.80814 398.438095 
L 237.880863 398.438095 
L 237.880863 320.205714 
L 242.953585 320.205714 
L 242.953585 334.011429 
L 248.026307 334.011429 
L 248.026307 301.798095 
L 253.09903 301.798095 
L 253.09903 347.817143 
L 258.171752 347.817143 
L 258.171752 283.391765 
L 263.244504 283.391765 
L 263.244504 311.001905 
L 268.317227 311.001905 
L 268.317227 255.779048 
L 273.389949 255.779048 
L 273.389949 126.925714 
L 278.462671 126.925714 
L 278.462671 177.546667 
L 283.535394 177.546667 
L 283.535394 186.750476 
L 288.608116 186.750476 
L 288.608116 163.742955 
L 293.680868 163.742955 
L 293.680868 182.148571 
L 298.753591 182.148571 
L 298.753591 237.371429 
L 303.826313 237.371429 
L 303.826313 117.721905 
L 308.899035 117.721905 
L 308.899035 191.352381 
L 313.971757 191.352381 
L 313.971757 126.925714 
L 319.04448 126.925714 
L 319.04448 85.508571 
L 324.117202 85.508571 
L 324.117202 209.761728 
L 329.189955 209.761728 
L 329.189955 223.565714 
L 334.262677 223.565714 
L 334.262677 191.352381 
L 339.335399 191.352381 
L 339.335399 200.55619 
L 344.408121 200.55619 
L 344.408121 223.565714 
L 349.480844 223.565714 
L 349.480844 200.55619 
L 354.553566 200.55619 
L 354.553566 195.956096 
L 359.626318 195.956096 
L 359.626318 283.390476 
L 364.699041 283.390476 
L 364.699041 292.594286 
L 369.771763 292.594286 
L 369.771763 301.798095 
L 374.844485 301.798095 
L 374.844485 338.613333 
L 379.917208 338.613333 
L 379.917208 343.215238 
L 384.98993 343.215238 
L 384.98993 398.438699 
L 390.062682 398.438699 
L 390.062682 357.020952 
L 395.135405 357.020952 
L 395.135405 384.632381 
L 400.208127 384.632381 
L 400.208127 407.641905 
L 405.280849 407.641905 
L 405.280849 370.826667 
L 410.353572 370.826667 
L 410.353572 412.24381 
L 415.426294 412.24381 
L 415.426294 380.031189 
L 420.499046 380.031189 
L 420.499046 412.24381 
L 425.571769 412.24381 
L 425.571769 403.04 
L 430.644491 403.04 
L 430.644491 444.457143 
L 435.717213 444.457143 
L 435.717213 421.447619 
L 440.789936 421.447619 
L 440.789936 430.651429 
L 445.862658 430.651429 
L 445.862658 389.234286 
L 450.93538 389.234286 
L 450.93538 449.059048 
L 456.008102 449.059048 
L 456.008102 458.262857 
L 461.080825 458.262857 
L 461.080825 453.660952 
L 466.153547 453.660952 
L 466.153547 449.059651 
L 471.22633 449.059651 
L 471.22633 472.068571 
L 476.299052 472.068571 
L 476.299052 462.864762 
L 486.444497 462.864762 
L 486.444497 467.466667 
L 491.517219 467.466667 
L 491.517219 481.272381 
L 496.589941 481.272381 
L 496.589941 449.059048 
L 501.662663 449.059048 
L 501.662663 439.855238 
L 506.735386 439.855238 
L 506.735386 449.059048 
L 511.808108 449.059048 
L 511.808108 462.864762 
L 521.953553 462.864762 
L 521.953553 481.272381 
L 527.026275 481.272381 
L 527.026275 472.068901 
L 532.099058 472.068901 
L 532.099058 481.272381 
L 542.244502 481.272381 
L 542.244502 476.670476 
L 547.317224 476.670476 
L 547.317224 472.068571 
L 552.389947 472.068571 
L 552.389947 490.47619 
L 567.608114 490.47619 
L 567.608114 472.068571 
L 572.680836 472.068571 
L 572.680836 490.47619 
L 577.753558 490.47619 
L 577.753558 499.68 
L 582.82628 499.68 
L 582.82628 490.47619 
L 592.971725 490.47619 
L 592.971725 495.07815 
L 598.044508 495.07815 
L 598.044508 485.874286 
L 603.11723 485.874286 
L 603.11723 490.47619 
L 613.262675 490.47619 
L 613.262675 499.68 
L 613.262675 499.68 
" style="fill:none;stroke:#ff0000;stroke-linejoin:miter;stroke-width:2;"/>
   </g>
   <g id="patch_4">
    <path clip-path="url(#p27dcc54cbe)" d="M 105.989947 499.68 
L 151.644493 499.68 
L 151.644493 480.309781 
L 161.789953 480.309838 
L 161.789953 499.68 
L 166.862675 499.68 
L 166.862675 422.199123 
L 171.935397 422.199123 
L 171.935397 480.309838 
L 177.008135 480.309838 
L 177.008135 460.939561 
L 182.080857 460.939561 
L 182.080857 480.309781 
L 187.153579 480.309781 
L 187.153579 460.939561 
L 192.226302 460.939561 
L 192.226302 402.828903 
L 197.299024 402.828903 
L 197.299024 460.939792 
L 202.371777 460.939792 
L 202.371777 441.569342 
L 212.517221 441.569342 
L 212.517221 422.199123 
L 222.662666 422.199123 
L 222.662666 499.68 
L 227.735388 499.68 
L 227.735388 402.829481 
L 232.80814 402.829481 
L 232.80814 267.237368 
L 237.880863 267.237368 
L 237.880863 364.088465 
L 242.953585 364.088465 
L 242.953585 344.718246 
L 248.026307 344.718246 
L 248.026307 247.867149 
L 253.09903 247.867149 
L 253.09903 364.088465 
L 263.244504 364.089273 
L 263.244504 344.718246 
L 268.317227 344.718246 
L 268.317227 209.12671 
L 273.389949 209.12671 
L 273.389949 228.49693 
L 278.462671 228.49693 
L 278.462671 247.867149 
L 283.535394 247.867149 
L 283.535394 170.386272 
L 288.608116 170.386272 
L 288.608116 151.018131 
L 293.680868 151.018131 
L 293.680868 131.645833 
L 298.753591 131.645833 
L 298.753591 92.905394 
L 303.826313 92.905394 
L 303.826313 151.016052 
L 308.899035 151.016052 
L 308.899035 170.386272 
L 313.971757 170.386272 
L 313.971757 151.016052 
L 319.04448 151.016052 
L 319.04448 228.49693 
L 324.117202 228.49693 
L 324.117202 209.128442 
L 329.189955 209.128442 
L 329.189955 170.386272 
L 339.335399 170.386272 
L 339.335399 286.607588 
L 344.408121 286.607588 
L 344.408121 228.49693 
L 349.480844 228.49693 
L 349.480844 286.607588 
L 354.553566 286.607588 
L 354.553566 267.238754 
L 364.699041 267.237368 
L 364.699041 325.348026 
L 369.771763 325.348026 
L 369.771763 228.49693 
L 374.844485 228.49693 
L 374.844485 209.12671 
L 379.917208 209.12671 
L 379.917208 305.977807 
L 384.98993 305.977807 
L 384.98993 402.829481 
L 390.062682 402.829481 
L 390.062682 305.977807 
L 395.135405 305.977807 
L 395.135405 383.458684 
L 400.208127 383.458684 
L 400.208127 422.199123 
L 405.280849 422.199123 
L 405.280849 460.939561 
L 410.353572 460.939561 
L 410.353572 441.569342 
L 415.426294 441.569342 
L 415.426294 383.459377 
L 420.499046 383.459377 
L 420.499046 422.199123 
L 430.644491 422.199123 
L 430.644491 441.569342 
L 440.789936 441.569342 
L 440.789936 480.309781 
L 445.862658 480.309781 
L 445.862658 422.199123 
L 450.93538 422.199123 
L 450.93538 480.309781 
L 456.008102 480.309781 
L 456.008102 383.458684 
L 461.080825 383.458684 
L 461.080825 499.68 
L 466.153547 499.68 
L 466.153547 441.570035 
L 481.371774 441.569342 
L 481.371774 422.199123 
L 486.444497 422.199123 
L 486.444497 441.569342 
L 491.517219 441.569342 
L 491.517219 480.309781 
L 496.589941 480.309781 
L 496.589941 499.68 
L 501.662663 499.68 
L 501.662663 460.939561 
L 511.808108 460.939561 
L 511.808108 441.569342 
L 521.953553 441.569342 
L 521.953553 480.309781 
L 527.026275 480.309781 
L 527.026275 441.570035 
L 532.099058 441.570035 
L 532.099058 480.309781 
L 542.244502 480.309781 
L 542.244502 460.939561 
L 552.389947 460.939561 
L 552.389947 499.68 
L 557.462669 499.68 
L 557.462669 480.309781 
L 567.608114 480.309781 
L 567.608114 499.68 
L 572.680836 499.68 
L 572.680836 460.939561 
L 577.753558 460.939561 
L 577.753558 499.68 
L 582.82628 499.68 
L 582.82628 480.309781 
L 587.899003 480.309781 
L 587.899003 499.68 
L 613.262675 499.68 
L 613.262675 499.68 
" style="fill:none;stroke:#000000;stroke-linejoin:miter;stroke-width:2;"/>
   </g>
   <g id="patch_5">
    <path d="M 80.626311 499.68 
L 80.626311 64.8 
" style="fill:none;stroke:#000000;stroke-linecap:square;stroke-linejoin:miter;stroke-width:2;"/>
   </g>
   <g id="patch_6">
    <path d="M 638.626311 499.68 
L 638.626311 64.8 
" style="fill:none;stroke:#000000;stroke-linecap:square;stroke-linejoin:miter;stroke-width:2;"/>
   </g>
   <g id="patch_7">
    <path d="M 80.626311 499.68 
L 638.626311 499.68 
" style="fill:none;stroke:#000000;stroke-linecap:square;stroke-linejoin:miter;stroke-width:2;"/>
   </g>
   <g id="patch_8">
    <path d="M 80.626311 64.8 
L 638.626311 64.8 
" style="fill:none;stroke:#000000;stroke-linecap:square;stroke-linejoin:miter;stroke-width:2;"/>
   </g>
   <g id="legend_1">
    <g id="patch_9">
     <path d="M 392.625272 101.96039 
L 425.112272 101.96039 
L 425.112272 86.79979 
L 392.625272 86.79979 
z
" style="fill:none;stroke:#ff0000;stroke-linejoin:miter;stroke-width:2;"/>
    </g>
    <g id="text_16">
     <!-- correct triggered -->
     <g transform="translate(442.438672 101.96039)scale(0.21658 -0.21658)">
      <defs>
       <path d="M 40.4375 19 
L 49.078125 17.875 
Q 47.65625 8.9375 41.8125 3.875 
Q 35.984375 -1.171875 27.484375 -1.171875 
Q 16.84375 -1.171875 10.375 5.78125 
Q 3.90625 12.75 3.90625 25.734375 
Q 3.90625 34.125 6.6875 40.421875 
Q 9.46875 46.734375 15.15625 49.875 
Q 20.84375 53.03125 27.546875 53.03125 
Q 35.984375 53.03125 41.359375 48.75 
Q 46.734375 44.484375 48.25 36.625 
L 39.703125 35.296875 
Q 38.484375 40.53125 35.375 43.15625 
Q 32.28125 45.796875 27.875 45.796875 
Q 21.234375 45.796875 17.078125 41.03125 
Q 12.9375 36.28125 12.9375 25.984375 
Q 12.9375 15.53125 16.9375 10.796875 
Q 20.953125 6.0625 27.390625 6.0625 
Q 32.5625 6.0625 36.03125 9.234375 
Q 39.5 12.40625 40.4375 19 
z
" id="ArialMT-99"/>
       <path d="M 3.328125 25.921875 
Q 3.328125 40.328125 11.328125 47.265625 
Q 18.015625 53.03125 27.640625 53.03125 
Q 38.328125 53.03125 45.109375 46.015625 
Q 51.90625 39.015625 51.90625 26.65625 
Q 51.90625 16.65625 48.90625 10.90625 
Q 45.90625 5.171875 40.15625 2 
Q 34.421875 -1.171875 27.640625 -1.171875 
Q 16.75 -1.171875 10.03125 5.8125 
Q 3.328125 12.796875 3.328125 25.921875 
z
M 12.359375 25.921875 
Q 12.359375 15.96875 16.703125 11.015625 
Q 21.046875 6.0625 27.640625 6.0625 
Q 34.1875 6.0625 38.53125 11.03125 
Q 42.875 16.015625 42.875 26.21875 
Q 42.875 35.84375 38.5 40.796875 
Q 34.125 45.75 27.640625 45.75 
Q 21.046875 45.75 16.703125 40.8125 
Q 12.359375 35.890625 12.359375 25.921875 
z
" id="ArialMT-111"/>
       <path d="M 6.5 0 
L 6.5 51.859375 
L 14.40625 51.859375 
L 14.40625 44 
Q 17.4375 49.515625 20 51.265625 
Q 22.5625 53.03125 25.640625 53.03125 
Q 30.078125 53.03125 34.671875 50.203125 
L 31.640625 42.046875 
Q 28.421875 43.953125 25.203125 43.953125 
Q 22.3125 43.953125 20.015625 42.21875 
Q 17.71875 40.484375 16.75 37.40625 
Q 15.28125 32.71875 15.28125 27.15625 
L 15.28125 0 
z
" id="ArialMT-114"/>
       <path d="M 6.640625 61.46875 
L 6.640625 71.578125 
L 15.4375 71.578125 
L 15.4375 61.46875 
z
M 6.640625 0 
L 6.640625 51.859375 
L 15.4375 51.859375 
L 15.4375 0 
z
" id="ArialMT-105"/>
       <path d="M 4.984375 -4.296875 
L 13.53125 -5.5625 
Q 14.0625 -9.515625 16.5 -11.328125 
Q 19.78125 -13.765625 25.4375 -13.765625 
Q 31.546875 -13.765625 34.859375 -11.328125 
Q 38.1875 -8.890625 39.359375 -4.5 
Q 40.046875 -1.8125 39.984375 6.78125 
Q 34.234375 0 25.640625 0 
Q 14.9375 0 9.078125 7.71875 
Q 3.21875 15.4375 3.21875 26.21875 
Q 3.21875 33.640625 5.90625 39.90625 
Q 8.59375 46.1875 13.6875 49.609375 
Q 18.796875 53.03125 25.6875 53.03125 
Q 34.859375 53.03125 40.828125 45.609375 
L 40.828125 51.859375 
L 48.921875 51.859375 
L 48.921875 7.03125 
Q 48.921875 -5.078125 46.453125 -10.125 
Q 44 -15.1875 38.640625 -18.109375 
Q 33.296875 -21.046875 25.484375 -21.046875 
Q 16.21875 -21.046875 10.5 -16.875 
Q 4.78125 -12.703125 4.984375 -4.296875 
z
M 12.25 26.859375 
Q 12.25 16.65625 16.296875 11.96875 
Q 20.359375 7.28125 26.46875 7.28125 
Q 32.515625 7.28125 36.609375 11.9375 
Q 40.71875 16.609375 40.71875 26.5625 
Q 40.71875 36.078125 36.5 40.90625 
Q 32.28125 45.75 26.3125 45.75 
Q 20.453125 45.75 16.34375 40.984375 
Q 12.25 36.234375 12.25 26.859375 
z
" id="ArialMT-103"/>
       <path d="M 40.234375 0 
L 40.234375 6.546875 
Q 35.296875 -1.171875 25.734375 -1.171875 
Q 19.53125 -1.171875 14.328125 2.25 
Q 9.125 5.671875 6.265625 11.796875 
Q 3.421875 17.921875 3.421875 25.875 
Q 3.421875 33.640625 6 39.96875 
Q 8.59375 46.296875 13.765625 49.65625 
Q 18.953125 53.03125 25.34375 53.03125 
Q 30.03125 53.03125 33.6875 51.046875 
Q 37.359375 49.078125 39.65625 45.90625 
L 39.65625 71.578125 
L 48.390625 71.578125 
L 48.390625 0 
z
M 12.453125 25.875 
Q 12.453125 15.921875 16.640625 10.984375 
Q 20.84375 6.0625 26.5625 6.0625 
Q 32.328125 6.0625 36.34375 10.765625 
Q 40.375 15.484375 40.375 25.140625 
Q 40.375 35.796875 36.265625 40.765625 
Q 32.171875 45.75 26.171875 45.75 
Q 20.3125 45.75 16.375 40.96875 
Q 12.453125 36.1875 12.453125 25.875 
z
" id="ArialMT-100"/>
      </defs>
      <use xlink:href="#ArialMT-99"/>
      <use x="50" xlink:href="#ArialMT-111"/>
      <use x="105.615234" xlink:href="#ArialMT-114"/>
      <use x="138.916016" xlink:href="#ArialMT-114"/>
      <use x="172.216797" xlink:href="#ArialMT-101"/>
      <use x="227.832031" xlink:href="#ArialMT-99"/>
      <use x="277.832031" xlink:href="#ArialMT-116"/>
      <use x="305.615234" xlink:href="#ArialMT-32"/>
      <use x="333.398438" xlink:href="#ArialMT-116"/>
      <use x="361.181641" xlink:href="#ArialMT-114"/>
      <use x="394.482422" xlink:href="#ArialMT-105"/>
      <use x="416.699219" xlink:href="#ArialMT-103"/>
      <use x="472.314453" xlink:href="#ArialMT-103"/>
      <use x="527.929688" xlink:href="#ArialMT-101"/>
      <use x="583.544922" xlink:href="#ArialMT-114"/>
      <use x="616.845703" xlink:href="#ArialMT-101"/>
      <use x="672.460938" xlink:href="#ArialMT-100"/>
     </g>
    </g>
    <g id="patch_10">
     <path d="M 392.625272 132.850113 
L 425.112272 132.850113 
L 425.112272 117.689513 
L 392.625272 117.689513 
z
" style="fill:none;stroke:#000000;stroke-linejoin:miter;stroke-width:2;"/>
    </g>
    <g id="text_17">
     <!-- incorrect triggered -->
     <g transform="translate(442.438672 132.850113)scale(0.21658 -0.21658)">
      <use xlink:href="#ArialMT-105"/>
      <use x="22.216797" xlink:href="#ArialMT-110"/>
      <use x="77.832031" xlink:href="#ArialMT-99"/>
      <use x="127.832031" xlink:href="#ArialMT-111"/>
      <use x="183.447266" xlink:href="#ArialMT-114"/>
      <use x="216.748047" xlink:href="#ArialMT-114"/>
      <use x="250.048828" xlink:href="#ArialMT-101"/>
      <use x="305.664062" xlink:href="#ArialMT-99"/>
      <use x="355.664062" xlink:href="#ArialMT-116"/>
      <use x="383.447266" xlink:href="#ArialMT-32"/>
      <use x="411.230469" xlink:href="#ArialMT-116"/>
      <use x="439.013672" xlink:href="#ArialMT-114"/>
      <use x="472.314453" xlink:href="#ArialMT-105"/>
      <use x="494.53125" xlink:href="#ArialMT-103"/>
      <use x="550.146484" xlink:href="#ArialMT-103"/>
      <use x="605.761719" xlink:href="#ArialMT-101"/>
      <use x="661.376953" xlink:href="#ArialMT-114"/>
      <use x="694.677734" xlink:href="#ArialMT-101"/>
      <use x="750.292969" xlink:href="#ArialMT-100"/>
     </g>
    </g>
   </g>
  </g>
  <g id="text_18">
   <!-- mass of events -->
   <g transform="translate(243.031311 30.105)scale(0.32 -0.32)">
    <defs>
     <path d="M 6.59375 0 
L 6.59375 51.859375 
L 14.453125 51.859375 
L 14.453125 44.578125 
Q 16.890625 48.390625 20.9375 50.703125 
Q 25 53.03125 30.171875 53.03125 
Q 35.9375 53.03125 39.625 50.640625 
Q 43.3125 48.25 44.828125 43.953125 
Q 50.984375 53.03125 60.84375 53.03125 
Q 68.5625 53.03125 72.703125 48.75 
Q 76.859375 44.484375 76.859375 35.59375 
L 76.859375 0 
L 68.109375 0 
L 68.109375 32.671875 
Q 68.109375 37.9375 67.25 40.25 
Q 66.40625 42.578125 64.15625 43.984375 
Q 61.921875 45.40625 58.890625 45.40625 
Q 53.421875 45.40625 49.796875 41.765625 
Q 46.1875 38.140625 46.1875 30.125 
L 46.1875 0 
L 37.40625 0 
L 37.40625 33.6875 
Q 37.40625 39.546875 35.25 42.46875 
Q 33.109375 45.40625 28.21875 45.40625 
Q 24.515625 45.40625 21.359375 43.453125 
Q 18.21875 41.5 16.796875 37.734375 
Q 15.375 33.984375 15.375 26.90625 
L 15.375 0 
z
" id="ArialMT-109"/>
     <path d="M 8.6875 0 
L 8.6875 45.015625 
L 0.921875 45.015625 
L 0.921875 51.859375 
L 8.6875 51.859375 
L 8.6875 57.375 
Q 8.6875 62.59375 9.625 65.140625 
Q 10.890625 68.5625 14.078125 70.671875 
Q 17.28125 72.796875 23.046875 72.796875 
Q 26.765625 72.796875 31.25 71.921875 
L 29.9375 64.265625 
Q 27.203125 64.75 24.75 64.75 
Q 20.75 64.75 19.09375 63.03125 
Q 17.4375 61.328125 17.4375 56.640625 
L 17.4375 51.859375 
L 27.546875 51.859375 
L 27.546875 45.015625 
L 17.4375 45.015625 
L 17.4375 0 
z
" id="ArialMT-102"/>
    </defs>
    <use xlink:href="#ArialMT-109"/>
    <use x="83.300781" xlink:href="#ArialMT-97"/>
    <use x="138.916016" xlink:href="#ArialMT-115"/>
    <use x="188.916016" xlink:href="#ArialMT-115"/>
    <use x="238.916016" xlink:href="#ArialMT-32"/>
    <use x="266.699219" xlink:href="#ArialMT-111"/>
    <use x="322.314453" xlink:href="#ArialMT-102"/>
    <use x="350.097656" xlink:href="#ArialMT-32"/>
    <use x="377.880859" xlink:href="#ArialMT-101"/>
    <use x="433.496094" xlink:href="#ArialMT-118"/>
    <use x="483.496094" xlink:href="#ArialMT-101"/>
    <use x="539.111328" xlink:href="#ArialMT-110"/>
    <use x="594.726562" xlink:href="#ArialMT-116"/>
    <use x="622.509766" xlink:href="#ArialMT-115"/>
   </g>
  </g>
 </g>
 <defs>
  <clipPath id="p27dcc54cbe">
   <rect height="434.88" width="558" x="80.626311" y="64.8"/>
  </clipPath>
 </defs>
</svg>
