<?xml version="1.0" encoding="utf-8" standalone="no"?>
<!DOCTYPE svg PUBLIC "-//W3C//DTD SVG 1.1//EN"
  "http://www.w3.org/Graphics/SVG/1.1/DTD/svg11.dtd">
<!-- Created with matplotlib (https://matplotlib.org/) -->
<svg height="379.585313pt" version="1.1" viewBox="0 0 592.582813 379.585313" width="592.582813pt" xmlns="http://www.w3.org/2000/svg" xmlns:xlink="http://www.w3.org/1999/xlink">
 <metadata>
  <rdf:RDF xmlns:cc="http://creativecommons.org/ns#" xmlns:dc="http://purl.org/dc/elements/1.1/" xmlns:rdf="http://www.w3.org/1999/02/22-rdf-syntax-ns#">
   <cc:Work>
    <dc:type rdf:resource="http://purl.org/dc/dcmitype/StillImage"/>
    <dc:date>2021-04-02T20:30:02.571548</dc:date>
    <dc:format>image/svg+xml</dc:format>
    <dc:creator>
     <cc:Agent>
      <dc:title>Matplotlib v3.3.4, https://matplotlib.org/</dc:title>
     </cc:Agent>
    </dc:creator>
   </cc:Work>
  </rdf:RDF>
 </metadata>
 <defs>
  <style type="text/css">*{stroke-linecap:butt;stroke-linejoin:round;}</style>
 </defs>
 <g id="figure_1">
  <g id="patch_1">
   <path d="M 0 379.585313 
L 592.582813 379.585313 
L 592.582813 0 
L 0 0 
z
" style="fill:none;"/>
  </g>
  <g id="axes_1">
   <g id="patch_2">
    <path d="M 27.382812 333.36 
L 585.382812 333.36 
L 585.382812 7.2 
L 27.382812 7.2 
z
" style="fill:#ffffff;"/>
   </g>
   <g id="patch_3">
    <path clip-path="url(#pfbb3b7862f)" d="M 52.746449 333.308237 
L 90.791903 333.308237 
L 90.791903 22.731429 
L 52.746449 22.731429 
z
" style="fill:#d3d3d3;opacity:0.4;"/>
   </g>
   <g id="matplotlib.axis_1">
    <g id="xtick_1">
     <g id="line2d_1">
      <defs>
       <path d="M 0 0 
L 0 -12 
" id="mcebe785fb2" style="stroke:#000000;stroke-width:0.8;"/>
      </defs>
      <g>
       <use style="stroke:#000000;stroke-width:0.8;" x="52.746449" xlink:href="#mcebe785fb2" y="333.36"/>
      </g>
     </g>
     <g id="line2d_2">
      <defs>
       <path d="M 0 0 
L 0 12 
" id="m4641405c96" style="stroke:#000000;stroke-width:0.8;"/>
      </defs>
      <g>
       <use style="stroke:#000000;stroke-width:0.8;" x="52.746449" xlink:href="#m4641405c96" y="7.2"/>
      </g>
     </g>
     <g id="text_1">
      <!-- 0.00 -->
      <g transform="translate(43.01598 346.517813)scale(0.1 -0.1)">
       <defs>
        <path d="M 4.15625 35.296875 
Q 4.15625 48 6.765625 55.734375 
Q 9.375 63.484375 14.515625 67.671875 
Q 19.671875 71.875 27.484375 71.875 
Q 33.25 71.875 37.59375 69.546875 
Q 41.9375 67.234375 44.765625 62.859375 
Q 47.609375 58.5 49.21875 52.21875 
Q 50.828125 45.953125 50.828125 35.296875 
Q 50.828125 22.703125 48.234375 14.96875 
Q 45.65625 7.234375 40.5 3 
Q 35.359375 -1.21875 27.484375 -1.21875 
Q 17.140625 -1.21875 11.234375 6.203125 
Q 4.15625 15.140625 4.15625 35.296875 
z
M 13.1875 35.296875 
Q 13.1875 17.671875 17.3125 11.828125 
Q 21.4375 6 27.484375 6 
Q 33.546875 6 37.671875 11.859375 
Q 41.796875 17.71875 41.796875 35.296875 
Q 41.796875 52.984375 37.671875 58.78125 
Q 33.546875 64.59375 27.390625 64.59375 
Q 21.34375 64.59375 17.71875 59.46875 
Q 13.1875 52.9375 13.1875 35.296875 
z
" id="ArialMT-48"/>
        <path d="M 9.078125 0 
L 9.078125 10.015625 
L 19.09375 10.015625 
L 19.09375 0 
z
" id="ArialMT-46"/>
       </defs>
       <use xlink:href="#ArialMT-48"/>
       <use x="55.615234" xlink:href="#ArialMT-46"/>
       <use x="83.398438" xlink:href="#ArialMT-48"/>
       <use x="139.013672" xlink:href="#ArialMT-48"/>
      </g>
     </g>
    </g>
    <g id="xtick_2">
     <g id="line2d_3">
      <g>
       <use style="stroke:#000000;stroke-width:0.8;" x="116.15554" xlink:href="#mcebe785fb2" y="333.36"/>
      </g>
     </g>
     <g id="line2d_4">
      <g>
       <use style="stroke:#000000;stroke-width:0.8;" x="116.15554" xlink:href="#m4641405c96" y="7.2"/>
      </g>
     </g>
     <g id="text_2">
      <!-- 0.25 -->
      <g transform="translate(106.425071 346.517813)scale(0.1 -0.1)">
       <defs>
        <path d="M 50.34375 8.453125 
L 50.34375 0 
L 3.03125 0 
Q 2.9375 3.171875 4.046875 6.109375 
Q 5.859375 10.9375 9.828125 15.625 
Q 13.8125 20.3125 21.34375 26.46875 
Q 33.015625 36.03125 37.109375 41.625 
Q 41.21875 47.21875 41.21875 52.203125 
Q 41.21875 57.421875 37.46875 61 
Q 33.734375 64.59375 27.734375 64.59375 
Q 21.390625 64.59375 17.578125 60.78125 
Q 13.765625 56.984375 13.71875 50.25 
L 4.6875 51.171875 
Q 5.609375 61.28125 11.65625 66.578125 
Q 17.71875 71.875 27.9375 71.875 
Q 38.234375 71.875 44.234375 66.15625 
Q 50.25 60.453125 50.25 52 
Q 50.25 47.703125 48.484375 43.546875 
Q 46.734375 39.40625 42.65625 34.8125 
Q 38.578125 30.21875 29.109375 22.21875 
Q 21.1875 15.578125 18.9375 13.203125 
Q 16.703125 10.84375 15.234375 8.453125 
z
" id="ArialMT-50"/>
        <path d="M 4.15625 18.75 
L 13.375 19.53125 
Q 14.40625 12.796875 18.140625 9.390625 
Q 21.875 6 27.15625 6 
Q 33.5 6 37.890625 10.78125 
Q 42.28125 15.578125 42.28125 23.484375 
Q 42.28125 31 38.0625 35.34375 
Q 33.84375 39.703125 27 39.703125 
Q 22.75 39.703125 19.328125 37.765625 
Q 15.921875 35.84375 13.96875 32.765625 
L 5.71875 33.84375 
L 12.640625 70.609375 
L 48.25 70.609375 
L 48.25 62.203125 
L 19.671875 62.203125 
L 15.828125 42.96875 
Q 22.265625 47.46875 29.34375 47.46875 
Q 38.71875 47.46875 45.15625 40.96875 
Q 51.609375 34.46875 51.609375 24.265625 
Q 51.609375 14.546875 45.953125 7.46875 
Q 39.0625 -1.21875 27.15625 -1.21875 
Q 17.390625 -1.21875 11.203125 4.25 
Q 5.03125 9.71875 4.15625 18.75 
z
" id="ArialMT-53"/>
       </defs>
       <use xlink:href="#ArialMT-48"/>
       <use x="55.615234" xlink:href="#ArialMT-46"/>
       <use x="83.398438" xlink:href="#ArialMT-50"/>
       <use x="139.013672" xlink:href="#ArialMT-53"/>
      </g>
     </g>
    </g>
    <g id="xtick_3">
     <g id="line2d_5">
      <g>
       <use style="stroke:#000000;stroke-width:0.8;" x="179.564631" xlink:href="#mcebe785fb2" y="333.36"/>
      </g>
     </g>
     <g id="line2d_6">
      <g>
       <use style="stroke:#000000;stroke-width:0.8;" x="179.564631" xlink:href="#m4641405c96" y="7.2"/>
      </g>
     </g>
     <g id="text_3">
      <!-- 0.50 -->
      <g transform="translate(169.834162 346.517813)scale(0.1 -0.1)">
       <use xlink:href="#ArialMT-48"/>
       <use x="55.615234" xlink:href="#ArialMT-46"/>
       <use x="83.398438" xlink:href="#ArialMT-53"/>
       <use x="139.013672" xlink:href="#ArialMT-48"/>
      </g>
     </g>
    </g>
    <g id="xtick_4">
     <g id="line2d_7">
      <g>
       <use style="stroke:#000000;stroke-width:0.8;" x="242.973722" xlink:href="#mcebe785fb2" y="333.36"/>
      </g>
     </g>
     <g id="line2d_8">
      <g>
       <use style="stroke:#000000;stroke-width:0.8;" x="242.973722" xlink:href="#m4641405c96" y="7.2"/>
      </g>
     </g>
     <g id="text_4">
      <!-- 0.75 -->
      <g transform="translate(233.243253 346.517813)scale(0.1 -0.1)">
       <defs>
        <path d="M 4.734375 62.203125 
L 4.734375 70.65625 
L 51.078125 70.65625 
L 51.078125 63.8125 
Q 44.234375 56.546875 37.515625 44.484375 
Q 30.8125 32.421875 27.15625 19.671875 
Q 24.515625 10.6875 23.78125 0 
L 14.75 0 
Q 14.890625 8.453125 18.0625 20.40625 
Q 21.234375 32.375 27.171875 43.484375 
Q 33.109375 54.59375 39.796875 62.203125 
z
" id="ArialMT-55"/>
       </defs>
       <use xlink:href="#ArialMT-48"/>
       <use x="55.615234" xlink:href="#ArialMT-46"/>
       <use x="83.398438" xlink:href="#ArialMT-55"/>
       <use x="139.013672" xlink:href="#ArialMT-53"/>
      </g>
     </g>
    </g>
    <g id="xtick_5">
     <g id="line2d_9">
      <g>
       <use style="stroke:#000000;stroke-width:0.8;" x="306.382812" xlink:href="#mcebe785fb2" y="333.36"/>
      </g>
     </g>
     <g id="line2d_10">
      <g>
       <use style="stroke:#000000;stroke-width:0.8;" x="306.382812" xlink:href="#m4641405c96" y="7.2"/>
      </g>
     </g>
     <g id="text_5">
      <!-- 1.00 -->
      <g transform="translate(296.652344 346.517813)scale(0.1 -0.1)">
       <defs>
        <path d="M 37.25 0 
L 28.46875 0 
L 28.46875 56 
Q 25.296875 52.984375 20.140625 49.953125 
Q 14.984375 46.921875 10.890625 45.40625 
L 10.890625 53.90625 
Q 18.265625 57.375 23.78125 62.296875 
Q 29.296875 67.234375 31.59375 71.875 
L 37.25 71.875 
z
" id="ArialMT-49"/>
       </defs>
       <use xlink:href="#ArialMT-49"/>
       <use x="55.615234" xlink:href="#ArialMT-46"/>
       <use x="83.398438" xlink:href="#ArialMT-48"/>
       <use x="139.013672" xlink:href="#ArialMT-48"/>
      </g>
     </g>
    </g>
    <g id="xtick_6">
     <g id="line2d_11">
      <g>
       <use style="stroke:#000000;stroke-width:0.8;" x="369.791903" xlink:href="#mcebe785fb2" y="333.36"/>
      </g>
     </g>
     <g id="line2d_12">
      <g>
       <use style="stroke:#000000;stroke-width:0.8;" x="369.791903" xlink:href="#m4641405c96" y="7.2"/>
      </g>
     </g>
     <g id="text_6">
      <!-- 1.25 -->
      <g transform="translate(360.061435 346.517813)scale(0.1 -0.1)">
       <use xlink:href="#ArialMT-49"/>
       <use x="55.615234" xlink:href="#ArialMT-46"/>
       <use x="83.398438" xlink:href="#ArialMT-50"/>
       <use x="139.013672" xlink:href="#ArialMT-53"/>
      </g>
     </g>
    </g>
    <g id="xtick_7">
     <g id="line2d_13">
      <g>
       <use style="stroke:#000000;stroke-width:0.8;" x="433.200994" xlink:href="#mcebe785fb2" y="333.36"/>
      </g>
     </g>
     <g id="line2d_14">
      <g>
       <use style="stroke:#000000;stroke-width:0.8;" x="433.200994" xlink:href="#m4641405c96" y="7.2"/>
      </g>
     </g>
     <g id="text_7">
      <!-- 1.50 -->
      <g transform="translate(423.470526 346.517813)scale(0.1 -0.1)">
       <use xlink:href="#ArialMT-49"/>
       <use x="55.615234" xlink:href="#ArialMT-46"/>
       <use x="83.398438" xlink:href="#ArialMT-53"/>
       <use x="139.013672" xlink:href="#ArialMT-48"/>
      </g>
     </g>
    </g>
    <g id="xtick_8">
     <g id="line2d_15">
      <g>
       <use style="stroke:#000000;stroke-width:0.8;" x="496.610085" xlink:href="#mcebe785fb2" y="333.36"/>
      </g>
     </g>
     <g id="line2d_16">
      <g>
       <use style="stroke:#000000;stroke-width:0.8;" x="496.610085" xlink:href="#m4641405c96" y="7.2"/>
      </g>
     </g>
     <g id="text_8">
      <!-- 1.75 -->
      <g transform="translate(486.879616 346.517813)scale(0.1 -0.1)">
       <use xlink:href="#ArialMT-49"/>
       <use x="55.615234" xlink:href="#ArialMT-46"/>
       <use x="83.398438" xlink:href="#ArialMT-55"/>
       <use x="139.013672" xlink:href="#ArialMT-53"/>
      </g>
     </g>
    </g>
    <g id="xtick_9">
     <g id="line2d_17">
      <g>
       <use style="stroke:#000000;stroke-width:0.8;" x="560.019176" xlink:href="#mcebe785fb2" y="333.36"/>
      </g>
     </g>
     <g id="line2d_18">
      <g>
       <use style="stroke:#000000;stroke-width:0.8;" x="560.019176" xlink:href="#m4641405c96" y="7.2"/>
      </g>
     </g>
     <g id="text_9">
      <!-- 2.00 -->
      <g transform="translate(550.288707 346.517813)scale(0.1 -0.1)">
       <use xlink:href="#ArialMT-50"/>
       <use x="55.615234" xlink:href="#ArialMT-46"/>
       <use x="83.398438" xlink:href="#ArialMT-48"/>
       <use x="139.013672" xlink:href="#ArialMT-48"/>
      </g>
     </g>
    </g>
    <g id="xtick_10">
     <g id="line2d_19">
      <defs>
       <path d="M 0 0 
L 0 -6 
" id="m8207ded16d" style="stroke:#000000;stroke-width:0.6;"/>
      </defs>
      <g>
       <use style="stroke:#000000;stroke-width:0.6;" x="27.382813" xlink:href="#m8207ded16d" y="333.36"/>
      </g>
     </g>
     <g id="line2d_20">
      <defs>
       <path d="M 0 0 
L 0 6 
" id="m1edccad3b9" style="stroke:#000000;stroke-width:0.6;"/>
      </defs>
      <g>
       <use style="stroke:#000000;stroke-width:0.6;" x="27.382813" xlink:href="#m1edccad3b9" y="7.2"/>
      </g>
     </g>
    </g>
    <g id="xtick_11">
     <g id="line2d_21">
      <g>
       <use style="stroke:#000000;stroke-width:0.6;" x="40.064631" xlink:href="#m8207ded16d" y="333.36"/>
      </g>
     </g>
     <g id="line2d_22">
      <g>
       <use style="stroke:#000000;stroke-width:0.6;" x="40.064631" xlink:href="#m1edccad3b9" y="7.2"/>
      </g>
     </g>
    </g>
    <g id="xtick_12">
     <g id="line2d_23">
      <g>
       <use style="stroke:#000000;stroke-width:0.6;" x="65.428267" xlink:href="#m8207ded16d" y="333.36"/>
      </g>
     </g>
     <g id="line2d_24">
      <g>
       <use style="stroke:#000000;stroke-width:0.6;" x="65.428267" xlink:href="#m1edccad3b9" y="7.2"/>
      </g>
     </g>
    </g>
    <g id="xtick_13">
     <g id="line2d_25">
      <g>
       <use style="stroke:#000000;stroke-width:0.6;" x="78.110085" xlink:href="#m8207ded16d" y="333.36"/>
      </g>
     </g>
     <g id="line2d_26">
      <g>
       <use style="stroke:#000000;stroke-width:0.6;" x="78.110085" xlink:href="#m1edccad3b9" y="7.2"/>
      </g>
     </g>
    </g>
    <g id="xtick_14">
     <g id="line2d_27">
      <g>
       <use style="stroke:#000000;stroke-width:0.6;" x="90.791903" xlink:href="#m8207ded16d" y="333.36"/>
      </g>
     </g>
     <g id="line2d_28">
      <g>
       <use style="stroke:#000000;stroke-width:0.6;" x="90.791903" xlink:href="#m1edccad3b9" y="7.2"/>
      </g>
     </g>
    </g>
    <g id="xtick_15">
     <g id="line2d_29">
      <g>
       <use style="stroke:#000000;stroke-width:0.6;" x="103.473722" xlink:href="#m8207ded16d" y="333.36"/>
      </g>
     </g>
     <g id="line2d_30">
      <g>
       <use style="stroke:#000000;stroke-width:0.6;" x="103.473722" xlink:href="#m1edccad3b9" y="7.2"/>
      </g>
     </g>
    </g>
    <g id="xtick_16">
     <g id="line2d_31">
      <g>
       <use style="stroke:#000000;stroke-width:0.6;" x="128.837358" xlink:href="#m8207ded16d" y="333.36"/>
      </g>
     </g>
     <g id="line2d_32">
      <g>
       <use style="stroke:#000000;stroke-width:0.6;" x="128.837358" xlink:href="#m1edccad3b9" y="7.2"/>
      </g>
     </g>
    </g>
    <g id="xtick_17">
     <g id="line2d_33">
      <g>
       <use style="stroke:#000000;stroke-width:0.6;" x="141.519176" xlink:href="#m8207ded16d" y="333.36"/>
      </g>
     </g>
     <g id="line2d_34">
      <g>
       <use style="stroke:#000000;stroke-width:0.6;" x="141.519176" xlink:href="#m1edccad3b9" y="7.2"/>
      </g>
     </g>
    </g>
    <g id="xtick_18">
     <g id="line2d_35">
      <g>
       <use style="stroke:#000000;stroke-width:0.6;" x="154.200994" xlink:href="#m8207ded16d" y="333.36"/>
      </g>
     </g>
     <g id="line2d_36">
      <g>
       <use style="stroke:#000000;stroke-width:0.6;" x="154.200994" xlink:href="#m1edccad3b9" y="7.2"/>
      </g>
     </g>
    </g>
    <g id="xtick_19">
     <g id="line2d_37">
      <g>
       <use style="stroke:#000000;stroke-width:0.6;" x="166.882812" xlink:href="#m8207ded16d" y="333.36"/>
      </g>
     </g>
     <g id="line2d_38">
      <g>
       <use style="stroke:#000000;stroke-width:0.6;" x="166.882812" xlink:href="#m1edccad3b9" y="7.2"/>
      </g>
     </g>
    </g>
    <g id="xtick_20">
     <g id="line2d_39">
      <g>
       <use style="stroke:#000000;stroke-width:0.6;" x="192.246449" xlink:href="#m8207ded16d" y="333.36"/>
      </g>
     </g>
     <g id="line2d_40">
      <g>
       <use style="stroke:#000000;stroke-width:0.6;" x="192.246449" xlink:href="#m1edccad3b9" y="7.2"/>
      </g>
     </g>
    </g>
    <g id="xtick_21">
     <g id="line2d_41">
      <g>
       <use style="stroke:#000000;stroke-width:0.6;" x="204.928267" xlink:href="#m8207ded16d" y="333.36"/>
      </g>
     </g>
     <g id="line2d_42">
      <g>
       <use style="stroke:#000000;stroke-width:0.6;" x="204.928267" xlink:href="#m1edccad3b9" y="7.2"/>
      </g>
     </g>
    </g>
    <g id="xtick_22">
     <g id="line2d_43">
      <g>
       <use style="stroke:#000000;stroke-width:0.6;" x="217.610085" xlink:href="#m8207ded16d" y="333.36"/>
      </g>
     </g>
     <g id="line2d_44">
      <g>
       <use style="stroke:#000000;stroke-width:0.6;" x="217.610085" xlink:href="#m1edccad3b9" y="7.2"/>
      </g>
     </g>
    </g>
    <g id="xtick_23">
     <g id="line2d_45">
      <g>
       <use style="stroke:#000000;stroke-width:0.6;" x="230.291903" xlink:href="#m8207ded16d" y="333.36"/>
      </g>
     </g>
     <g id="line2d_46">
      <g>
       <use style="stroke:#000000;stroke-width:0.6;" x="230.291903" xlink:href="#m1edccad3b9" y="7.2"/>
      </g>
     </g>
    </g>
    <g id="xtick_24">
     <g id="line2d_47">
      <g>
       <use style="stroke:#000000;stroke-width:0.6;" x="255.65554" xlink:href="#m8207ded16d" y="333.36"/>
      </g>
     </g>
     <g id="line2d_48">
      <g>
       <use style="stroke:#000000;stroke-width:0.6;" x="255.65554" xlink:href="#m1edccad3b9" y="7.2"/>
      </g>
     </g>
    </g>
    <g id="xtick_25">
     <g id="line2d_49">
      <g>
       <use style="stroke:#000000;stroke-width:0.6;" x="268.337358" xlink:href="#m8207ded16d" y="333.36"/>
      </g>
     </g>
     <g id="line2d_50">
      <g>
       <use style="stroke:#000000;stroke-width:0.6;" x="268.337358" xlink:href="#m1edccad3b9" y="7.2"/>
      </g>
     </g>
    </g>
    <g id="xtick_26">
     <g id="line2d_51">
      <g>
       <use style="stroke:#000000;stroke-width:0.6;" x="281.019176" xlink:href="#m8207ded16d" y="333.36"/>
      </g>
     </g>
     <g id="line2d_52">
      <g>
       <use style="stroke:#000000;stroke-width:0.6;" x="281.019176" xlink:href="#m1edccad3b9" y="7.2"/>
      </g>
     </g>
    </g>
    <g id="xtick_27">
     <g id="line2d_53">
      <g>
       <use style="stroke:#000000;stroke-width:0.6;" x="293.700994" xlink:href="#m8207ded16d" y="333.36"/>
      </g>
     </g>
     <g id="line2d_54">
      <g>
       <use style="stroke:#000000;stroke-width:0.6;" x="293.700994" xlink:href="#m1edccad3b9" y="7.2"/>
      </g>
     </g>
    </g>
    <g id="xtick_28">
     <g id="line2d_55">
      <g>
       <use style="stroke:#000000;stroke-width:0.6;" x="319.064631" xlink:href="#m8207ded16d" y="333.36"/>
      </g>
     </g>
     <g id="line2d_56">
      <g>
       <use style="stroke:#000000;stroke-width:0.6;" x="319.064631" xlink:href="#m1edccad3b9" y="7.2"/>
      </g>
     </g>
    </g>
    <g id="xtick_29">
     <g id="line2d_57">
      <g>
       <use style="stroke:#000000;stroke-width:0.6;" x="331.746449" xlink:href="#m8207ded16d" y="333.36"/>
      </g>
     </g>
     <g id="line2d_58">
      <g>
       <use style="stroke:#000000;stroke-width:0.6;" x="331.746449" xlink:href="#m1edccad3b9" y="7.2"/>
      </g>
     </g>
    </g>
    <g id="xtick_30">
     <g id="line2d_59">
      <g>
       <use style="stroke:#000000;stroke-width:0.6;" x="344.428267" xlink:href="#m8207ded16d" y="333.36"/>
      </g>
     </g>
     <g id="line2d_60">
      <g>
       <use style="stroke:#000000;stroke-width:0.6;" x="344.428267" xlink:href="#m1edccad3b9" y="7.2"/>
      </g>
     </g>
    </g>
    <g id="xtick_31">
     <g id="line2d_61">
      <g>
       <use style="stroke:#000000;stroke-width:0.6;" x="357.110085" xlink:href="#m8207ded16d" y="333.36"/>
      </g>
     </g>
     <g id="line2d_62">
      <g>
       <use style="stroke:#000000;stroke-width:0.6;" x="357.110085" xlink:href="#m1edccad3b9" y="7.2"/>
      </g>
     </g>
    </g>
    <g id="xtick_32">
     <g id="line2d_63">
      <g>
       <use style="stroke:#000000;stroke-width:0.6;" x="382.473722" xlink:href="#m8207ded16d" y="333.36"/>
      </g>
     </g>
     <g id="line2d_64">
      <g>
       <use style="stroke:#000000;stroke-width:0.6;" x="382.473722" xlink:href="#m1edccad3b9" y="7.2"/>
      </g>
     </g>
    </g>
    <g id="xtick_33">
     <g id="line2d_65">
      <g>
       <use style="stroke:#000000;stroke-width:0.6;" x="395.15554" xlink:href="#m8207ded16d" y="333.36"/>
      </g>
     </g>
     <g id="line2d_66">
      <g>
       <use style="stroke:#000000;stroke-width:0.6;" x="395.15554" xlink:href="#m1edccad3b9" y="7.2"/>
      </g>
     </g>
    </g>
    <g id="xtick_34">
     <g id="line2d_67">
      <g>
       <use style="stroke:#000000;stroke-width:0.6;" x="407.837358" xlink:href="#m8207ded16d" y="333.36"/>
      </g>
     </g>
     <g id="line2d_68">
      <g>
       <use style="stroke:#000000;stroke-width:0.6;" x="407.837358" xlink:href="#m1edccad3b9" y="7.2"/>
      </g>
     </g>
    </g>
    <g id="xtick_35">
     <g id="line2d_69">
      <g>
       <use style="stroke:#000000;stroke-width:0.6;" x="420.519176" xlink:href="#m8207ded16d" y="333.36"/>
      </g>
     </g>
     <g id="line2d_70">
      <g>
       <use style="stroke:#000000;stroke-width:0.6;" x="420.519176" xlink:href="#m1edccad3b9" y="7.2"/>
      </g>
     </g>
    </g>
    <g id="xtick_36">
     <g id="line2d_71">
      <g>
       <use style="stroke:#000000;stroke-width:0.6;" x="445.882812" xlink:href="#m8207ded16d" y="333.36"/>
      </g>
     </g>
     <g id="line2d_72">
      <g>
       <use style="stroke:#000000;stroke-width:0.6;" x="445.882812" xlink:href="#m1edccad3b9" y="7.2"/>
      </g>
     </g>
    </g>
    <g id="xtick_37">
     <g id="line2d_73">
      <g>
       <use style="stroke:#000000;stroke-width:0.6;" x="458.564631" xlink:href="#m8207ded16d" y="333.36"/>
      </g>
     </g>
     <g id="line2d_74">
      <g>
       <use style="stroke:#000000;stroke-width:0.6;" x="458.564631" xlink:href="#m1edccad3b9" y="7.2"/>
      </g>
     </g>
    </g>
    <g id="xtick_38">
     <g id="line2d_75">
      <g>
       <use style="stroke:#000000;stroke-width:0.6;" x="471.246449" xlink:href="#m8207ded16d" y="333.36"/>
      </g>
     </g>
     <g id="line2d_76">
      <g>
       <use style="stroke:#000000;stroke-width:0.6;" x="471.246449" xlink:href="#m1edccad3b9" y="7.2"/>
      </g>
     </g>
    </g>
    <g id="xtick_39">
     <g id="line2d_77">
      <g>
       <use style="stroke:#000000;stroke-width:0.6;" x="483.928267" xlink:href="#m8207ded16d" y="333.36"/>
      </g>
     </g>
     <g id="line2d_78">
      <g>
       <use style="stroke:#000000;stroke-width:0.6;" x="483.928267" xlink:href="#m1edccad3b9" y="7.2"/>
      </g>
     </g>
    </g>
    <g id="xtick_40">
     <g id="line2d_79">
      <g>
       <use style="stroke:#000000;stroke-width:0.6;" x="509.291903" xlink:href="#m8207ded16d" y="333.36"/>
      </g>
     </g>
     <g id="line2d_80">
      <g>
       <use style="stroke:#000000;stroke-width:0.6;" x="509.291903" xlink:href="#m1edccad3b9" y="7.2"/>
      </g>
     </g>
    </g>
    <g id="xtick_41">
     <g id="line2d_81">
      <g>
       <use style="stroke:#000000;stroke-width:0.6;" x="521.973722" xlink:href="#m8207ded16d" y="333.36"/>
      </g>
     </g>
     <g id="line2d_82">
      <g>
       <use style="stroke:#000000;stroke-width:0.6;" x="521.973722" xlink:href="#m1edccad3b9" y="7.2"/>
      </g>
     </g>
    </g>
    <g id="xtick_42">
     <g id="line2d_83">
      <g>
       <use style="stroke:#000000;stroke-width:0.6;" x="534.65554" xlink:href="#m8207ded16d" y="333.36"/>
      </g>
     </g>
     <g id="line2d_84">
      <g>
       <use style="stroke:#000000;stroke-width:0.6;" x="534.65554" xlink:href="#m1edccad3b9" y="7.2"/>
      </g>
     </g>
    </g>
    <g id="xtick_43">
     <g id="line2d_85">
      <g>
       <use style="stroke:#000000;stroke-width:0.6;" x="547.337358" xlink:href="#m8207ded16d" y="333.36"/>
      </g>
     </g>
     <g id="line2d_86">
      <g>
       <use style="stroke:#000000;stroke-width:0.6;" x="547.337358" xlink:href="#m1edccad3b9" y="7.2"/>
      </g>
     </g>
    </g>
    <g id="xtick_44">
     <g id="line2d_87">
      <g>
       <use style="stroke:#000000;stroke-width:0.6;" x="572.700994" xlink:href="#m8207ded16d" y="333.36"/>
      </g>
     </g>
     <g id="line2d_88">
      <g>
       <use style="stroke:#000000;stroke-width:0.6;" x="572.700994" xlink:href="#m1edccad3b9" y="7.2"/>
      </g>
     </g>
    </g>
    <g id="text_10">
     <!-- $p_t \pi^+\pi^-\pi^+\pi^-$,GeV -->
     <g transform="translate(463.582812 368.045313)scale(0.14 -0.14)">
      <defs>
       <path d="M 6.59375 -19.875 
L 6.59375 51.859375 
L 14.59375 51.859375 
L 14.59375 45.125 
Q 17.4375 49.078125 21 51.046875 
Q 24.5625 53.03125 29.640625 53.03125 
Q 36.28125 53.03125 41.359375 49.609375 
Q 46.4375 46.1875 49.015625 39.953125 
Q 51.609375 33.734375 51.609375 26.3125 
Q 51.609375 18.359375 48.75 11.984375 
Q 45.90625 5.609375 40.453125 2.21875 
Q 35.015625 -1.171875 29 -1.171875 
Q 24.609375 -1.171875 21.109375 0.6875 
Q 17.625 2.546875 15.375 5.375 
L 15.375 -19.875 
z
M 14.546875 25.640625 
Q 14.546875 15.625 18.59375 10.84375 
Q 22.65625 6.0625 28.421875 6.0625 
Q 34.28125 6.0625 38.453125 11.015625 
Q 42.625 15.96875 42.625 26.375 
Q 42.625 36.28125 38.546875 41.203125 
Q 34.46875 46.140625 28.8125 46.140625 
Q 23.1875 46.140625 18.859375 40.890625 
Q 14.546875 35.640625 14.546875 25.640625 
z
" id="ArialMT-112"/>
       <path d="M 25.78125 7.859375 
L 27.046875 0.09375 
Q 23.34375 -0.6875 20.40625 -0.6875 
Q 15.625 -0.6875 12.984375 0.828125 
Q 10.359375 2.34375 9.28125 4.8125 
Q 8.203125 7.28125 8.203125 15.1875 
L 8.203125 45.015625 
L 1.765625 45.015625 
L 1.765625 51.859375 
L 8.203125 51.859375 
L 8.203125 64.703125 
L 16.9375 69.96875 
L 16.9375 51.859375 
L 25.78125 51.859375 
L 25.78125 45.015625 
L 16.9375 45.015625 
L 16.9375 14.703125 
Q 16.9375 10.9375 17.40625 9.859375 
Q 17.875 8.796875 18.921875 8.15625 
Q 19.96875 7.515625 21.921875 7.515625 
Q 23.390625 7.515625 25.78125 7.859375 
z
" id="ArialMT-116"/>
       <path d="M 24.65625 44.734375 
L 24.65625 0 
L 15.875 0 
L 15.875 44.734375 
L 2.203125 44.734375 
L 2.203125 51.859375 
L 66.84375 51.859375 
L 66.84375 44.734375 
L 55.03125 44.734375 
L 55.03125 0 
L 46.234375 0 
L 46.234375 44.734375 
z
" id="ArialMT-960"/>
       <path d="M 25.046875 11.578125 
L 25.046875 31.203125 
L 5.5625 31.203125 
L 5.5625 39.40625 
L 25.046875 39.40625 
L 25.046875 58.890625 
L 33.34375 58.890625 
L 33.34375 39.40625 
L 52.828125 39.40625 
L 52.828125 31.203125 
L 33.34375 31.203125 
L 33.34375 11.578125 
z
" id="ArialMT-43"/>
       <path d="M 52.828125 31.203125 
L 5.5625 31.203125 
L 5.5625 39.40625 
L 52.828125 39.40625 
z
" id="ArialMT-8722"/>
       <path d="M 8.890625 0 
L 8.890625 10.015625 
L 18.890625 10.015625 
L 18.890625 0 
Q 18.890625 -5.515625 16.9375 -8.90625 
Q 14.984375 -12.3125 10.75 -14.15625 
L 8.296875 -10.40625 
Q 11.078125 -9.1875 12.390625 -6.8125 
Q 13.71875 -4.4375 13.875 0 
z
" id="ArialMT-44"/>
       <path d="M 41.21875 28.078125 
L 41.21875 36.46875 
L 71.53125 36.53125 
L 71.53125 9.96875 
Q 64.546875 4.390625 57.125 1.578125 
Q 49.703125 -1.21875 41.890625 -1.21875 
Q 31.34375 -1.21875 22.71875 3.296875 
Q 14.109375 7.8125 9.71875 16.359375 
Q 5.328125 24.90625 5.328125 35.453125 
Q 5.328125 45.90625 9.6875 54.953125 
Q 14.0625 64.015625 22.265625 68.40625 
Q 30.46875 72.796875 41.15625 72.796875 
Q 48.921875 72.796875 55.1875 70.28125 
Q 61.46875 67.78125 65.03125 63.28125 
Q 68.609375 58.796875 70.453125 51.5625 
L 61.921875 49.21875 
Q 60.296875 54.6875 57.90625 57.8125 
Q 55.515625 60.9375 51.0625 62.8125 
Q 46.625 64.703125 41.21875 64.703125 
Q 34.71875 64.703125 29.984375 62.71875 
Q 25.25 60.75 22.34375 57.515625 
Q 19.4375 54.296875 17.828125 50.4375 
Q 15.09375 43.796875 15.09375 36.03125 
Q 15.09375 26.46875 18.390625 20.015625 
Q 21.6875 13.578125 27.984375 10.453125 
Q 34.28125 7.328125 41.359375 7.328125 
Q 47.515625 7.328125 53.375 9.6875 
Q 59.234375 12.0625 62.25 14.75 
L 62.25 28.078125 
z
" id="ArialMT-71"/>
       <path d="M 42.09375 16.703125 
L 51.171875 15.578125 
Q 49.03125 7.625 43.21875 3.21875 
Q 37.40625 -1.171875 28.375 -1.171875 
Q 17 -1.171875 10.328125 5.828125 
Q 3.65625 12.84375 3.65625 25.484375 
Q 3.65625 38.578125 10.390625 45.796875 
Q 17.140625 53.03125 27.875 53.03125 
Q 38.28125 53.03125 44.875 45.953125 
Q 51.46875 38.875 51.46875 26.03125 
Q 51.46875 25.25 51.421875 23.6875 
L 12.75 23.6875 
Q 13.234375 15.140625 17.578125 10.59375 
Q 21.921875 6.0625 28.421875 6.0625 
Q 33.25 6.0625 36.671875 8.59375 
Q 40.09375 11.140625 42.09375 16.703125 
z
M 13.234375 30.90625 
L 42.1875 30.90625 
Q 41.609375 37.453125 38.875 40.71875 
Q 34.671875 45.796875 27.984375 45.796875 
Q 21.921875 45.796875 17.796875 41.75 
Q 13.671875 37.703125 13.234375 30.90625 
z
" id="ArialMT-101"/>
       <path d="M 28.171875 0 
L 0.4375 71.578125 
L 10.6875 71.578125 
L 29.296875 19.578125 
Q 31.546875 13.328125 33.0625 7.859375 
Q 34.71875 13.71875 36.921875 19.578125 
L 56.25 71.578125 
L 65.921875 71.578125 
L 37.890625 0 
z
" id="ArialMT-86"/>
      </defs>
      <use transform="translate(0 0.082813)" xlink:href="#ArialMT-112"/>
      <use transform="translate(57.357578 -29.785937)scale(0.7)" xlink:href="#ArialMT-116"/>
      <use transform="translate(81.783945 0.082813)" xlink:href="#ArialMT-960"/>
      <use transform="translate(164.182539 69.776563)scale(0.7)" xlink:href="#ArialMT-43"/>
      <use transform="translate(221.70168 0.082813)" xlink:href="#ArialMT-960"/>
      <use transform="translate(304.100273 69.776563)scale(0.7)" xlink:href="#ArialMT-8722"/>
      <use transform="translate(361.619414 0.082813)" xlink:href="#ArialMT-960"/>
      <use transform="translate(444.018008 69.776563)scale(0.7)" xlink:href="#ArialMT-43"/>
      <use transform="translate(501.537148 0.082813)" xlink:href="#ArialMT-960"/>
      <use transform="translate(583.935742 69.776563)scale(0.7)" xlink:href="#ArialMT-8722"/>
      <use transform="translate(641.454883 0.082813)" xlink:href="#ArialMT-44"/>
      <use transform="translate(669.238086 0.082813)" xlink:href="#ArialMT-71"/>
      <use transform="translate(747.021289 0.082813)" xlink:href="#ArialMT-101"/>
      <use transform="translate(802.636523 0.082813)" xlink:href="#ArialMT-86"/>
     </g>
    </g>
   </g>
   <g id="matplotlib.axis_2">
    <g id="ytick_1">
     <g id="line2d_89">
      <defs>
       <path d="M 0 0 
L 12 0 
" id="m4ba4c060e0" style="stroke:#000000;stroke-width:0.8;"/>
      </defs>
      <g>
       <use style="stroke:#000000;stroke-width:0.8;" x="27.382812" xlink:href="#m4ba4c060e0" y="333.36"/>
      </g>
     </g>
     <g id="line2d_90">
      <defs>
       <path d="M 0 0 
L -12 0 
" id="ma845d9bb59" style="stroke:#000000;stroke-width:0.8;"/>
      </defs>
      <g>
       <use style="stroke:#000000;stroke-width:0.8;" x="585.382812" xlink:href="#ma845d9bb59" y="333.36"/>
      </g>
     </g>
     <g id="text_11">
      <!-- 0 -->
      <g transform="translate(18.321875 336.938906)scale(0.1 -0.1)">
       <use xlink:href="#ArialMT-48"/>
      </g>
     </g>
    </g>
    <g id="ytick_2">
     <g id="line2d_91">
      <g>
       <use style="stroke:#000000;stroke-width:0.8;" x="27.382812" xlink:href="#m4ba4c060e0" y="264.342931"/>
      </g>
     </g>
     <g id="line2d_92">
      <g>
       <use style="stroke:#000000;stroke-width:0.8;" x="585.382812" xlink:href="#ma845d9bb59" y="264.342931"/>
      </g>
     </g>
     <g id="text_12">
      <!-- 200 -->
      <g transform="translate(7.2 267.921838)scale(0.1 -0.1)">
       <use xlink:href="#ArialMT-50"/>
       <use x="55.615234" xlink:href="#ArialMT-48"/>
       <use x="111.230469" xlink:href="#ArialMT-48"/>
      </g>
     </g>
    </g>
    <g id="ytick_3">
     <g id="line2d_93">
      <g>
       <use style="stroke:#000000;stroke-width:0.8;" x="27.382812" xlink:href="#m4ba4c060e0" y="195.325863"/>
      </g>
     </g>
     <g id="line2d_94">
      <g>
       <use style="stroke:#000000;stroke-width:0.8;" x="585.382812" xlink:href="#ma845d9bb59" y="195.325863"/>
      </g>
     </g>
     <g id="text_13">
      <!-- 400 -->
      <g transform="translate(7.2 198.904769)scale(0.1 -0.1)">
       <defs>
        <path d="M 32.328125 0 
L 32.328125 17.140625 
L 1.265625 17.140625 
L 1.265625 25.203125 
L 33.9375 71.578125 
L 41.109375 71.578125 
L 41.109375 25.203125 
L 50.78125 25.203125 
L 50.78125 17.140625 
L 41.109375 17.140625 
L 41.109375 0 
z
M 32.328125 25.203125 
L 32.328125 57.46875 
L 9.90625 25.203125 
z
" id="ArialMT-52"/>
       </defs>
       <use xlink:href="#ArialMT-52"/>
       <use x="55.615234" xlink:href="#ArialMT-48"/>
       <use x="111.230469" xlink:href="#ArialMT-48"/>
      </g>
     </g>
    </g>
    <g id="ytick_4">
     <g id="line2d_95">
      <g>
       <use style="stroke:#000000;stroke-width:0.8;" x="27.382812" xlink:href="#m4ba4c060e0" y="126.308794"/>
      </g>
     </g>
     <g id="line2d_96">
      <g>
       <use style="stroke:#000000;stroke-width:0.8;" x="585.382812" xlink:href="#ma845d9bb59" y="126.308794"/>
      </g>
     </g>
     <g id="text_14">
      <!-- 600 -->
      <g transform="translate(7.2 129.8877)scale(0.1 -0.1)">
       <defs>
        <path d="M 49.75 54.046875 
L 41.015625 53.375 
Q 39.84375 58.546875 37.703125 60.890625 
Q 34.125 64.65625 28.90625 64.65625 
Q 24.703125 64.65625 21.53125 62.3125 
Q 17.390625 59.28125 14.984375 53.46875 
Q 12.59375 47.65625 12.5 36.921875 
Q 15.671875 41.75 20.265625 44.09375 
Q 24.859375 46.4375 29.890625 46.4375 
Q 38.671875 46.4375 44.84375 39.96875 
Q 51.03125 33.5 51.03125 23.25 
Q 51.03125 16.5 48.125 10.71875 
Q 45.21875 4.9375 40.140625 1.859375 
Q 35.0625 -1.21875 28.609375 -1.21875 
Q 17.625 -1.21875 10.6875 6.859375 
Q 3.765625 14.9375 3.765625 33.5 
Q 3.765625 54.25 11.421875 63.671875 
Q 18.109375 71.875 29.4375 71.875 
Q 37.890625 71.875 43.28125 67.140625 
Q 48.6875 62.40625 49.75 54.046875 
z
M 13.875 23.1875 
Q 13.875 18.65625 15.796875 14.5 
Q 17.71875 10.359375 21.1875 8.171875 
Q 24.65625 6 28.46875 6 
Q 34.03125 6 38.03125 10.484375 
Q 42.046875 14.984375 42.046875 22.703125 
Q 42.046875 30.125 38.078125 34.390625 
Q 34.125 38.671875 28.125 38.671875 
Q 22.171875 38.671875 18.015625 34.390625 
Q 13.875 30.125 13.875 23.1875 
z
" id="ArialMT-54"/>
       </defs>
       <use xlink:href="#ArialMT-54"/>
       <use x="55.615234" xlink:href="#ArialMT-48"/>
       <use x="111.230469" xlink:href="#ArialMT-48"/>
      </g>
     </g>
    </g>
    <g id="ytick_5">
     <g id="line2d_97">
      <g>
       <use style="stroke:#000000;stroke-width:0.8;" x="27.382812" xlink:href="#m4ba4c060e0" y="57.291726"/>
      </g>
     </g>
     <g id="line2d_98">
      <g>
       <use style="stroke:#000000;stroke-width:0.8;" x="585.382812" xlink:href="#ma845d9bb59" y="57.291726"/>
      </g>
     </g>
     <g id="text_15">
      <!-- 800 -->
      <g transform="translate(7.2 60.870632)scale(0.1 -0.1)">
       <defs>
        <path d="M 17.671875 38.8125 
Q 12.203125 40.828125 9.5625 44.53125 
Q 6.9375 48.25 6.9375 53.421875 
Q 6.9375 61.234375 12.546875 66.546875 
Q 18.171875 71.875 27.484375 71.875 
Q 36.859375 71.875 42.578125 66.421875 
Q 48.296875 60.984375 48.296875 53.171875 
Q 48.296875 48.1875 45.671875 44.5 
Q 43.0625 40.828125 37.75 38.8125 
Q 44.34375 36.671875 47.78125 31.875 
Q 51.21875 27.09375 51.21875 20.453125 
Q 51.21875 11.28125 44.71875 5.03125 
Q 38.234375 -1.21875 27.640625 -1.21875 
Q 17.046875 -1.21875 10.546875 5.046875 
Q 4.046875 11.328125 4.046875 20.703125 
Q 4.046875 27.6875 7.59375 32.390625 
Q 11.140625 37.109375 17.671875 38.8125 
z
M 15.921875 53.71875 
Q 15.921875 48.640625 19.1875 45.40625 
Q 22.46875 42.1875 27.6875 42.1875 
Q 32.765625 42.1875 36.015625 45.375 
Q 39.265625 48.578125 39.265625 53.21875 
Q 39.265625 58.0625 35.90625 61.359375 
Q 32.5625 64.65625 27.59375 64.65625 
Q 22.5625 64.65625 19.234375 61.421875 
Q 15.921875 58.203125 15.921875 53.71875 
z
M 13.09375 20.65625 
Q 13.09375 16.890625 14.875 13.375 
Q 16.65625 9.859375 20.171875 7.921875 
Q 23.6875 6 27.734375 6 
Q 34.03125 6 38.125 10.046875 
Q 42.234375 14.109375 42.234375 20.359375 
Q 42.234375 26.703125 38.015625 30.859375 
Q 33.796875 35.015625 27.4375 35.015625 
Q 21.234375 35.015625 17.15625 30.90625 
Q 13.09375 26.8125 13.09375 20.65625 
z
" id="ArialMT-56"/>
       </defs>
       <use xlink:href="#ArialMT-56"/>
       <use x="55.615234" xlink:href="#ArialMT-48"/>
       <use x="111.230469" xlink:href="#ArialMT-48"/>
      </g>
     </g>
    </g>
    <g id="ytick_6">
     <g id="line2d_99">
      <defs>
       <path d="M 0 0 
L 6 0 
" id="m9346edff70" style="stroke:#000000;stroke-width:0.6;"/>
      </defs>
      <g>
       <use style="stroke:#000000;stroke-width:0.6;" x="27.382812" xlink:href="#m9346edff70" y="316.105733"/>
      </g>
     </g>
     <g id="line2d_100">
      <defs>
       <path d="M 0 0 
L -6 0 
" id="m38d91b4bc5" style="stroke:#000000;stroke-width:0.6;"/>
      </defs>
      <g>
       <use style="stroke:#000000;stroke-width:0.6;" x="585.382812" xlink:href="#m38d91b4bc5" y="316.105733"/>
      </g>
     </g>
    </g>
    <g id="ytick_7">
     <g id="line2d_101">
      <g>
       <use style="stroke:#000000;stroke-width:0.6;" x="27.382812" xlink:href="#m9346edff70" y="298.851466"/>
      </g>
     </g>
     <g id="line2d_102">
      <g>
       <use style="stroke:#000000;stroke-width:0.6;" x="585.382812" xlink:href="#m38d91b4bc5" y="298.851466"/>
      </g>
     </g>
    </g>
    <g id="ytick_8">
     <g id="line2d_103">
      <g>
       <use style="stroke:#000000;stroke-width:0.6;" x="27.382812" xlink:href="#m9346edff70" y="281.597199"/>
      </g>
     </g>
     <g id="line2d_104">
      <g>
       <use style="stroke:#000000;stroke-width:0.6;" x="585.382812" xlink:href="#m38d91b4bc5" y="281.597199"/>
      </g>
     </g>
    </g>
    <g id="ytick_9">
     <g id="line2d_105">
      <g>
       <use style="stroke:#000000;stroke-width:0.6;" x="27.382812" xlink:href="#m9346edff70" y="247.088664"/>
      </g>
     </g>
     <g id="line2d_106">
      <g>
       <use style="stroke:#000000;stroke-width:0.6;" x="585.382812" xlink:href="#m38d91b4bc5" y="247.088664"/>
      </g>
     </g>
    </g>
    <g id="ytick_10">
     <g id="line2d_107">
      <g>
       <use style="stroke:#000000;stroke-width:0.6;" x="27.382812" xlink:href="#m9346edff70" y="229.834397"/>
      </g>
     </g>
     <g id="line2d_108">
      <g>
       <use style="stroke:#000000;stroke-width:0.6;" x="585.382812" xlink:href="#m38d91b4bc5" y="229.834397"/>
      </g>
     </g>
    </g>
    <g id="ytick_11">
     <g id="line2d_109">
      <g>
       <use style="stroke:#000000;stroke-width:0.6;" x="27.382812" xlink:href="#m9346edff70" y="212.58013"/>
      </g>
     </g>
     <g id="line2d_110">
      <g>
       <use style="stroke:#000000;stroke-width:0.6;" x="585.382812" xlink:href="#m38d91b4bc5" y="212.58013"/>
      </g>
     </g>
    </g>
    <g id="ytick_12">
     <g id="line2d_111">
      <g>
       <use style="stroke:#000000;stroke-width:0.6;" x="27.382812" xlink:href="#m9346edff70" y="178.071596"/>
      </g>
     </g>
     <g id="line2d_112">
      <g>
       <use style="stroke:#000000;stroke-width:0.6;" x="585.382812" xlink:href="#m38d91b4bc5" y="178.071596"/>
      </g>
     </g>
    </g>
    <g id="ytick_13">
     <g id="line2d_113">
      <g>
       <use style="stroke:#000000;stroke-width:0.6;" x="27.382812" xlink:href="#m9346edff70" y="160.817329"/>
      </g>
     </g>
     <g id="line2d_114">
      <g>
       <use style="stroke:#000000;stroke-width:0.6;" x="585.382812" xlink:href="#m38d91b4bc5" y="160.817329"/>
      </g>
     </g>
    </g>
    <g id="ytick_14">
     <g id="line2d_115">
      <g>
       <use style="stroke:#000000;stroke-width:0.6;" x="27.382812" xlink:href="#m9346edff70" y="143.563061"/>
      </g>
     </g>
     <g id="line2d_116">
      <g>
       <use style="stroke:#000000;stroke-width:0.6;" x="585.382812" xlink:href="#m38d91b4bc5" y="143.563061"/>
      </g>
     </g>
    </g>
    <g id="ytick_15">
     <g id="line2d_117">
      <g>
       <use style="stroke:#000000;stroke-width:0.6;" x="27.382812" xlink:href="#m9346edff70" y="109.054527"/>
      </g>
     </g>
     <g id="line2d_118">
      <g>
       <use style="stroke:#000000;stroke-width:0.6;" x="585.382812" xlink:href="#m38d91b4bc5" y="109.054527"/>
      </g>
     </g>
    </g>
    <g id="ytick_16">
     <g id="line2d_119">
      <g>
       <use style="stroke:#000000;stroke-width:0.6;" x="27.382812" xlink:href="#m9346edff70" y="91.80026"/>
      </g>
     </g>
     <g id="line2d_120">
      <g>
       <use style="stroke:#000000;stroke-width:0.6;" x="585.382812" xlink:href="#m38d91b4bc5" y="91.80026"/>
      </g>
     </g>
    </g>
    <g id="ytick_17">
     <g id="line2d_121">
      <g>
       <use style="stroke:#000000;stroke-width:0.6;" x="27.382812" xlink:href="#m9346edff70" y="74.545993"/>
      </g>
     </g>
     <g id="line2d_122">
      <g>
       <use style="stroke:#000000;stroke-width:0.6;" x="585.382812" xlink:href="#m38d91b4bc5" y="74.545993"/>
      </g>
     </g>
    </g>
    <g id="ytick_18">
     <g id="line2d_123">
      <g>
       <use style="stroke:#000000;stroke-width:0.6;" x="27.382812" xlink:href="#m9346edff70" y="40.037459"/>
      </g>
     </g>
     <g id="line2d_124">
      <g>
       <use style="stroke:#000000;stroke-width:0.6;" x="585.382812" xlink:href="#m38d91b4bc5" y="40.037459"/>
      </g>
     </g>
    </g>
    <g id="ytick_19">
     <g id="line2d_125">
      <g>
       <use style="stroke:#000000;stroke-width:0.6;" x="27.382812" xlink:href="#m9346edff70" y="22.783191"/>
      </g>
     </g>
     <g id="line2d_126">
      <g>
       <use style="stroke:#000000;stroke-width:0.6;" x="585.382812" xlink:href="#m38d91b4bc5" y="22.783191"/>
      </g>
     </g>
    </g>
   </g>
   <g id="patch_4">
    <path clip-path="url(#pfbb3b7862f)" d="M 52.746449 333.36 
L 52.746449 207.058764 
L 57.819176 207.058764 
L 57.819176 44.178483 
L 62.891903 44.178483 
L 62.891903 46.939165 
L 67.96463 46.939165 
L 67.96463 128.379306 
L 73.037358 128.379306 
L 73.037358 191.875009 
L 78.110086 191.875009 
L 78.110086 227.073714 
L 83.182812 227.073714 
L 83.182812 219.136751 
L 88.25554 219.136751 
L 88.25554 239.151701 
L 93.328266 239.151701 
L 93.328266 228.799141 
L 98.400996 228.799141 
L 98.400996 219.826922 
L 103.473722 219.826922 
L 103.473722 222.93269 
L 108.546449 222.93269 
L 108.546449 217.411325 
L 113.619175 217.411325 
L 113.619175 215.340813 
L 118.691901 215.340813 
L 118.691901 207.748935 
L 123.764631 207.748935 
L 123.764631 215.685898 
L 128.837361 215.685898 
L 128.837361 196.706204 
L 133.910083 196.706204 
L 133.910083 198.431631 
L 138.982813 198.431631 
L 138.982813 205.333338 
L 144.055543 205.333338 
L 144.055543 208.094021 
L 149.128266 208.094021 
L 149.128266 215.340813 
L 154.200996 215.340813 
L 154.200996 206.713679 
L 159.273718 206.713679 
L 159.273718 205.333338 
L 164.346448 205.333338 
L 164.346448 218.446581 
L 169.419178 218.446581 
L 169.419178 214.650642 
L 174.491901 214.650642 
L 174.491901 221.897434 
L 179.564631 221.897434 
L 179.564631 229.144226 
L 184.637353 229.144226 
L 184.637353 216.721154 
L 189.710091 216.721154 
L 189.710091 226.728629 
L 194.782813 226.728629 
L 194.782813 227.763885 
L 204.928273 227.763885 
L 204.928273 222.93269 
L 210.000996 222.93269 
L 210.000996 239.841872 
L 215.073718 239.841872 
L 215.073718 237.426275 
L 220.146456 237.426275 
L 220.146456 247.088664 
L 225.219178 247.088664 
L 225.219178 242.257469 
L 230.2919 242.257469 
L 230.2919 250.194432 
L 235.364638 250.194432 
L 235.364638 253.990371 
L 240.43736 253.990371 
L 240.43736 258.131395 
L 245.510083 258.131395 
L 245.510083 246.398494 
L 250.582805 246.398494 
L 250.582805 259.856822 
L 255.655543 259.856822 
L 255.655543 258.131395 
L 260.728265 258.131395 
L 260.728265 273.31515 
L 265.800988 273.31515 
L 265.800988 271.589724 
L 270.873725 271.589724 
L 270.873725 267.793785 
L 275.946448 267.793785 
L 275.946448 270.209382 
L 281.01917 270.209382 
L 281.01917 277.456174 
L 286.091908 277.456174 
L 286.091908 274.695492 
L 291.16463 274.695492 
L 291.16463 286.083308 
L 296.237353 286.083308 
L 296.237353 280.907028 
L 301.31009 280.907028 
L 301.31009 285.738223 
L 306.382812 285.738223 
L 306.382812 296.435868 
L 311.455535 296.435868 
L 311.455535 287.808735 
L 316.528257 287.808735 
L 316.528257 284.357881 
L 321.60098 284.357881 
L 321.60098 294.020271 
L 326.673732 294.020271 
L 326.673732 301.612148 
L 331.746455 301.612148 
L 331.746455 299.541636 
L 336.819177 299.541636 
L 336.819177 291.949759 
L 341.8919 291.949759 
L 341.8919 304.717917 
L 346.964622 304.717917 
L 346.964622 300.576892 
L 352.037345 300.576892 
L 352.037345 305.753173 
L 357.110097 305.753173 
L 357.110097 303.682661 
L 362.18282 303.682661 
L 362.18282 302.647404 
L 367.255542 302.647404 
L 367.255542 309.549111 
L 372.328265 309.549111 
L 372.328265 309.204026 
L 377.400987 309.204026 
L 377.400987 310.239282 
L 382.473709 310.239282 
L 382.473709 311.274538 
L 387.546462 311.274538 
L 387.546462 300.231807 
L 392.619185 300.231807 
L 392.619185 311.964709 
L 397.691907 311.964709 
L 397.691907 319.211501 
L 402.764629 319.211501 
L 402.764629 310.239282 
L 407.837352 310.239282 
L 407.837352 314.380306 
L 412.910074 314.380306 
L 412.910074 311.964709 
L 417.982827 311.964709 
L 417.982827 309.204026 
L 423.055549 309.204026 
L 423.055549 311.619623 
L 428.128272 311.619623 
L 428.128272 321.972184 
L 433.200994 321.972184 
L 433.200994 318.176245 
L 438.273717 318.176245 
L 438.273717 316.450818 
L 443.346439 316.450818 
L 443.346439 319.901672 
L 448.419162 319.901672 
L 448.419162 316.105733 
L 453.491914 316.105733 
L 453.491914 319.211501 
L 458.564637 319.211501 
L 458.564637 317.486074 
L 463.637359 317.486074 
L 463.637359 322.317269 
L 468.710082 322.317269 
L 468.710082 320.936928 
L 473.782804 320.936928 
L 473.782804 322.317269 
L 478.855526 322.317269 
L 478.855526 321.627098 
L 483.928279 321.627098 
L 483.928279 323.352525 
L 489.001002 323.352525 
L 489.001002 323.00744 
L 494.073724 323.00744 
L 494.073724 323.352525 
L 499.146446 323.352525 
L 499.146446 325.077952 
L 504.219169 325.077952 
L 504.219169 323.352525 
L 509.291891 323.352525 
L 509.291891 324.732866 
L 514.364644 324.732866 
L 514.364644 325.423037 
L 519.437366 325.423037 
L 519.437366 324.042696 
L 524.510089 324.042696 
L 524.510089 325.077952 
L 529.582811 325.077952 
L 529.582811 326.458293 
L 534.655534 326.458293 
L 534.655534 327.838635 
L 539.728256 327.838635 
L 539.728256 325.077952 
L 549.873731 325.077952 
L 549.873731 326.458293 
L 554.946454 326.458293 
L 554.946454 327.148464 
L 560.019176 327.148464 
L 560.019176 333.36 
L 560.019176 333.36 
" style="fill:none;stroke:#ff0000;stroke-linejoin:miter;stroke-width:2;"/>
   </g>
   <g id="patch_5">
    <path clip-path="url(#pfbb3b7862f)" d="M 52.746449 333.36 
L 52.746449 210.164533 
L 57.819176 210.164533 
L 57.819176 49.009677 
L 62.891903 49.009677 
L 62.891903 51.080189 
L 67.96463 51.080189 
L 67.96463 133.555586 
L 73.037358 133.555586 
L 73.037358 196.361119 
L 78.110086 196.361119 
L 78.110086 233.975421 
L 83.182812 233.975421 
L 83.182812 227.073714 
L 88.25554 227.073714 
L 88.25554 244.673067 
L 93.328266 244.673067 
L 93.328266 237.081189 
L 98.400996 237.081189 
L 98.400996 225.693373 
L 103.473722 225.693373 
L 103.473722 234.320507 
L 108.546449 234.320507 
L 108.546449 228.454056 
L 113.619175 228.454056 
L 113.619175 223.277776 
L 118.691901 223.277776 
L 118.691901 216.721154 
L 123.764631 216.721154 
L 123.764631 226.038458 
L 128.837361 226.038458 
L 128.837361 209.819447 
L 133.910083 209.819447 
L 133.910083 207.058764 
L 138.982813 207.058764 
L 138.982813 215.340813 
L 144.055543 215.340813 
L 144.055543 218.791666 
L 149.128266 218.791666 
L 149.128266 226.038458 
L 154.200996 226.038458 
L 154.200996 216.376069 
L 159.273718 216.376069 
L 159.273718 213.270301 
L 164.346448 213.270301 
L 164.346448 227.073714 
L 169.419178 227.073714 
L 169.419178 221.897434 
L 174.491901 221.897434 
L 174.491901 231.559824 
L 179.564631 231.559824 
L 179.564631 240.186957 
L 184.637353 240.186957 
L 184.637353 226.038458 
L 189.710091 226.038458 
L 189.710091 237.426275 
L 194.782813 237.426275 
L 194.782813 234.320507 
L 199.855536 234.320507 
L 199.855536 237.081189 
L 204.928273 237.081189 
L 204.928273 230.524568 
L 210.000996 230.524568 
L 210.000996 245.708323 
L 215.073718 245.708323 
L 215.073718 244.327982 
L 220.146456 244.327982 
L 220.146456 252.264944 
L 225.219178 252.264944 
L 225.219178 251.919859 
L 230.2919 251.919859 
L 230.2919 257.096139 
L 235.364638 257.096139 
L 235.364638 259.511737 
L 240.43736 259.511737 
L 240.43736 263.652761 
L 245.510083 263.652761 
L 245.510083 255.025627 
L 250.582805 255.025627 
L 250.582805 266.068358 
L 255.655543 266.068358 
L 255.655543 265.378187 
L 260.728265 265.378187 
L 260.728265 278.146345 
L 265.800988 278.146345 
L 265.800988 278.836516 
L 270.873725 278.836516 
L 270.873725 273.660236 
L 275.946448 273.660236 
L 275.946448 276.420918 
L 281.01917 276.420918 
L 281.01917 279.526687 
L 286.091908 279.526687 
L 286.091908 280.561943 
L 291.16463 280.561943 
L 291.16463 290.224332 
L 296.237353 290.224332 
L 296.237353 283.667711 
L 301.31009 283.667711 
L 301.31009 289.879247 
L 306.382812 289.879247 
L 306.382812 300.576892 
L 311.455535 300.576892 
L 311.455535 291.259588 
L 316.528257 291.259588 
L 316.528257 289.189076 
L 321.60098 289.189076 
L 321.60098 296.780954 
L 326.673732 296.780954 
L 326.673732 303.682661 
L 331.746455 303.682661 
L 331.746455 302.302319 
L 336.819177 302.302319 
L 336.819177 294.710442 
L 341.8919 294.710442 
L 341.8919 306.443343 
L 346.964622 306.443343 
L 346.964622 303.337575 
L 352.037345 303.337575 
L 352.037345 308.858941 
L 357.110097 308.858941 
L 357.110097 306.443343 
L 362.18282 306.443343 
L 362.18282 307.823685 
L 367.255542 307.823685 
L 367.255542 311.964709 
L 372.328265 311.964709 
L 372.328265 311.274538 
L 377.400987 311.274538 
L 377.400987 313.34505 
L 382.473709 313.34505 
L 382.473709 311.964709 
L 387.546462 311.964709 
L 387.546462 302.99249 
L 392.619185 302.99249 
L 392.619185 312.999965 
L 397.691907 312.999965 
L 397.691907 321.282013 
L 402.764629 321.282013 
L 402.764629 312.309794 
L 407.837352 312.309794 
L 407.837352 316.105733 
L 412.910074 316.105733 
L 412.910074 313.34505 
L 417.982827 313.34505 
L 417.982827 312.999965 
L 423.055549 312.999965 
L 423.055549 313.34505 
L 428.128272 313.34505 
L 428.128272 324.042696 
L 433.200994 324.042696 
L 433.200994 320.246757 
L 438.273717 320.246757 
L 438.273717 316.795904 
L 443.346439 316.795904 
L 443.346439 321.972184 
L 448.419162 321.972184 
L 448.419162 317.83116 
L 453.491914 317.83116 
L 453.491914 319.556586 
L 463.637359 319.556586 
L 463.637359 323.69761 
L 468.710082 323.69761 
L 468.710082 322.317269 
L 473.782804 322.317269 
L 473.782804 324.732866 
L 478.855526 324.732866 
L 478.855526 323.352525 
L 483.928279 323.352525 
L 483.928279 325.077952 
L 489.001002 325.077952 
L 489.001002 323.352525 
L 494.073724 323.352525 
L 494.073724 324.042696 
L 499.146446 324.042696 
L 499.146446 325.768122 
L 504.219169 325.768122 
L 504.219169 325.077952 
L 509.291891 325.077952 
L 509.291891 325.423037 
L 519.437366 325.423037 
L 519.437366 326.113208 
L 524.510089 326.113208 
L 524.510089 326.803378 
L 529.582811 326.803378 
L 529.582811 327.493549 
L 534.655534 327.493549 
L 534.655534 328.18372 
L 539.728256 328.18372 
L 539.728256 326.803378 
L 544.801009 326.803378 
L 544.801009 326.458293 
L 549.873731 326.458293 
L 549.873731 327.148464 
L 554.946454 327.148464 
L 554.946454 328.528805 
L 560.019176 328.528805 
L 560.019176 333.36 
L 560.019176 333.36 
" style="fill:none;stroke:#008000;stroke-linejoin:miter;stroke-width:2;"/>
   </g>
   <g id="patch_6">
    <path clip-path="url(#pfbb3b7862f)" d="M 52.746449 333.36 
L 52.746449 214.305557 
L 57.819176 214.305557 
L 57.819176 57.981896 
L 62.891903 57.981896 
L 62.891903 59.707323 
L 67.96463 59.707323 
L 67.96463 138.731867 
L 73.037358 138.731867 
L 73.037358 206.368594 
L 78.110086 206.368594 
L 78.110086 240.186957 
L 83.182812 240.186957 
L 83.182812 236.391019 
L 88.25554 236.391019 
L 88.25554 250.884603 
L 93.328266 250.884603 
L 93.328266 243.982896 
L 98.400996 243.982896 
L 98.400996 232.249995 
L 103.473722 232.249995 
L 103.473722 242.257469 
L 108.546449 242.257469 
L 108.546449 234.665592 
L 113.619175 234.665592 
L 113.619175 233.975421 
L 118.691901 233.975421 
L 118.691901 229.144226 
L 123.764631 229.144226 
L 123.764631 232.59508 
L 128.837361 232.59508 
L 128.837361 219.826922 
L 133.910083 219.826922 
L 133.910083 214.650642 
L 138.982813 214.650642 
L 138.982813 225.348288 
L 144.055543 225.348288 
L 144.055543 229.144226 
L 149.128266 229.144226 
L 149.128266 235.010677 
L 154.200996 235.010677 
L 154.200996 225.693373 
L 159.273718 225.693373 
L 159.273718 220.517093 
L 164.346448 220.517093 
L 164.346448 235.700848 
L 169.419178 235.700848 
L 169.419178 231.559824 
L 174.491901 231.559824 
L 174.491901 238.461531 
L 179.564631 238.461531 
L 179.564631 246.053408 
L 184.637353 246.053408 
L 184.637353 234.665592 
L 189.710091 234.665592 
L 189.710091 244.327982 
L 194.782813 244.327982 
L 194.782813 240.186957 
L 199.855536 240.186957 
L 199.855536 243.292725 
L 204.928273 243.292725 
L 204.928273 238.116445 
L 210.000996 238.116445 
L 210.000996 251.574774 
L 215.073718 251.574774 
L 215.073718 249.849347 
L 220.146456 249.849347 
L 220.146456 259.166651 
L 225.219178 259.166651 
L 225.219178 257.441225 
L 230.2919 257.441225 
L 230.2919 260.201907 
L 235.364638 260.201907 
L 235.364638 264.342931 
L 240.43736 264.342931 
L 240.43736 268.13887 
L 245.510083 268.13887 
L 245.510083 260.201907 
L 250.582805 260.201907 
L 250.582805 269.519212 
L 255.655543 269.519212 
L 255.655543 268.483956 
L 260.728265 268.483956 
L 260.728265 281.597199 
L 265.800988 281.597199 
L 265.800988 280.561943 
L 270.873725 280.561943 
L 270.873725 275.385662 
L 275.946448 275.385662 
L 275.946448 278.146345 
L 281.01917 278.146345 
L 281.01917 284.012796 
L 286.091908 284.012796 
L 286.091908 285.048052 
L 291.16463 285.048052 
L 291.16463 295.055527 
L 296.237353 295.055527 
L 296.237353 287.808735 
L 301.31009 287.808735 
L 301.31009 294.020271 
L 306.382812 294.020271 
L 306.382812 301.957234 
L 311.455535 301.957234 
L 311.455535 295.055527 
L 316.528257 295.055527 
L 316.528257 291.949759 
L 321.60098 291.949759 
L 321.60098 299.541636 
L 326.673732 299.541636 
L 326.673732 304.717917 
L 331.746455 304.717917 
L 331.746455 305.063002 
L 336.819177 305.063002 
L 336.819177 296.780954 
L 341.8919 296.780954 
L 341.8919 307.133514 
L 346.964622 307.133514 
L 346.964622 305.753173 
L 352.037345 305.753173 
L 352.037345 311.274538 
L 357.110097 311.274538 
L 357.110097 308.513855 
L 362.18282 308.513855 
L 362.18282 309.549111 
L 367.255542 309.549111 
L 367.255542 313.690135 
L 372.328265 313.690135 
L 372.328265 312.309794 
L 377.400987 312.309794 
L 377.400987 314.035221 
L 382.473709 314.035221 
L 382.473709 312.654879 
L 387.546462 312.654879 
L 387.546462 303.337575 
L 392.619185 303.337575 
L 392.619185 314.380306 
L 397.691907 314.380306 
L 397.691907 321.627098 
L 402.764629 321.627098 
L 402.764629 314.380306 
L 407.837352 314.380306 
L 407.837352 316.795904 
L 412.910074 316.795904 
L 412.910074 315.070477 
L 417.982827 315.070477 
L 417.982827 313.690135 
L 423.055549 313.690135 
L 423.055549 314.035221 
L 428.128272 314.035221 
L 428.128272 324.387781 
L 433.200994 324.387781 
L 433.200994 321.972184 
L 438.273717 321.972184 
L 438.273717 318.52133 
L 443.346439 318.52133 
L 443.346439 321.972184 
L 448.419162 321.972184 
L 448.419162 317.83116 
L 453.491914 317.83116 
L 453.491914 320.591842 
L 463.637359 320.591842 
L 463.637359 324.042696 
L 468.710082 324.042696 
L 468.710082 322.317269 
L 473.782804 322.317269 
L 473.782804 325.077952 
L 478.855526 325.077952 
L 478.855526 324.042696 
L 483.928279 324.042696 
L 483.928279 325.423037 
L 489.001002 325.423037 
L 489.001002 323.69761 
L 494.073724 323.69761 
L 494.073724 325.768122 
L 499.146446 325.768122 
L 499.146446 326.458293 
L 504.219169 326.458293 
L 504.219169 325.423037 
L 509.291891 325.423037 
L 509.291891 325.768122 
L 514.364644 325.768122 
L 514.364644 326.803378 
L 519.437366 326.803378 
L 519.437366 326.458293 
L 524.510089 326.458293 
L 524.510089 326.803378 
L 529.582811 326.803378 
L 529.582811 327.493549 
L 534.655534 327.493549 
L 534.655534 328.18372 
L 539.728256 328.18372 
L 539.728256 327.148464 
L 544.801009 327.148464 
L 544.801009 326.803378 
L 549.873731 326.803378 
L 549.873731 327.493549 
L 554.946454 327.493549 
L 554.946454 328.528805 
L 560.019176 328.528805 
L 560.019176 333.36 
L 560.019176 333.36 
" style="fill:none;stroke:#ffff00;stroke-linejoin:miter;stroke-width:2;"/>
   </g>
   <g id="patch_7">
    <path clip-path="url(#pfbb3b7862f)" d="M 52.746449 333.36 
L 52.746449 231.214738 
L 57.819176 231.214738 
L 57.819176 101.117564 
L 67.96463 101.117564 
L 67.96463 169.789547 
L 73.037358 169.789547 
L 73.037358 236.045933 
L 78.110086 236.045933 
L 78.110086 259.511737 
L 83.182812 259.511737 
L 83.182812 261.237163 
L 88.25554 261.237163 
L 88.25554 269.519212 
L 93.328266 269.519212 
L 93.328266 262.272419 
L 98.400996 262.272419 
L 98.400996 257.78631 
L 103.473722 257.78631 
L 103.473722 266.413443 
L 108.546449 266.413443 
L 108.546449 259.511737 
L 113.619175 259.511737 
L 113.619175 257.78631 
L 118.691901 257.78631 
L 118.691901 252.955115 
L 123.764631 252.955115 
L 123.764631 255.715798 
L 128.837361 255.715798 
L 128.837361 246.743579 
L 133.910083 246.743579 
L 133.910083 241.567299 
L 138.982813 241.567299 
L 138.982813 247.088664 
L 144.055543 247.088664 
L 144.055543 258.821566 
L 154.200996 258.821566 
L 154.200996 249.849347 
L 159.273718 249.849347 
L 159.273718 248.12392 
L 164.346448 248.12392 
L 164.346448 256.060883 
L 169.419178 256.060883 
L 169.419178 252.955115 
L 174.491901 252.955115 
L 174.491901 260.546993 
L 179.564631 260.546993 
L 179.564631 267.4487 
L 184.637353 267.4487 
L 184.637353 258.476481 
L 189.710091 258.476481 
L 189.710091 263.652761 
L 194.782813 263.652761 
L 194.782813 259.166651 
L 199.855536 259.166651 
L 199.855536 261.237163 
L 204.928273 261.237163 
L 204.928273 259.856822 
L 210.000996 259.856822 
L 210.000996 270.209382 
L 215.073718 270.209382 
L 215.073718 267.4487 
L 220.146456 267.4487 
L 220.146456 275.385662 
L 225.219178 275.385662 
L 225.219178 272.62498 
L 230.2919 272.62498 
L 230.2919 278.49143 
L 235.364638 278.49143 
L 235.364638 280.561943 
L 240.43736 280.561943 
L 240.43736 285.048052 
L 245.510083 285.048052 
L 245.510083 277.111089 
L 250.582805 277.111089 
L 250.582805 281.597199 
L 255.655543 281.597199 
L 255.655543 280.907028 
L 260.728265 280.907028 
L 260.728265 294.365356 
L 265.800988 294.365356 
L 265.800988 295.745698 
L 270.873725 295.745698 
L 270.873725 289.879247 
L 281.01917 289.879247 
L 281.01917 292.294844 
L 286.091908 292.294844 
L 286.091908 295.055527 
L 291.16463 295.055527 
L 291.16463 303.337575 
L 296.237353 303.337575 
L 296.237353 295.745698 
L 301.31009 295.745698 
L 301.31009 300.231807 
L 306.382812 300.231807 
L 306.382812 310.584367 
L 311.455535 310.584367 
L 311.455535 301.612148 
L 316.528257 301.612148 
L 316.528257 298.851466 
L 321.60098 298.851466 
L 321.60098 305.753173 
L 326.673732 305.753173 
L 326.673732 312.654879 
L 336.819177 312.654879 
L 336.819177 305.408087 
L 341.8919 305.408087 
L 341.8919 314.725391 
L 346.964622 314.725391 
L 346.964622 311.619623 
L 352.037345 311.619623 
L 352.037345 316.450818 
L 357.110097 316.450818 
L 357.110097 315.070477 
L 362.18282 315.070477 
L 362.18282 315.415562 
L 367.255542 315.415562 
L 367.255542 319.901672 
L 372.328265 319.901672 
L 372.328265 315.415562 
L 377.400987 315.415562 
L 377.400987 318.866416 
L 382.473709 318.866416 
L 382.473709 317.486074 
L 387.546462 317.486074 
L 387.546462 307.823685 
L 392.619185 307.823685 
L 392.619185 318.52133 
L 397.691907 318.52133 
L 397.691907 325.768122 
L 402.764629 325.768122 
L 402.764629 317.486074 
L 407.837352 317.486074 
L 407.837352 320.246757 
L 412.910074 320.246757 
L 412.910074 319.556586 
L 417.982827 319.556586 
L 417.982827 315.760648 
L 423.055549 315.760648 
L 423.055549 317.83116 
L 428.128272 317.83116 
L 428.128272 325.768122 
L 433.200994 325.768122 
L 433.200994 323.69761 
L 438.273717 323.69761 
L 438.273717 321.972184 
L 443.346439 321.972184 
L 443.346439 323.69761 
L 448.419162 323.69761 
L 448.419162 322.662354 
L 453.491914 322.662354 
L 453.491914 323.00744 
L 458.564637 323.00744 
L 458.564637 324.732866 
L 463.637359 324.732866 
L 463.637359 326.458293 
L 468.710082 326.458293 
L 468.710082 324.387781 
L 473.782804 324.387781 
L 473.782804 326.803378 
L 478.855526 326.803378 
L 478.855526 326.458293 
L 483.928279 326.458293 
L 483.928279 327.838635 
L 489.001002 327.838635 
L 489.001002 325.768122 
L 494.073724 325.768122 
L 494.073724 327.493549 
L 499.146446 327.493549 
L 499.146446 327.838635 
L 504.219169 327.838635 
L 504.219169 328.18372 
L 509.291891 328.18372 
L 509.291891 327.148464 
L 514.364644 327.148464 
L 514.364644 328.528805 
L 519.437366 328.528805 
L 519.437366 328.18372 
L 529.582811 328.18372 
L 529.582811 328.873891 
L 539.728256 328.873891 
L 539.728256 327.493549 
L 544.801009 327.493549 
L 544.801009 328.528805 
L 549.873731 328.528805 
L 549.873731 329.218976 
L 560.019176 329.218976 
L 560.019176 333.36 
L 560.019176 333.36 
" style="fill:none;stroke:#ffa500;stroke-linejoin:miter;stroke-width:2;"/>
   </g>
   <g id="patch_8">
    <path clip-path="url(#pfbb3b7862f)" d="M 52.746449 333.36 
L 52.746449 276.420918 
L 57.819176 276.420918 
L 57.819176 206.713679 
L 62.891903 206.713679 
L 62.891903 213.615386 
L 67.96463 213.615386 
L 67.96463 245.363238 
L 73.037358 245.363238 
L 73.037358 282.287369 
L 78.110086 282.287369 
L 78.110086 300.921978 
L 83.182812 300.921978 
L 83.182812 302.647404 
L 88.25554 302.647404 
L 88.25554 303.337575 
L 93.328266 303.337575 
L 93.328266 299.886722 
L 98.400996 299.886722 
L 98.400996 301.612148 
L 103.473722 301.612148 
L 103.473722 302.647404 
L 108.546449 302.647404 
L 108.546449 303.682661 
L 113.619175 303.682661 
L 113.619175 300.576892 
L 118.691901 300.576892 
L 118.691901 298.851466 
L 123.764631 298.851466 
L 123.764631 303.682661 
L 128.837361 303.682661 
L 128.837361 298.851466 
L 133.910083 298.851466 
L 133.910083 300.921978 
L 138.982813 300.921978 
L 138.982813 298.50638 
L 144.055543 298.50638 
L 144.055543 300.576892 
L 149.128266 300.576892 
L 149.128266 299.886722 
L 154.200996 299.886722 
L 154.200996 292.985015 
L 164.346448 292.985015 
L 164.346448 291.604674 
L 169.419178 291.604674 
L 169.419178 295.745698 
L 174.491901 295.745698 
L 174.491901 301.612148 
L 179.564631 301.612148 
L 179.564631 302.302319 
L 184.637353 302.302319 
L 184.637353 301.612148 
L 189.710091 301.612148 
L 189.710091 300.921978 
L 194.782813 300.921978 
L 194.782813 298.161295 
L 199.855536 298.161295 
L 199.855536 302.302319 
L 204.928273 302.302319 
L 204.928273 308.513855 
L 210.000996 308.513855 
L 210.000996 305.063002 
L 215.073718 305.063002 
L 215.073718 306.788429 
L 220.146456 306.788429 
L 220.146456 311.619623 
L 225.219178 311.619623 
L 225.219178 304.027746 
L 230.2919 304.027746 
L 230.2919 308.513855 
L 235.364638 308.513855 
L 235.364638 311.619623 
L 245.510083 311.619623 
L 245.510083 311.274538 
L 250.582805 311.274538 
L 250.582805 308.16877 
L 255.655543 308.16877 
L 255.655543 307.823685 
L 260.728265 307.823685 
L 260.728265 315.415562 
L 265.800988 315.415562 
L 265.800988 315.760648 
L 270.873725 315.760648 
L 270.873725 314.725391 
L 275.946448 314.725391 
L 275.946448 312.309794 
L 281.01917 312.309794 
L 281.01917 315.415562 
L 286.091908 315.415562 
L 286.091908 313.690135 
L 291.16463 313.690135 
L 291.16463 318.52133 
L 296.237353 318.52133 
L 296.237353 315.070477 
L 301.31009 315.070477 
L 301.31009 318.866416 
L 306.382812 318.866416 
L 306.382812 324.042696 
L 311.455535 324.042696 
L 311.455535 320.246757 
L 316.528257 320.246757 
L 316.528257 319.211501 
L 321.60098 319.211501 
L 321.60098 323.00744 
L 326.673732 323.00744 
L 326.673732 324.042696 
L 331.746455 324.042696 
L 331.746455 324.732866 
L 336.819177 324.732866 
L 336.819177 321.627098 
L 341.8919 321.627098 
L 341.8919 325.423037 
L 346.964622 325.423037 
L 346.964622 323.352525 
L 352.037345 323.352525 
L 352.037345 327.838635 
L 357.110097 327.838635 
L 357.110097 325.077952 
L 362.18282 325.077952 
L 362.18282 326.803378 
L 367.255542 326.803378 
L 367.255542 328.18372 
L 372.328265 328.18372 
L 372.328265 325.423037 
L 377.400987 325.423037 
L 377.400987 325.768122 
L 382.473709 325.768122 
L 382.473709 325.423037 
L 387.546462 325.423037 
L 387.546462 319.901672 
L 392.619185 319.901672 
L 392.619185 326.803378 
L 397.691907 326.803378 
L 397.691907 329.909147 
L 402.764629 329.909147 
L 402.764629 326.803378 
L 407.837352 326.803378 
L 407.837352 327.148464 
L 412.910074 327.148464 
L 412.910074 328.873891 
L 417.982827 328.873891 
L 417.982827 325.423037 
L 423.055549 325.423037 
L 423.055549 327.148464 
L 428.128272 327.148464 
L 428.128272 329.909147 
L 433.200994 329.909147 
L 433.200994 327.148464 
L 438.273717 327.148464 
L 438.273717 325.768122 
L 443.346439 325.768122 
L 443.346439 329.564061 
L 448.419162 329.564061 
L 448.419162 329.218976 
L 453.491914 329.218976 
L 453.491914 329.909147 
L 458.564637 329.909147 
L 458.564637 329.564061 
L 463.637359 329.564061 
L 463.637359 329.218976 
L 468.710082 329.218976 
L 468.710082 328.528805 
L 473.782804 328.528805 
L 473.782804 331.289488 
L 478.855526 331.289488 
L 478.855526 330.944403 
L 483.928279 330.944403 
L 483.928279 329.909147 
L 489.001002 329.909147 
L 489.001002 330.254232 
L 494.073724 330.254232 
L 494.073724 330.599317 
L 499.146446 330.599317 
L 499.146446 332.669829 
L 504.219169 332.669829 
L 504.219169 330.254232 
L 509.291891 330.254232 
L 509.291891 331.634573 
L 514.364644 331.634573 
L 514.364644 330.599317 
L 519.437366 330.599317 
L 519.437366 331.979659 
L 524.510089 331.979659 
L 524.510089 330.944403 
L 529.582811 330.944403 
L 529.582811 331.289488 
L 539.728256 331.289488 
L 539.728256 329.564061 
L 544.801009 329.564061 
L 544.801009 331.289488 
L 549.873731 331.289488 
L 549.873731 330.944403 
L 554.946454 330.944403 
L 554.946454 331.289488 
L 560.019176 331.289488 
L 560.019176 333.36 
L 560.019176 333.36 
" style="fill:none;stroke:#000000;stroke-linejoin:miter;stroke-width:2;"/>
   </g>
   <g id="patch_9">
    <path d="M 27.382812 333.36 
L 27.382812 7.2 
" style="fill:none;stroke:#000000;stroke-linecap:square;stroke-linejoin:miter;stroke-width:2;"/>
   </g>
   <g id="patch_10">
    <path d="M 585.382812 333.36 
L 585.382812 7.2 
" style="fill:none;stroke:#000000;stroke-linecap:square;stroke-linejoin:miter;stroke-width:2;"/>
   </g>
   <g id="patch_11">
    <path d="M 27.382812 333.36 
L 585.382812 333.36 
" style="fill:none;stroke:#000000;stroke-linecap:square;stroke-linejoin:miter;stroke-width:2;"/>
   </g>
   <g id="patch_12">
    <path d="M 27.382812 7.2 
L 585.382812 7.2 
" style="fill:none;stroke:#000000;stroke-linecap:square;stroke-linejoin:miter;stroke-width:2;"/>
   </g>
   <g id="text_16">
    <!-- 0.15 -->
    <g transform="translate(90.791903 333.36)scale(0.12 -0.12)">
     <use xlink:href="#ArialMT-48"/>
     <use x="55.615234" xlink:href="#ArialMT-46"/>
     <use x="83.398438" xlink:href="#ArialMT-49"/>
     <use x="139.013672" xlink:href="#ArialMT-53"/>
    </g>
   </g>
   <g id="legend_1">
    <g id="patch_13">
     <path d="M 392.3775 31.391563 
L 413.3775 31.391563 
L 413.3775 21.591563 
L 392.3775 21.591563 
z
" style="fill:none;stroke:#ff0000;stroke-linejoin:miter;stroke-width:2;"/>
    </g>
    <g id="text_17">
     <!-- ITS &amp; (&gt;= 0TPC) | 3795 -->
     <g transform="translate(424.5775 31.391563)scale(0.14 -0.14)">
      <defs>
       <path d="M 9.328125 0 
L 9.328125 71.578125 
L 18.796875 71.578125 
L 18.796875 0 
z
" id="ArialMT-73"/>
       <path d="M 25.921875 0 
L 25.921875 63.140625 
L 2.34375 63.140625 
L 2.34375 71.578125 
L 59.078125 71.578125 
L 59.078125 63.140625 
L 35.40625 63.140625 
L 35.40625 0 
z
" id="ArialMT-84"/>
       <path d="M 4.5 23 
L 13.421875 23.78125 
Q 14.0625 18.40625 16.375 14.96875 
Q 18.703125 11.53125 23.578125 9.40625 
Q 28.46875 7.28125 34.578125 7.28125 
Q 39.984375 7.28125 44.140625 8.890625 
Q 48.296875 10.5 50.3125 13.296875 
Q 52.34375 16.109375 52.34375 19.4375 
Q 52.34375 22.796875 50.390625 25.3125 
Q 48.4375 27.828125 43.953125 29.546875 
Q 41.0625 30.671875 31.203125 33.03125 
Q 21.34375 35.40625 17.390625 37.5 
Q 12.25 40.1875 9.734375 44.15625 
Q 7.234375 48.140625 7.234375 53.078125 
Q 7.234375 58.5 10.296875 63.203125 
Q 13.375 67.921875 19.28125 70.359375 
Q 25.203125 72.796875 32.421875 72.796875 
Q 40.375 72.796875 46.453125 70.234375 
Q 52.546875 67.671875 55.8125 62.6875 
Q 59.078125 57.71875 59.328125 51.421875 
L 50.25 50.734375 
Q 49.515625 57.515625 45.28125 60.984375 
Q 41.0625 64.453125 32.8125 64.453125 
Q 24.21875 64.453125 20.28125 61.296875 
Q 16.359375 58.15625 16.359375 53.71875 
Q 16.359375 49.859375 19.140625 47.359375 
Q 21.875 44.875 33.421875 42.265625 
Q 44.96875 39.65625 49.265625 37.703125 
Q 55.515625 34.8125 58.484375 30.390625 
Q 61.46875 25.984375 61.46875 20.21875 
Q 61.46875 14.5 58.203125 9.4375 
Q 54.9375 4.390625 48.796875 1.578125 
Q 42.671875 -1.21875 35.015625 -1.21875 
Q 25.296875 -1.21875 18.71875 1.609375 
Q 12.15625 4.4375 8.421875 10.125 
Q 4.6875 15.828125 4.5 23 
z
" id="ArialMT-83"/>
       <path id="ArialMT-32"/>
       <path d="M 47.515625 8.453125 
Q 43.171875 3.609375 38.03125 1.1875 
Q 32.90625 -1.21875 26.953125 -1.21875 
Q 15.96875 -1.21875 9.515625 6.203125 
Q 4.296875 12.25 4.296875 19.734375 
Q 4.296875 26.375 8.5625 31.71875 
Q 12.84375 37.0625 21.34375 41.109375 
Q 16.5 46.6875 14.890625 50.140625 
Q 13.28125 53.609375 13.28125 56.84375 
Q 13.28125 63.28125 18.328125 68.03125 
Q 23.390625 72.796875 31.0625 72.796875 
Q 38.375 72.796875 43.03125 68.296875 
Q 47.703125 63.8125 47.703125 57.515625 
Q 47.703125 47.3125 34.1875 40.09375 
L 47.015625 23.734375 
Q 49.21875 28.03125 50.4375 33.6875 
L 59.578125 31.734375 
Q 57.234375 22.359375 53.21875 16.3125 
Q 58.15625 9.765625 64.40625 5.328125 
L 58.5 -1.65625 
Q 53.171875 1.765625 47.515625 8.453125 
z
M 29.640625 45.75 
Q 35.359375 49.125 37.03125 51.65625 
Q 38.71875 54.203125 38.71875 57.28125 
Q 38.71875 60.9375 36.390625 63.25 
Q 34.078125 65.578125 30.609375 65.578125 
Q 27.046875 65.578125 24.671875 63.28125 
Q 22.3125 60.984375 22.3125 57.671875 
Q 22.3125 56 23.171875 54.171875 
Q 24.03125 52.34375 25.734375 50.296875 
z
M 42 15.375 
L 25.875 35.359375 
Q 18.75 31.109375 16.25 27.46875 
Q 13.765625 23.828125 13.765625 20.265625 
Q 13.765625 15.921875 17.234375 11.234375 
Q 20.703125 6.546875 27.046875 6.546875 
Q 31 6.546875 35.21875 9 
Q 39.453125 11.46875 42 15.375 
z
" id="ArialMT-38"/>
       <path d="M 23.390625 -21.046875 
Q 16.109375 -11.859375 11.078125 0.4375 
Q 6.0625 12.75 6.0625 25.921875 
Q 6.0625 37.546875 9.8125 48.1875 
Q 14.203125 60.546875 23.390625 72.796875 
L 29.6875 72.796875 
Q 23.78125 62.640625 21.875 58.296875 
Q 18.890625 51.5625 17.1875 44.234375 
Q 15.09375 35.109375 15.09375 25.875 
Q 15.09375 2.390625 29.6875 -21.046875 
z
" id="ArialMT-40"/>
       <path d="M 52.875 31.296875 
L 5.46875 11.03125 
L 5.46875 19.78125 
L 43.015625 35.359375 
L 5.46875 50.78125 
L 5.46875 59.515625 
L 52.875 39.5 
z
" id="ArialMT-62"/>
       <path d="M 52.828125 42.09375 
L 5.5625 42.09375 
L 5.5625 50.296875 
L 52.828125 50.296875 
z
M 52.828125 20.359375 
L 5.5625 20.359375 
L 5.5625 28.5625 
L 52.828125 28.5625 
z
" id="ArialMT-61"/>
       <path d="M 7.71875 0 
L 7.71875 71.578125 
L 34.71875 71.578125 
Q 41.84375 71.578125 45.609375 70.90625 
Q 50.875 70.015625 54.4375 67.546875 
Q 58.015625 65.09375 60.1875 60.640625 
Q 62.359375 56.203125 62.359375 50.875 
Q 62.359375 41.75 56.546875 35.421875 
Q 50.734375 29.109375 35.546875 29.109375 
L 17.1875 29.109375 
L 17.1875 0 
z
M 17.1875 37.546875 
L 35.6875 37.546875 
Q 44.875 37.546875 48.734375 40.96875 
Q 52.59375 44.390625 52.59375 50.59375 
Q 52.59375 55.078125 50.3125 58.265625 
Q 48.046875 61.46875 44.34375 62.5 
Q 41.9375 63.140625 35.5 63.140625 
L 17.1875 63.140625 
z
" id="ArialMT-80"/>
       <path d="M 58.796875 25.09375 
L 68.265625 22.703125 
Q 65.28125 11.03125 57.546875 4.90625 
Q 49.8125 -1.21875 38.625 -1.21875 
Q 27.046875 -1.21875 19.796875 3.484375 
Q 12.546875 8.203125 8.765625 17.140625 
Q 4.984375 26.078125 4.984375 36.328125 
Q 4.984375 47.515625 9.25 55.828125 
Q 13.53125 64.15625 21.40625 68.46875 
Q 29.296875 72.796875 38.765625 72.796875 
Q 49.515625 72.796875 56.828125 67.328125 
Q 64.15625 61.859375 67.046875 51.953125 
L 57.71875 49.75 
Q 55.21875 57.5625 50.484375 61.125 
Q 45.75 64.703125 38.578125 64.703125 
Q 30.328125 64.703125 24.78125 60.734375 
Q 19.234375 56.78125 16.984375 50.109375 
Q 14.75 43.453125 14.75 36.375 
Q 14.75 27.25 17.40625 20.4375 
Q 20.0625 13.625 25.671875 10.25 
Q 31.296875 6.890625 37.84375 6.890625 
Q 45.796875 6.890625 51.3125 11.46875 
Q 56.84375 16.0625 58.796875 25.09375 
z
" id="ArialMT-67"/>
       <path d="M 12.359375 -21.046875 
L 6.0625 -21.046875 
Q 20.65625 2.390625 20.65625 25.875 
Q 20.65625 35.0625 18.5625 44.09375 
Q 16.890625 51.421875 13.921875 58.15625 
Q 12.015625 62.546875 6.0625 72.796875 
L 12.359375 72.796875 
Q 21.53125 60.546875 25.921875 48.1875 
Q 29.6875 37.546875 29.6875 25.921875 
Q 29.6875 12.75 24.625 0.4375 
Q 19.578125 -11.859375 12.359375 -21.046875 
z
" id="ArialMT-41"/>
       <path d="M 9.1875 -21.046875 
L 9.1875 72.796875 
L 16.84375 72.796875 
L 16.84375 -21.046875 
z
" id="ArialMT-124"/>
       <path d="M 4.203125 18.890625 
L 12.984375 20.0625 
Q 14.5 12.59375 18.140625 9.296875 
Q 21.78125 6 27 6 
Q 33.203125 6 37.46875 10.296875 
Q 41.75 14.59375 41.75 20.953125 
Q 41.75 27 37.796875 30.921875 
Q 33.84375 34.859375 27.734375 34.859375 
Q 25.25 34.859375 21.53125 33.890625 
L 22.515625 41.609375 
Q 23.390625 41.5 23.921875 41.5 
Q 29.546875 41.5 34.03125 44.421875 
Q 38.53125 47.359375 38.53125 53.46875 
Q 38.53125 58.296875 35.25 61.46875 
Q 31.984375 64.65625 26.8125 64.65625 
Q 21.6875 64.65625 18.265625 61.421875 
Q 14.84375 58.203125 13.875 51.765625 
L 5.078125 53.328125 
Q 6.6875 62.15625 12.390625 67.015625 
Q 18.109375 71.875 26.609375 71.875 
Q 32.46875 71.875 37.390625 69.359375 
Q 42.328125 66.84375 44.9375 62.5 
Q 47.5625 58.15625 47.5625 53.265625 
Q 47.5625 48.640625 45.0625 44.828125 
Q 42.578125 41.015625 37.703125 38.765625 
Q 44.046875 37.3125 47.5625 32.6875 
Q 51.078125 28.078125 51.078125 21.140625 
Q 51.078125 11.765625 44.234375 5.25 
Q 37.40625 -1.265625 26.953125 -1.265625 
Q 17.53125 -1.265625 11.296875 4.34375 
Q 5.078125 9.96875 4.203125 18.890625 
z
" id="ArialMT-51"/>
       <path d="M 5.46875 16.546875 
L 13.921875 17.328125 
Q 14.984375 11.375 18.015625 8.6875 
Q 21.046875 6 25.78125 6 
Q 29.828125 6 32.875 7.859375 
Q 35.9375 9.71875 37.890625 12.8125 
Q 39.84375 15.921875 41.15625 21.1875 
Q 42.484375 26.46875 42.484375 31.9375 
Q 42.484375 32.515625 42.4375 33.6875 
Q 39.796875 29.5 35.234375 26.875 
Q 30.671875 24.265625 25.34375 24.265625 
Q 16.453125 24.265625 10.296875 30.703125 
Q 4.15625 37.15625 4.15625 47.703125 
Q 4.15625 58.59375 10.578125 65.234375 
Q 17 71.875 26.65625 71.875 
Q 33.640625 71.875 39.421875 68.109375 
Q 45.21875 64.359375 48.21875 57.390625 
Q 51.21875 50.4375 51.21875 37.25 
Q 51.21875 23.53125 48.234375 15.40625 
Q 45.265625 7.28125 39.375 3.03125 
Q 33.5 -1.21875 25.59375 -1.21875 
Q 17.1875 -1.21875 11.859375 3.4375 
Q 6.546875 8.109375 5.46875 16.546875 
z
M 41.453125 48.140625 
Q 41.453125 55.71875 37.421875 60.15625 
Q 33.40625 64.59375 27.734375 64.59375 
Q 21.875 64.59375 17.53125 59.8125 
Q 13.1875 55.03125 13.1875 47.40625 
Q 13.1875 40.578125 17.3125 36.296875 
Q 21.4375 32.03125 27.484375 32.03125 
Q 33.59375 32.03125 37.515625 36.296875 
Q 41.453125 40.578125 41.453125 48.140625 
z
" id="ArialMT-57"/>
      </defs>
      <use xlink:href="#ArialMT-73"/>
      <use x="27.783203" xlink:href="#ArialMT-84"/>
      <use x="88.867188" xlink:href="#ArialMT-83"/>
      <use x="155.566406" xlink:href="#ArialMT-32"/>
      <use x="183.349609" xlink:href="#ArialMT-38"/>
      <use x="250.048828" xlink:href="#ArialMT-32"/>
      <use x="277.832031" xlink:href="#ArialMT-40"/>
      <use x="311.132812" xlink:href="#ArialMT-62"/>
      <use x="369.53125" xlink:href="#ArialMT-61"/>
      <use x="427.929688" xlink:href="#ArialMT-32"/>
      <use x="455.712891" xlink:href="#ArialMT-48"/>
      <use x="511.328125" xlink:href="#ArialMT-84"/>
      <use x="572.412109" xlink:href="#ArialMT-80"/>
      <use x="639.111328" xlink:href="#ArialMT-67"/>
      <use x="711.328125" xlink:href="#ArialMT-41"/>
      <use x="744.628906" xlink:href="#ArialMT-32"/>
      <use x="772.412109" xlink:href="#ArialMT-124"/>
      <use x="798.388672" xlink:href="#ArialMT-32"/>
      <use x="826.171875" xlink:href="#ArialMT-51"/>
      <use x="881.787109" xlink:href="#ArialMT-55"/>
      <use x="937.402344" xlink:href="#ArialMT-57"/>
      <use x="993.017578" xlink:href="#ArialMT-53"/>
     </g>
    </g>
    <g id="patch_14">
     <path d="M 392.3775 51.529688 
L 413.3775 51.529688 
L 413.3775 41.729688 
L 392.3775 41.729688 
z
" style="fill:none;stroke:#008000;stroke-linejoin:miter;stroke-width:2;"/>
    </g>
    <g id="text_18">
     <!-- ITS &amp; (&gt;= 1TPC) | 3677 -->
     <g transform="translate(424.5775 51.529688)scale(0.14 -0.14)">
      <use xlink:href="#ArialMT-73"/>
      <use x="27.783203" xlink:href="#ArialMT-84"/>
      <use x="88.867188" xlink:href="#ArialMT-83"/>
      <use x="155.566406" xlink:href="#ArialMT-32"/>
      <use x="183.349609" xlink:href="#ArialMT-38"/>
      <use x="250.048828" xlink:href="#ArialMT-32"/>
      <use x="277.832031" xlink:href="#ArialMT-40"/>
      <use x="311.132812" xlink:href="#ArialMT-62"/>
      <use x="369.53125" xlink:href="#ArialMT-61"/>
      <use x="427.929688" xlink:href="#ArialMT-32"/>
      <use x="455.712891" xlink:href="#ArialMT-49"/>
      <use x="511.328125" xlink:href="#ArialMT-84"/>
      <use x="572.412109" xlink:href="#ArialMT-80"/>
      <use x="639.111328" xlink:href="#ArialMT-67"/>
      <use x="711.328125" xlink:href="#ArialMT-41"/>
      <use x="744.628906" xlink:href="#ArialMT-32"/>
      <use x="772.412109" xlink:href="#ArialMT-124"/>
      <use x="798.388672" xlink:href="#ArialMT-32"/>
      <use x="826.171875" xlink:href="#ArialMT-51"/>
      <use x="881.787109" xlink:href="#ArialMT-54"/>
      <use x="937.402344" xlink:href="#ArialMT-55"/>
      <use x="993.017578" xlink:href="#ArialMT-55"/>
     </g>
    </g>
    <g id="patch_15">
     <path d="M 392.3775 71.667813 
L 413.3775 71.667813 
L 413.3775 61.867813 
L 392.3775 61.867813 
z
" style="fill:none;stroke:#ffff00;stroke-linejoin:miter;stroke-width:2;"/>
    </g>
    <g id="text_19">
     <!-- ITS &amp; (&gt;= 2TPC) | 3521 -->
     <g transform="translate(424.5775 71.667813)scale(0.14 -0.14)">
      <use xlink:href="#ArialMT-73"/>
      <use x="27.783203" xlink:href="#ArialMT-84"/>
      <use x="88.867188" xlink:href="#ArialMT-83"/>
      <use x="155.566406" xlink:href="#ArialMT-32"/>
      <use x="183.349609" xlink:href="#ArialMT-38"/>
      <use x="250.048828" xlink:href="#ArialMT-32"/>
      <use x="277.832031" xlink:href="#ArialMT-40"/>
      <use x="311.132812" xlink:href="#ArialMT-62"/>
      <use x="369.53125" xlink:href="#ArialMT-61"/>
      <use x="427.929688" xlink:href="#ArialMT-32"/>
      <use x="455.712891" xlink:href="#ArialMT-50"/>
      <use x="511.328125" xlink:href="#ArialMT-84"/>
      <use x="572.412109" xlink:href="#ArialMT-80"/>
      <use x="639.111328" xlink:href="#ArialMT-67"/>
      <use x="711.328125" xlink:href="#ArialMT-41"/>
      <use x="744.628906" xlink:href="#ArialMT-32"/>
      <use x="772.412109" xlink:href="#ArialMT-124"/>
      <use x="798.388672" xlink:href="#ArialMT-32"/>
      <use x="826.171875" xlink:href="#ArialMT-51"/>
      <use x="881.787109" xlink:href="#ArialMT-53"/>
      <use x="937.402344" xlink:href="#ArialMT-50"/>
      <use x="993.017578" xlink:href="#ArialMT-49"/>
     </g>
    </g>
    <g id="patch_16">
     <path d="M 392.3775 91.805938 
L 413.3775 91.805938 
L 413.3775 82.005938 
L 392.3775 82.005938 
z
" style="fill:none;stroke:#ffa500;stroke-linejoin:miter;stroke-width:2;"/>
    </g>
    <g id="text_20">
     <!-- ITS &amp; (&gt;= 3TPC) | 2902 -->
     <g transform="translate(424.5775 91.805938)scale(0.14 -0.14)">
      <use xlink:href="#ArialMT-73"/>
      <use x="27.783203" xlink:href="#ArialMT-84"/>
      <use x="88.867188" xlink:href="#ArialMT-83"/>
      <use x="155.566406" xlink:href="#ArialMT-32"/>
      <use x="183.349609" xlink:href="#ArialMT-38"/>
      <use x="250.048828" xlink:href="#ArialMT-32"/>
      <use x="277.832031" xlink:href="#ArialMT-40"/>
      <use x="311.132812" xlink:href="#ArialMT-62"/>
      <use x="369.53125" xlink:href="#ArialMT-61"/>
      <use x="427.929688" xlink:href="#ArialMT-32"/>
      <use x="455.712891" xlink:href="#ArialMT-51"/>
      <use x="511.328125" xlink:href="#ArialMT-84"/>
      <use x="572.412109" xlink:href="#ArialMT-80"/>
      <use x="639.111328" xlink:href="#ArialMT-67"/>
      <use x="711.328125" xlink:href="#ArialMT-41"/>
      <use x="744.628906" xlink:href="#ArialMT-32"/>
      <use x="772.412109" xlink:href="#ArialMT-124"/>
      <use x="798.388672" xlink:href="#ArialMT-32"/>
      <use x="826.171875" xlink:href="#ArialMT-50"/>
      <use x="881.787109" xlink:href="#ArialMT-57"/>
      <use x="937.402344" xlink:href="#ArialMT-48"/>
      <use x="993.017578" xlink:href="#ArialMT-50"/>
     </g>
    </g>
    <g id="patch_17">
     <path d="M 392.3775 111.944063 
L 413.3775 111.944063 
L 413.3775 102.144063 
L 392.3775 102.144063 
z
" style="fill:none;stroke:#000000;stroke-linejoin:miter;stroke-width:2;"/>
    </g>
    <g id="text_21">
     <!-- ITS &amp; ( =  4TPC) | 1504 -->
     <g transform="translate(424.5775 111.944063)scale(0.14 -0.14)">
      <use xlink:href="#ArialMT-73"/>
      <use x="27.783203" xlink:href="#ArialMT-84"/>
      <use x="88.867188" xlink:href="#ArialMT-83"/>
      <use x="155.566406" xlink:href="#ArialMT-32"/>
      <use x="183.349609" xlink:href="#ArialMT-38"/>
      <use x="250.048828" xlink:href="#ArialMT-32"/>
      <use x="277.832031" xlink:href="#ArialMT-40"/>
      <use x="311.132812" xlink:href="#ArialMT-32"/>
      <use x="338.916016" xlink:href="#ArialMT-61"/>
      <use x="397.314453" xlink:href="#ArialMT-32"/>
      <use x="425.097656" xlink:href="#ArialMT-32"/>
      <use x="452.880859" xlink:href="#ArialMT-52"/>
      <use x="508.496094" xlink:href="#ArialMT-84"/>
      <use x="569.580078" xlink:href="#ArialMT-80"/>
      <use x="636.279297" xlink:href="#ArialMT-67"/>
      <use x="708.496094" xlink:href="#ArialMT-41"/>
      <use x="741.796875" xlink:href="#ArialMT-32"/>
      <use x="769.580078" xlink:href="#ArialMT-124"/>
      <use x="795.556641" xlink:href="#ArialMT-32"/>
      <use x="823.339844" xlink:href="#ArialMT-49"/>
      <use x="878.955078" xlink:href="#ArialMT-53"/>
      <use x="934.570312" xlink:href="#ArialMT-48"/>
      <use x="990.185547" xlink:href="#ArialMT-52"/>
     </g>
    </g>
   </g>
  </g>
 </g>
 <defs>
  <clipPath id="pfbb3b7862f">
   <rect height="326.16" width="558" x="27.382812" y="7.2"/>
  </clipPath>
 </defs>
</svg>
